<svg width="62" height="65" viewBox="0 0 62 65" fill="none" xmlns="http://www.w3.org/2000/svg">
<path d="M9.47026 56.4796C7.60979 55.9727 5.01406 57.0366 4.45703 58.1506V14.7027C4.45703 11.9343 6.70184 9.68945 9.47026 9.68945V56.4796Z" fill="#B5D44F"/>
<path d="M51.5248 51.99C51.0624 51.99 50.6892 51.6167 50.6892 51.1544V10.2131H30.3355C29.8732 10.2131 29.5 9.83986 29.5 9.37753C29.5 8.9152 29.8732 8.54199 30.3355 8.54199H51.5248C51.9871 8.54199 52.3603 8.9152 52.3603 9.37753V51.1544C52.3603 51.6167 51.9871 51.99 51.5248 51.99Z" fill="#252D32"/>
<path d="M4.73398 59.7883C4.27164 59.7883 3.89844 59.4151 3.89844 58.9528V14.5356C3.89844 11.2269 6.58887 8.54199 9.89202 8.54199H20.3697C20.832 8.54199 21.2052 8.9152 21.2052 9.37753C21.2052 9.83986 20.832 10.2131 20.3697 10.2131H9.89202C7.50796 10.2131 5.56951 12.1515 5.56951 14.5356V58.9528C5.56951 59.4151 5.19631 59.7883 4.73398 59.7883Z" fill="#252D32"/>
<path d="M27.5709 64.8015H8.51508C7.01668 64.8015 5.5907 64.0773 4.69946 62.8686C3.79708 61.6376 3.54085 60.0723 4.00875 58.5684C4.60477 56.6633 6.46523 55.332 8.54293 55.332H33.1356C33.5979 55.332 33.9711 55.7052 33.9711 56.1676C33.9711 56.6299 33.5979 57.0031 33.1356 57.0031H8.54293C7.18936 57.0031 5.98062 57.8498 5.60742 59.0697C5.30105 60.0612 5.45702 61.0861 6.04746 61.8826C6.6212 62.6681 7.54586 63.1304 8.51508 63.1304H27.5709C28.0332 63.1304 28.4065 63.5036 28.4065 63.9659C28.4065 64.4283 28.0332 64.8015 27.5709 64.8015Z" fill="#252D32"/>
<path d="M9.18905 55.8887C8.72672 55.8887 8.35352 55.5155 8.35352 55.0532V9.93417C8.35352 9.47184 8.72672 9.09863 9.18905 9.09863C9.65138 9.09863 10.0246 9.47184 10.0246 9.93417V55.0532C10.0246 55.5155 9.65138 55.8887 9.18905 55.8887Z" fill="#252D32"/>
<path d="M38.4593 54.2183H41.7235C45.7117 54.2183 48.9425 57.4546 48.9369 61.4373C48.9369 62.997 47.6168 64.2447 46.0515 64.2447H34.1256C32.566 64.2447 31.2458 63.0025 31.2402 61.4373C31.2402 57.449 34.4654 54.2183 38.4537 54.2183H38.4593Z" fill="#B5D44F"/>
<path d="M41.3927 46.0968L42.9579 39.1897C41.3259 31.6587 31.0042 14.04 22.543 1.57935L27.0437 20.3121L29.5893 21.9498L28.2803 23.9829L31.8731 38.5324L41.3983 46.1024L41.3927 46.0968Z" fill="#FB954C"/>
<path d="M42.5628 50.2746C42.2118 50.2746 41.8888 50.0518 41.7718 49.7009C39.6328 43.245 36.2127 33.2352 33.6002 26.2668C33.4387 25.8324 33.6559 25.3533 34.0904 25.1918C34.5249 25.0302 35.0039 25.2475 35.1655 25.682C37.7835 32.6726 41.2148 42.7046 43.3593 49.1717C43.5041 49.6118 43.2646 50.0797 42.8301 50.2301C42.741 50.2579 42.6519 50.2746 42.5683 50.2746H42.5628Z" fill="#252D32"/>
<path d="M31.6378 19.9889C31.3147 19.9889 31.0083 19.805 30.8746 19.4875C30.0335 17.5714 29.2258 15.9114 28.4794 14.5523C28.2566 14.1512 28.4014 13.6388 28.8081 13.416C29.2091 13.1931 29.7216 13.338 29.9444 13.7446C30.7187 15.1483 31.5486 16.8528 32.412 18.8191C32.5958 19.2424 32.4065 19.7326 31.9831 19.922C31.8717 19.9721 31.7603 19.9944 31.6489 19.9944L31.6378 19.9889Z" fill="#252D32"/>
<path d="M40.4036 45.9847C40.2309 45.9847 40.0583 45.9346 39.9134 45.8232L30.9676 39.2949C30.7615 39.1445 30.639 38.9105 30.6278 38.6599C30.522 36.493 29.6308 32.3321 27.631 24.7454C27.4082 23.9043 27.9653 23.0186 28.4833 22.4059C27.6199 21.5926 26.4724 20.4117 26.2663 19.6542C25.0687 15.2314 23.626 10.0176 21.955 3.97948L21.1473 1.06067C21.047 0.693034 21.203 0.308687 21.5316 0.113728C21.8603 -0.0756605 22.2725 -0.0255282 22.5398 0.241844C40.9105 18.5234 44.9378 32.4045 45.1049 32.9838C45.1328 33.0952 45.1439 33.2066 45.1272 33.318L44.2638 39.8129C44.2025 40.2697 43.7792 40.5872 43.3224 40.5315C42.8657 40.4702 42.5426 40.0524 42.6039 39.5901L43.445 33.2734C42.9659 31.7639 38.7715 19.5372 23.6205 3.71768C25.2692 9.67785 26.6952 14.8303 27.8817 19.2086C27.9987 19.5539 29.1016 20.7348 30.2379 21.7319C30.4162 21.8878 30.522 22.1162 30.522 22.3557C30.522 22.5953 30.4217 22.8236 30.2435 22.9796C29.7422 23.4308 29.252 24.1048 29.252 24.3388C31.1849 31.6915 32.0817 35.7856 32.2711 38.1697L40.9049 44.4696C41.2781 44.7426 41.3617 45.2662 41.0888 45.6394C40.9272 45.8622 40.671 45.9847 40.4148 45.9847H40.4036Z" fill="#252D32"/>
<path d="M51.1461 64.8015H34.5022C32.4523 64.8015 30.7868 63.1694 30.7812 61.1642C30.7812 59.014 31.6168 56.9865 33.1375 55.4658C34.6581 53.9451 36.6801 53.104 38.8303 53.104H46.8124C48.9625 53.104 50.9846 53.9395 52.5052 55.4658C54.0259 56.9865 54.8614 59.014 54.8614 61.1642C54.8614 63.1694 53.1904 64.8071 51.1405 64.8071L51.1461 64.8015ZM38.8303 54.7751C37.1258 54.7751 35.5215 55.4379 34.3183 56.6467C33.1152 57.8554 32.4523 59.4541 32.4523 61.1642C32.4523 62.2504 33.3714 63.136 34.5022 63.136H51.1461C52.2768 63.136 53.1904 62.2504 53.1959 61.1642C53.1959 59.4597 52.5331 57.8554 51.3299 56.6523C50.1267 55.4491 48.5225 54.7807 46.818 54.7807H38.8358L38.8303 54.7751Z" fill="#252D32"/>
<path d="M47.0667 54.7752H37.5973C37.1349 54.7752 36.7617 54.402 36.7617 53.9397V49.4835C36.7617 49.0212 37.1349 48.6479 37.5973 48.6479H47.0667C47.529 48.6479 47.9022 49.0212 47.9022 49.4835V53.9397C47.9022 54.402 47.529 54.7752 47.0667 54.7752ZM38.4328 53.1041H46.2311V50.319H38.4328V53.1041Z" fill="#252D32"/>
<path d="M60.4372 64.8017H0.835538C0.373207 64.8017 0 64.4285 0 63.9662C0 63.5038 0.373207 63.1306 0.835538 63.1306H60.4372C60.8996 63.1306 61.2728 63.5038 61.2728 63.9662C61.2728 64.4285 60.8996 64.8017 60.4372 64.8017Z" fill="#252D32"/>
<path d="M25.3437 29.7092H19.2164C18.7541 29.7092 18.3809 29.336 18.3809 28.8736C18.3809 28.4113 18.7541 28.0381 19.2164 28.0381H25.3437C25.806 28.0381 26.1792 28.4113 26.1792 28.8736C26.1792 29.336 25.806 29.7092 25.3437 29.7092Z" fill="#252D32"/>
<path d="M25.905 35.2792H15.8785C15.4162 35.2792 15.043 34.906 15.043 34.4437C15.043 33.9814 15.4162 33.6082 15.8785 33.6082H25.905C26.3673 33.6082 26.7405 33.9814 26.7405 34.4437C26.7405 34.906 26.3673 35.2792 25.905 35.2792Z" fill="#252D32"/>
</svg>
