<svg width="63" height="60" viewBox="0 0 63 60" fill="none" xmlns="http://www.w3.org/2000/svg">
<path d="M11.6696 19.9058C11.6696 16.6022 12.3841 13.1557 15.2645 12.7654C16.4903 10.6711 19.9808 10.814 22.4599 11.7705C24.928 12.7159 27.8469 14.7443 27.0113 19.8509C26.7915 21.2031 25.6701 22.5278 25.2303 22.3959L24.994 19.2132C21.9872 19.1418 19.3542 18.1798 16.3749 16.2174C13.5 16.3219 13.6539 19.6475 13.1922 22.2035C12.8294 22.2145 11.9774 21.6318 11.6641 19.9113L11.6696 19.9058Z" fill="#B5D44F"/>
<path d="M10.1015 34.8954C9.85963 34.8954 9.62326 34.791 9.45836 34.5876C9.17252 34.2303 9.23299 33.7136 9.58479 33.4277C10.5632 32.6417 11.8055 31.9876 13.4986 31.3774C15.3345 30.7123 15.9831 30.278 15.9831 29.1841C15.9831 28.7279 16.3514 28.3596 16.8077 28.3596C17.2639 28.3596 17.6322 28.7279 17.6322 29.1841C17.6322 31.6303 15.5654 32.3778 14.0592 32.9275C12.5641 33.4717 11.4372 34.0544 10.6182 34.714C10.4643 34.8349 10.2829 34.8954 10.1015 34.8954Z" fill="#252D32"/>
<path d="M19.5197 30.3878C16.469 30.3878 12.918 27.3151 12.918 23.3519V19.7899C12.918 17.6296 14.4076 15.3154 16.6284 15.3154C16.8043 15.3154 16.9747 15.3704 17.1176 15.4748C17.1616 15.5078 21.6965 18.7949 25.8961 18.2123C26.3468 18.1518 26.7646 18.4651 26.825 18.9159C26.8855 19.3666 26.5722 19.7844 26.1214 19.8449C26.072 19.8503 26.028 19.8558 25.9785 19.8613C26.061 19.9878 26.1105 20.1417 26.1105 20.3066V23.3464C26.1105 27.3096 22.5705 30.3824 19.5197 30.3824V30.3878ZM16.3975 16.981C15.3366 17.1624 14.567 18.5421 14.567 19.7899V23.3519C14.567 26.2542 17.2935 28.7388 19.5197 28.7388C21.7459 28.7388 24.4614 26.2542 24.4614 23.3519V20.3121C24.4614 20.1747 24.4944 20.0427 24.5549 19.9273C20.8115 19.8119 17.3539 17.6351 16.392 16.981H16.3975Z" fill="#252D32"/>
<path d="M28.6874 34.7305C28.517 34.7305 28.3411 34.6755 28.1927 34.5656C27.3902 33.9664 26.3293 33.4277 24.9441 32.9275C23.4379 32.3778 21.3711 31.6303 21.3711 29.1841C21.3711 28.7279 21.7394 28.3596 22.1956 28.3596C22.6519 28.3596 23.0202 28.7279 23.0202 29.1841C23.0202 30.278 23.6743 30.7123 25.5047 31.3774C27.0439 31.9381 28.2422 32.5482 29.1766 33.2463C29.5394 33.5212 29.6164 34.0379 29.3416 34.4007C29.1821 34.6151 28.9293 34.7305 28.6819 34.7305H28.6874Z" fill="#252D32"/>
<path d="M45.9138 52.1337C45.6829 52.1337 45.452 52.0348 45.2871 51.8479C44.9903 51.5016 45.0288 50.9848 45.3696 50.6825C47.8102 48.5717 50.5971 45.7958 50.8444 44.9878C51.2842 43.5641 51.2677 39.5898 50.8115 34.8625C50.4432 31.0697 48.3489 28.5356 44.3966 27.1119C42.7091 26.5018 40.4004 25.6718 40.4004 22.9783V22.5111C40.4004 22.0548 40.7687 21.6865 41.2249 21.6865C41.6812 21.6865 42.0495 22.0548 42.0495 22.5111V22.9783C42.0495 24.2975 42.907 24.8197 44.9573 25.5618C49.5032 27.1999 52.0263 30.2781 52.455 34.7086C52.9442 39.7877 52.9333 43.8169 52.422 45.477C51.9053 47.1535 47.3539 51.1498 46.4469 51.9358C46.293 52.0732 46.1007 52.1392 45.9083 52.1392L45.9138 52.1337Z" fill="#252D32"/>
<path d="M38.2512 24.2258C35.3214 24.2258 31.6055 20.6418 31.6055 16.6071V14.161C31.6055 13.8147 31.8199 13.5069 32.1442 13.3859C32.1826 13.3749 35.7831 12.0282 37.5806 9.46118C37.729 9.2468 37.9708 9.11487 38.2347 9.10938C38.493 9.11487 38.7459 9.21931 38.9053 9.42819C40.7193 11.7589 44.4572 13.3859 44.4956 13.4024C44.809 13.5399 45.0068 13.8532 44.9958 14.194L44.8969 16.6236C44.8859 20.6473 41.1755 24.2203 38.2512 24.2203V24.2258ZM33.2545 14.7162V16.6071C33.2545 19.6249 36.1184 22.5767 38.2512 22.5767C40.384 22.5767 43.2478 19.6249 43.2478 16.6071C43.2478 16.5961 43.2478 16.5851 43.2478 16.5741L43.3248 14.6777C42.2969 14.183 39.9662 12.9462 38.2897 11.2202C36.6131 13.1056 34.2989 14.2599 33.2545 14.7107V14.7162Z" fill="#252D32"/>
<path d="M26.6767 30.1516C26.4788 30.1516 26.2864 30.0801 26.127 29.9427C25.7862 29.6404 25.7587 29.1182 26.061 28.7774C27.5507 27.1118 29.5295 26.2488 31.448 25.5562C33.4983 24.8141 34.3558 24.2919 34.3558 22.9727V22.5054C34.3558 22.0492 34.7241 21.6809 35.1803 21.6809C35.6366 21.6809 36.0049 22.0492 36.0049 22.5054V22.9727C36.0049 25.6606 33.6962 26.4962 32.0086 27.1063C30.2936 27.722 28.5401 28.486 27.2923 29.8767C27.1274 30.0581 26.902 30.1516 26.6767 30.1516Z" fill="#252D32"/>
<path d="M38.2427 31.5918C35.3678 31.5918 32.7953 29.7723 31.8388 27.0623C31.6849 26.6336 31.9158 26.1608 32.3445 26.0124C32.7788 25.864 33.246 26.0894 33.3944 26.5181C34.1145 28.5685 36.0659 29.9482 38.2427 29.9482C40.4194 29.9482 42.3653 28.5685 43.0909 26.5181C43.2448 26.0894 43.712 25.864 44.1408 26.0124C44.5695 26.1663 44.7949 26.6336 44.6465 27.0623C43.6901 29.7723 41.1175 31.5918 38.2427 31.5918Z" fill="#252D32"/>
<path d="M50.418 25.4624C50.0552 25.4624 49.7199 25.2205 49.6209 24.8523C49.3351 23.7859 48.4831 22.8789 47.3892 22.4831C47.1199 22.3842 46.922 22.1533 46.8615 21.873C46.801 21.5926 46.8945 21.3013 47.1034 21.1034C47.807 20.4438 48.1368 19.4983 47.9609 18.6353L47.8399 18.0306C47.6915 17.2831 47.5046 16.3486 47.3397 15.7274C46.9934 14.4082 47.1144 13.5837 47.2408 12.7866C47.3397 12.1325 47.4442 11.4509 47.3013 10.335C47.2023 9.55996 46.6966 6.89947 44.4374 5.22842C42.9367 4.11256 40.9908 3.71129 38.6657 4.03011C38.5612 4.07408 38.4513 4.10157 38.3304 4.10157H38.138C38.017 4.10157 37.9071 4.07408 37.8027 4.03011C35.472 3.71129 33.5316 4.11256 32.0309 5.22842C29.7717 6.89947 29.266 9.55996 29.1671 10.335C29.0242 11.4509 29.1781 12.2149 29.3375 13.023C29.5244 13.9575 29.7223 14.9249 29.3705 16.2551C29.255 16.6949 28.8043 16.9587 28.3645 16.8433C27.9248 16.7279 27.6609 16.2771 27.7764 15.8374C28.0292 14.8809 27.8918 14.2048 27.7214 13.3528C27.5455 12.4898 27.3476 11.5113 27.529 10.1261C27.6499 9.18617 28.2656 5.96501 31.047 3.90368C32.9544 2.49098 35.373 1.99077 38.2369 2.42502C41.1008 1.99077 43.5139 2.48549 45.4268 3.90368C48.2082 5.96501 48.8239 9.18617 48.9448 10.1261C49.1207 11.4729 48.9943 12.3084 48.8789 13.0395C48.7634 13.7816 48.681 14.3202 48.9448 15.3097C49.1207 15.9803 49.3131 16.9423 49.467 17.7173L49.588 18.3165C49.8023 19.3719 49.5715 20.4932 48.9723 21.4332C50.0717 22.1258 50.8962 23.2087 51.2205 24.4345C51.336 24.8742 51.0776 25.325 50.6379 25.4459C50.5664 25.4679 50.4949 25.4734 50.4235 25.4734L50.418 25.4624Z" fill="#252D32"/>
<path d="M10.1727 46.5322V37.3579L24.2502 39.2763H29.4118V57.9657H24.9483L9.62305 55.4481V50.2701H11.415C13.0421 50.4295 13.5863 47.0269 11.9592 46.4882L10.1782 46.5322H10.1727Z" fill="#FB954C"/>
<path d="M43.7029 46.038L43.538 37.4189L28.8613 39.3319V58.0047L43.7029 55.5366V51.8922L41.3117 51.7768C40.2014 51.7768 40.02 49.0888 40.8335 47.9455C41.2238 47.3958 42.2132 47.6431 42.7464 47.4672C43.7029 47.4672 44.1811 46.5108 43.7029 46.0325V46.038Z" fill="#FB954C"/>
<path d="M28.5825 59.0651H24.7347C24.2784 59.0651 23.9102 58.6968 23.9102 58.2405C23.9102 57.7843 24.2784 57.416 24.7347 57.416H28.5825C29.0387 57.416 29.407 57.7843 29.407 58.2405C29.407 58.6968 29.0387 59.0651 28.5825 59.0651Z" fill="#252D32"/>
<path d="M24.7364 59.0709C24.6924 59.0709 24.6485 59.071 24.6045 59.06L9.76292 56.6688C9.36165 56.6029 9.07031 56.262 9.07031 55.8553V52.744C9.07031 52.2878 9.4386 51.9195 9.89484 51.9195C10.3511 51.9195 10.7194 52.2878 10.7194 52.744V55.1517L23.9119 57.279V39.8209L10.7194 38.1169V45.0429C10.7194 45.4992 10.3511 45.8675 9.89484 45.8675C9.4386 45.8675 9.07031 45.4992 9.07031 45.0429V37.1769C9.07031 36.9405 9.17476 36.7152 9.35066 36.5558C9.52656 36.4019 9.76292 36.3249 9.99929 36.3579L24.8408 38.2708C25.2531 38.3258 25.5609 38.6721 25.5609 39.0898V58.2409C25.5609 58.4828 25.4565 58.7137 25.2696 58.8676C25.1212 58.994 24.9288 59.0655 24.7364 59.0655V59.0709Z" fill="#252D32"/>
<path d="M29.1331 59.0706C28.9407 59.0706 28.7483 59.0046 28.5999 58.8727C28.4185 58.7188 28.3086 58.4879 28.3086 58.246V39.095C28.3086 38.6827 28.6164 38.3309 29.0287 38.2759L43.8702 36.363C44.1066 36.33 44.343 36.407 44.5189 36.5609C44.6948 36.7203 44.7992 36.9457 44.7992 37.182V45.0481C44.7992 45.5043 44.4309 45.8726 43.9747 45.8726C43.5184 45.8726 43.1501 45.5043 43.1501 45.0481V38.122L29.9577 39.826V57.2841L43.1501 55.1568V52.7492C43.1501 52.2929 43.5184 51.9246 43.9747 51.9246C44.4309 51.9246 44.7992 52.2929 44.7992 52.7492V55.8604C44.7992 56.2672 44.5079 56.608 44.1066 56.6739L29.265 59.0651C29.2211 59.0706 29.1771 59.0761 29.1331 59.0761V59.0706Z" fill="#252D32"/>
<path d="M11.3028 50.9685C11.2588 50.9685 11.2148 50.9685 11.1654 50.9685L8.69727 50.7981C7.65836 50.6936 6.83383 49.957 6.63044 48.9566L6.33911 47.5549C6.1742 46.9447 6.24016 46.2961 6.5205 45.7299C6.89429 44.9824 7.57041 44.4821 8.37845 44.3447L9.63173 44.1358C10.0715 44.0644 10.5057 44.3612 10.5827 44.812C10.6597 45.2627 10.3518 45.686 9.90657 45.7629L8.65329 45.9718C8.37295 46.0158 8.13108 46.1972 7.99916 46.4665C7.89472 46.6754 7.87274 46.9118 7.9387 47.1316C7.9387 47.1536 7.9497 47.1701 7.95519 47.1921L8.25203 48.6213C8.31249 48.9126 8.54885 49.127 8.84568 49.1545L11.2863 49.3249C11.4402 49.3304 11.5941 49.226 11.6271 49.0665L11.858 47.9122C11.8855 47.7803 11.825 47.6868 11.792 47.6428C11.7535 47.5989 11.6766 47.5274 11.5446 47.5274H10.4563C10 47.5274 9.63173 47.1591 9.63173 46.7029C9.63173 46.2466 10 45.8784 10.4563 45.8784H11.5446C12.1383 45.8784 12.6935 46.1422 13.0673 46.5984C13.4411 47.0602 13.5895 47.6538 13.4741 48.2365L13.2432 49.3909C13.0563 50.3143 12.2428 50.974 11.3083 50.974L11.3028 50.9685Z" fill="#252D32"/>
<path d="M41.9567 52.6889C40.9288 52.6889 40.0273 51.9578 39.8184 50.9354L39.5436 49.5722C39.4171 48.9291 39.582 48.2694 39.9943 47.7637C40.4121 47.258 41.0222 46.9667 41.6819 46.9667H42.8802C43.3364 46.9667 43.7047 47.335 43.7047 47.7912C43.7047 48.2475 43.3364 48.6157 42.8802 48.6157H41.6819C41.462 48.6157 41.3301 48.7367 41.2696 48.8081C41.2091 48.8796 41.1157 49.0335 41.1596 49.2479L41.4345 50.6111C41.484 50.875 41.7203 51.0454 41.9897 51.0344L44.903 50.831C45.2933 50.7925 45.6286 50.4902 45.7111 50.0834L46.0574 48.3959C46.0574 48.3959 46.0684 48.3574 46.0738 48.3354C46.1618 48.0331 46.1288 47.7143 45.9914 47.4394C45.81 47.0821 45.4912 46.8348 45.1119 46.7743C45.0679 46.7688 45.0294 46.7578 44.9855 46.7413L43.3749 46.2026C42.9406 46.0597 42.7098 45.5925 42.8527 45.1582C42.9956 44.724 43.4628 44.4931 43.8971 44.636L45.4472 45.1527C46.3212 45.3176 47.0578 45.8783 47.4646 46.6973C47.7834 47.335 47.8548 48.0661 47.6679 48.7532L47.3271 50.4132C47.0963 51.5346 46.1783 52.3591 45.0459 52.4745L42.1106 52.6779C42.0611 52.6779 42.0062 52.6779 41.9567 52.6779V52.6889Z" fill="#252D32"/>
<path d="M28.5825 39.8261H24.7347C24.2784 39.8261 23.9102 39.4578 23.9102 39.0015C23.9102 38.5453 24.2784 38.177 24.7347 38.177H28.5825C29.0387 38.177 29.407 38.5453 29.407 39.0015C29.407 39.4578 29.0387 39.8261 28.5825 39.8261Z" fill="#252D32"/>
<path d="M19.5062 33.8783C17.7912 33.8783 16.0707 33.3451 14.7349 32.2732C14.3777 31.9874 14.3227 31.4707 14.6085 31.1134C14.8944 30.7561 15.4111 30.7011 15.7684 30.9869C17.8352 32.636 21.1883 32.636 23.2551 30.9869C23.6124 30.7011 24.1291 30.7616 24.4149 31.1134C24.7008 31.4707 24.6403 31.9874 24.2885 32.2732C22.9528 33.3451 21.2323 33.8783 19.5172 33.8783H19.5062Z" fill="#252D32"/>
<path d="M47.4864 57.9876C47.2116 57.9876 46.9422 57.8502 46.7883 57.5973C46.5464 57.2125 46.6619 56.7013 47.0522 56.4595C55.7977 50.9901 61.0197 41.5739 61.0197 31.2728C61.0197 22.9725 57.5072 14.9911 51.3837 9.37877C51.0484 9.07094 51.0264 8.54874 51.3342 8.21343C51.642 7.87812 52.1642 7.85614 52.4996 8.16396C58.9639 14.0841 62.6688 22.5108 62.6688 31.2728C62.6688 42.1456 57.1609 52.084 47.9262 57.8557C47.7887 57.9436 47.6403 57.9821 47.4919 57.9821L47.4864 57.9876Z" fill="#B5D44F"/>
<path d="M4.10616 45.8784C3.80384 45.8784 3.518 45.7135 3.36958 45.4277C1.13236 41.0192 0 36.2589 0 31.2787C0 14.7222 12.9341 0.979972 29.4522 0.00152905C29.9085 -0.0259553 30.2988 0.320348 30.3262 0.776588C30.3537 1.23283 30.0074 1.62311 29.5512 1.65059C13.9071 2.57956 1.65456 15.5962 1.65456 31.2787C1.65456 35.995 2.72645 40.5025 4.84274 44.6801C5.04613 45.0869 4.88671 45.5816 4.47995 45.7905C4.35902 45.8509 4.23259 45.8784 4.10616 45.8784Z" fill="#B5D44F"/>
</svg>
