<svg width="61" height="59" viewBox="0 0 61 59" fill="none" xmlns="http://www.w3.org/2000/svg">
<path d="M20.125 10.2861V57.7167H58.9838V10.2861H20.125ZM54.4122 53.1451H24.6966V14.8578H54.4122V53.1451Z" fill="#FB954C"/>
<path d="M5.84034 40.036C3.93169 39.516 1.26872 40.6075 0.697266 41.7504V6.32032C0.697266 3.4802 3.00022 1.17725 5.84034 1.17725V40.036Z" fill="#B5D44F"/>
<path d="M0.982179 43.4304C0.507873 43.4304 0.125 43.0475 0.125 42.5732V6.14884C0.125 2.75441 2.88511 0 6.27383 0H40.9839C41.4582 0 41.841 0.382873 41.841 0.857179V6.00025C41.841 6.47456 41.4582 6.85743 40.9839 6.85743C40.5096 6.85743 40.1267 6.47456 40.1267 6.00025V1.71436H6.27383C3.82801 1.71436 1.83936 3.70302 1.83936 6.14884V42.5732C1.83936 43.0475 1.45648 43.4304 0.982179 43.4304Z" fill="#252D32"/>
<path d="M15.8361 48.5736H4.85844C3.32124 48.5736 1.85832 47.8307 0.944 46.5906C0.0182464 45.3277 -0.244625 43.7219 0.235395 42.179C0.84685 40.2247 2.7555 38.8589 4.88702 38.8589H15.8303C16.3046 38.8589 16.6875 39.2418 16.6875 39.7161C16.6875 40.1904 16.3046 40.5732 15.8303 40.5732H4.88702C3.49839 40.5732 2.25834 41.4418 1.87547 42.6933C1.56117 43.7105 1.72117 44.762 2.32691 45.5792C2.91551 46.3849 3.86412 46.8592 4.85844 46.8592H15.8361C16.3104 46.8592 16.6932 47.2421 16.6932 47.7164C16.6932 48.1907 16.3104 48.5736 15.8361 48.5736Z" fill="#252D32"/>
<path d="M5.55054 39.4302C5.07623 39.4302 4.69336 39.0473 4.69336 38.573V11.1433C4.69336 10.669 5.07623 10.2861 5.55054 10.2861C6.02484 10.2861 6.40772 10.669 6.40772 11.1433V38.573C6.40772 39.0473 6.02484 39.4302 5.55054 39.4302Z" fill="#252D32"/>
<path d="M5.55054 8.00042C5.07623 8.00042 4.69336 7.61754 4.69336 7.14324V1.42871C4.69336 0.954407 5.07623 0.571533 5.55054 0.571533C6.02484 0.571533 6.40772 0.954407 6.40772 1.42871V7.14324C6.40772 7.61754 6.02484 8.00042 5.55054 8.00042Z" fill="#252D32"/>
<path d="M30.9805 32.1961C31.4605 33.0876 32.6949 33.339 33.2663 32.7675C33.2663 32.7675 33.7349 28.8417 35.5521 27.6245C37.1008 26.5901 41.7695 27.493 42.981 27.6245C44.1925 27.7559 44.6954 27.3273 44.6954 27.3273V31.6246C45.2668 32.1961 46.9812 32.1961 47.5526 30.4817C48.587 28.7559 47.5869 26.9902 46.9812 25.3387V23.6243C46.1469 23.4929 45.004 23.6872 44.1239 23.0528C42.3181 21.7499 41.4438 21.2128 38.878 21.3499C36.5408 21.4756 34.655 23.4757 34.655 23.4757C34.655 23.4757 32.3977 23.7729 31.1177 25.9958C29.8433 28.2245 30.9748 32.1961 30.9748 32.1961H30.9805Z" fill="#B5D44F"/>
<path d="M30.8522 32.493C30.4637 32.493 30.1151 32.2301 30.0179 31.8358C29.4408 29.4472 29.7608 26.9728 30.8865 25.2127C31.8123 23.7612 33.2638 22.8012 35.081 22.4355C35.5439 22.344 35.9953 22.6412 36.0867 23.1098C36.1782 23.5726 35.881 24.0241 35.4124 24.1155C34.0467 24.3898 33.0066 25.0699 32.3266 26.1328C31.4465 27.51 31.2065 29.4872 31.6809 31.4301C31.7951 31.893 31.5094 32.3559 31.0523 32.4644C30.9837 32.4816 30.9151 32.4873 30.8465 32.4873L30.8522 32.493Z" fill="#252D32"/>
<path d="M47.0009 24.7213C45.6466 24.7213 44.6637 24.2412 43.6236 23.7269C42.7379 23.2926 41.8235 22.8469 40.5035 22.5898C37.2233 21.9554 36.0233 23.6698 35.9719 23.7441C35.709 24.1327 35.1775 24.247 34.789 23.9898C34.3947 23.7327 34.2804 23.2126 34.5318 22.8183C34.6061 22.704 36.3547 20.0411 40.8292 20.9097C42.3721 21.2068 43.4407 21.7326 44.3779 22.1897C45.3094 22.6469 46.0466 23.0069 47.0009 23.0069C47.4752 23.0069 47.8581 23.3898 47.8581 23.8641C47.8581 24.3384 47.4752 24.7213 47.0009 24.7213Z" fill="#252D32"/>
<path d="M39.2727 41.2536C36.2326 41.2536 32.6953 38.1449 32.6953 34.139V31.3789C32.6953 30.3502 32.9125 29.4074 33.3353 28.573C34.0554 27.1615 35.1811 26.3158 36.604 26.1158C37.4955 25.9901 38.5813 26.2072 39.7299 26.4301C41.4785 26.773 43.4558 27.1558 44.6387 26.3215C45.313 25.8472 45.7416 24.9786 45.9359 23.6814C46.0045 23.2128 46.4445 22.8985 46.9131 22.9614C47.3816 23.0299 47.7017 23.47 47.6331 23.9386C47.3817 25.5843 46.7759 26.8072 45.8273 27.573C45.833 27.6187 45.8387 27.6644 45.8387 27.7101V34.1333C45.8387 38.1392 42.3072 41.2478 39.2727 41.2478V41.2536ZM37.1698 27.7959C37.0498 27.7959 36.9355 27.8016 36.8326 27.8187C35.9812 27.9387 35.3183 28.453 34.8554 29.3559C34.5582 29.9388 34.404 30.6417 34.404 31.3846V34.1447C34.404 37.0534 37.0784 39.5449 39.267 39.5449C41.4557 39.5449 44.1186 37.0534 44.1186 34.1447V28.3902C42.5929 28.7445 40.8614 28.4073 39.3927 28.1216C38.5584 27.9559 37.7584 27.8016 37.1641 27.8016L37.1698 27.7959Z" fill="#252D32"/>
<path d="M27.4618 46.9737C27.2104 46.9737 26.9589 46.8651 26.7932 46.6537C26.4961 46.2822 26.5589 45.7451 26.9304 45.4479C28.1361 44.4821 29.6733 43.6821 31.7591 42.9221C34.0335 42.0935 34.9878 41.5106 34.9878 40.0134V39.1448C34.9878 38.6705 35.3707 38.2876 35.845 38.2876C36.3193 38.2876 36.7022 38.6705 36.7022 39.1448V40.0134C36.7022 42.9506 34.1821 43.865 32.3477 44.5336C30.4677 45.2193 29.0447 45.9565 28.0047 46.7908C27.8447 46.9165 27.6561 46.9794 27.4675 46.9794L27.4618 46.9737Z" fill="#252D32"/>
<path d="M51.3965 47.2423C51.1965 47.2423 50.9965 47.1737 50.8308 47.0308C49.745 46.0822 48.2763 45.2879 46.1963 44.5336C44.3562 43.865 41.8418 42.9506 41.8418 40.0134V39.1448C41.8418 38.6705 42.2247 38.2876 42.699 38.2876C43.1733 38.2876 43.5562 38.6705 43.5562 39.1448V40.0134C43.5562 41.5049 44.5048 42.0935 46.7849 42.9221C49.0707 43.7507 50.7165 44.6479 51.9622 45.7393C52.3165 46.0536 52.3565 46.5908 52.0422 46.9508C51.8708 47.1451 51.6365 47.2423 51.3965 47.2423Z" fill="#252D32"/>
<path d="M39.5411 46.8078C36.3866 46.8078 33.918 45.0934 33.918 42.9048C33.918 42.4305 34.3008 42.0476 34.7751 42.0476C35.2495 42.0476 35.6323 42.4305 35.6323 42.9048C35.6323 43.9391 37.2381 45.0934 39.5411 45.0934C41.844 45.0934 43.4498 43.9391 43.4498 42.9048C43.4498 42.4305 43.8327 42.0476 44.307 42.0476C44.7813 42.0476 45.1642 42.4305 45.1642 42.9048C45.1642 45.0934 42.6955 46.8078 39.5411 46.8078Z" fill="#252D32"/>
<path d="M48.0493 30.6249C47.9921 30.6249 47.935 30.6249 47.8779 30.6078C47.415 30.5106 47.1178 30.0592 47.2092 29.5963C47.6321 27.5448 46.5006 26.339 46.4549 26.2933C46.1292 25.9562 46.1349 25.4133 46.4721 25.0818C46.8092 24.7504 47.3464 24.7504 47.6778 25.0818C47.7521 25.1561 49.5065 26.9562 48.895 29.9392C48.8093 30.3449 48.455 30.6249 48.055 30.6249H48.0493Z" fill="#252D32"/>
<path d="M59.2679 58.8597H19.8376C19.3633 58.8597 18.9805 58.4768 18.9805 58.0025V10.0005C18.9805 9.52618 19.3633 9.14331 19.8376 9.14331H59.2679C59.7422 9.14331 60.1251 9.52618 60.1251 10.0005V58.0025C60.1251 58.4768 59.7422 58.8597 59.2679 58.8597ZM20.6948 57.1453H58.4107V10.8577H20.6948V57.1453Z" fill="#252D32"/>
</svg>
