<svg width="68" height="64" viewBox="0 0 68 64" fill="none" xmlns="http://www.w3.org/2000/svg">
<path d="M27.5801 10.4341C24.6241 7.47806 25.4381 0.794922 25.4381 0.794922C25.4381 0.794922 22.3375 6.13394 18.4765 6.68551C14.7279 7.22102 12.0504 4.00797 12.0504 4.00797C12.0504 4.00797 12.3181 8.55979 9.90833 9.89856C7.89481 11.0178 0.804688 9.89856 0.804688 9.89856C0.804688 9.89856 4.01774 13.1116 4.01774 16.8602C4.01774 21.1228 2.41121 23.2863 2.41121 23.2863C4.01774 22.7508 7.76629 22.7508 9.90833 24.3573C12.6501 26.4136 12.5859 32.3899 12.5859 32.3899C12.5859 32.3899 15.6757 25.6478 19.5475 24.3573C24.367 22.7508 28.6511 25.9638 28.6511 25.9638C28.6511 25.9638 27.0446 22.2152 29.1866 18.4667C30.7557 15.7195 35.6127 13.1116 35.6127 13.1116C35.6127 13.1116 30.2576 13.1116 27.5801 10.4341Z" fill="#FB954C"/>
<path d="M64.6681 17.6636H64.2611L63.9505 54.4476C63.9505 54.8332 63.6346 55.1491 63.249 55.1491H43.628C37.4697 55.1491 34.3905 58.2229 34.3905 58.2229C34.3905 58.2229 31.3113 55.1491 25.153 55.1491H4.45559C4.07002 55.1491 3.75406 54.8332 3.75406 54.4476V25.9104C2.97758 25.9104 3.53451 26.0175 3.34708 26.0764L0.541016 27.0135V56.7342C0.541016 58.8602 1.75127 59.9633 4.05931 59.9633H24.5425C29.18 59.9633 31.563 61.9929 31.804 62.2071C33.0035 63.4388 34.9742 63.4549 36.1951 62.2446C36.313 62.1322 38.696 59.9633 43.4888 59.9633H64.2183C66.3603 59.9633 67.4849 58.8602 67.4849 56.7342V20.4643C67.4849 18.9167 66.2264 17.6582 64.6788 17.6582L64.6681 17.6636Z" fill="#B5D44F"/>
<path d="M34.0026 59.2776C33.7992 59.2776 33.5957 59.1973 33.4404 59.0473C33.4136 59.0206 30.4362 56.2145 24.6313 56.2145H4.71571C3.88568 56.2145 3.21094 55.5398 3.21094 54.7097V25.9583C3.21094 25.5138 3.56973 25.155 4.0142 25.155C4.45867 25.155 4.81746 25.5138 4.81746 25.9583V54.608H24.6313C28.8029 54.608 31.6571 55.9093 33.1994 56.8732V29.1713C33.1994 28.7269 33.5582 28.3681 34.0026 28.3681C34.4471 28.3681 34.8059 28.7269 34.8059 29.1713V58.469C34.8059 58.7903 34.6131 59.0848 34.3132 59.208C34.2115 59.2508 34.1098 59.2722 34.0026 59.2722V59.2776Z" fill="#252D32"/>
<path d="M34.075 59.2777C33.8715 59.2777 33.6627 59.1974 33.5074 59.0421C33.1914 58.7262 33.1914 58.2174 33.5074 57.9068C33.6412 57.773 36.8757 54.6135 43.2536 54.6135H63.1799V17.6634H39.3497C37.1113 17.6634 34.7979 19.3663 34.7979 22.2152V25.4283C34.7979 25.8727 34.4391 26.2315 33.9947 26.2315C33.5502 26.2315 33.1914 25.8727 33.1914 25.4283V22.2152C33.1914 18.3596 36.3241 16.0569 39.3497 16.0569H63.2816C64.1116 16.0569 64.7864 16.7316 64.7864 17.5617V54.7152C64.7864 55.5453 64.1116 56.22 63.2816 56.22H43.2536C37.5344 56.22 34.6694 59.0153 34.6426 59.0421C34.4873 59.1974 34.2785 59.2777 34.075 59.2777Z" fill="#252D32"/>
<path d="M29.9851 39.0835H8.0293V49.7937H29.9851V39.0835Z" fill="#FB954C"/>
<path d="M59.9754 39.0835H38.0195V49.7937H59.9754V39.0835Z" fill="#FB954C"/>
<path d="M47.6587 23.0186H38.0195V36.4063H47.6587V23.0186Z" fill="#FB954C"/>
<path d="M59.9751 23.0186H50.3359V36.4063H59.9751V23.0186Z" fill="#FB954C"/>
<path d="M12.583 33.1932C12.5241 33.1932 12.4652 33.1879 12.4063 33.1718C12.0368 33.0861 11.7744 32.7595 11.7797 32.3792C11.7958 30.8316 11.3995 26.4833 9.42349 24.9999C7.47959 23.5434 3.98807 23.6076 2.66537 24.0467C2.33335 24.1538 1.96385 24.0414 1.76036 23.7576C1.55686 23.4737 1.55686 23.0882 1.76036 22.8097C1.77107 22.7937 3.21159 20.7641 3.21159 16.8602C3.21159 13.4972 0.26094 10.4984 0.234165 10.4662C-0.0282342 10.2038 -0.0764335 9.7915 0.121704 9.47555C0.319842 9.1596 0.705408 9.02039 1.05884 9.1382C2.72963 9.69513 7.49566 10.8036 9.40742 9.27207C9.7555 8.99361 10.2589 9.05251 10.5373 9.39523C10.8158 9.74331 10.7569 10.2467 10.4142 10.5252C8.50241 12.0514 5.19297 11.7461 2.92777 11.2856C3.84349 12.6725 4.82346 14.6646 4.82346 16.8602C4.82346 19.2646 4.33615 21.0479 3.87026 22.2046C5.91055 22.0332 8.62558 22.392 10.3928 23.7147C12.1332 25.0214 12.8668 27.6079 13.172 29.6214C14.4947 27.4419 16.701 24.4644 19.2929 23.5969C22.5702 22.5045 25.5851 23.4416 27.3898 24.3038C27.1434 22.7294 27.1542 20.4106 28.4876 18.0705C29.4622 16.3676 31.5292 14.7557 33.1251 13.69C31.2347 13.3848 28.6857 12.6725 27.0149 11.0018C25.0764 9.06322 24.6051 5.7859 24.5409 3.45109C23.1807 5.11116 21.0547 7.13003 18.5914 7.48346C16.1923 7.82083 14.2163 6.83015 12.9525 5.90372C12.9364 6.35891 12.8989 6.85693 12.8132 7.37637C12.7383 7.81549 12.3259 8.11001 11.8922 8.0404C11.4531 7.97078 11.1585 7.55308 11.2281 7.11932C11.4852 5.56635 11.2603 4.15796 11.2603 4.1419C11.2014 3.78311 11.3888 3.43502 11.7208 3.28508C12.0528 3.13514 12.4384 3.22618 12.6687 3.50464C12.6901 3.53142 15.1159 6.36961 18.3665 5.89836C21.7884 5.41105 24.7176 0.446898 24.7444 0.398703C24.9372 0.0720428 25.3334 -0.0779066 25.6922 0.0399051C26.051 0.163072 26.2813 0.521866 26.2331 0.896721C26.2277 0.960982 25.5048 7.22643 28.1448 9.87184C30.5493 12.2763 35.5616 12.3138 35.6098 12.3138C35.9793 12.3138 36.3006 12.5654 36.3863 12.9189C36.472 13.2723 36.3113 13.6472 35.99 13.8239C35.9418 13.8507 31.315 16.3568 29.8799 18.8684C27.9574 22.2314 29.3712 25.6158 29.3872 25.6533C29.5318 25.9853 29.4301 26.3762 29.1462 26.6011C28.8624 26.826 28.4608 26.8314 28.1663 26.6118C28.1288 26.585 24.1446 23.6772 19.8016 25.1231C16.8992 26.0924 14.136 30.9441 13.3166 32.7273C13.1827 33.0165 12.8936 33.1986 12.5883 33.1986L12.583 33.1932Z" fill="#252D32"/>
<path d="M17.9368 37.477C17.8886 37.477 17.8404 37.477 17.7869 37.4609C17.3531 37.3806 17.0639 36.9629 17.1443 36.5238L18.483 29.2944C18.5634 28.8607 18.9811 28.5661 19.4202 28.6518C19.8539 28.7321 20.1431 29.1498 20.0628 29.5889L18.724 36.8183C18.6544 37.2039 18.317 37.477 17.9368 37.477Z" fill="#252D32"/>
<path d="M24.3624 34.2641C23.9929 34.2641 23.6609 34.0071 23.5806 33.6376L22.5096 28.818C22.4132 28.3842 22.6863 27.9558 23.1201 27.8594C23.5538 27.763 23.9822 28.0361 24.0786 28.4699L25.1496 33.2895C25.246 33.7232 24.9729 34.1517 24.5392 34.248C24.4803 34.2588 24.4214 34.2695 24.3624 34.2695V34.2641Z" fill="#252D32"/>
<path d="M29.1828 5.88249C28.9258 5.88249 28.6687 5.75933 28.5134 5.52371C28.2671 5.15421 28.3689 4.65618 28.7384 4.40985L33.5579 1.1968C33.9274 0.950463 34.4255 1.05222 34.6718 1.42172C34.9181 1.79122 34.8164 2.28923 34.4469 2.53557L29.6273 5.74862C29.4881 5.83965 29.3381 5.88249 29.1828 5.88249Z" fill="#252D32"/>
<path d="M31.3273 9.09517C30.9256 9.09517 30.5776 8.79529 30.5294 8.38295C30.4758 7.94383 30.7918 7.5422 31.2309 7.494L40.3345 6.42299C40.7629 6.36408 41.1753 6.68539 41.2235 7.1245C41.277 7.56362 40.9611 7.96525 40.5219 8.01345L31.4183 9.08446C31.3862 9.08446 31.354 9.08981 31.3219 9.08981L31.3273 9.09517Z" fill="#252D32"/>
<path d="M14.8221 14.946V14.6391C14.8221 14.427 14.8656 14.2329 14.9528 14.0568C15.0418 13.8787 15.1706 13.7367 15.3391 13.6306C15.5096 13.5227 15.716 13.4687 15.9585 13.4687C16.2047 13.4687 16.4111 13.5227 16.5778 13.6306C16.7444 13.7367 16.8704 13.8787 16.9556 14.0568C17.0408 14.2329 17.0835 14.427 17.0835 14.6391V14.946C17.0835 15.1581 17.0399 15.3532 16.9528 15.5312C16.8675 15.7073 16.7406 15.8494 16.5721 15.9573C16.4054 16.0634 16.2009 16.1164 15.9585 16.1164C15.7122 16.1164 15.5049 16.0634 15.3363 15.9573C15.1677 15.8494 15.0399 15.7073 14.9528 15.5312C14.8656 15.3532 14.8221 15.1581 14.8221 14.946ZM15.4016 14.6391V14.946C15.4016 15.1221 15.4433 15.2802 15.5266 15.4204C15.61 15.5586 15.7539 15.6278 15.9585 15.6278C16.1573 15.6278 16.2975 15.5586 16.3789 15.4204C16.4622 15.2802 16.5039 15.1221 16.5039 14.946V14.6391C16.5039 14.463 16.4641 14.3058 16.3846 14.1675C16.305 14.0274 16.163 13.9573 15.9585 13.9573C15.7596 13.9573 15.6166 14.0274 15.5295 14.1675C15.4442 14.3058 15.4016 14.463 15.4016 14.6391ZM11.9244 11.6164V11.3096C11.9244 11.0975 11.9679 10.9033 12.055 10.7272C12.1441 10.5492 12.2728 10.4071 12.4414 10.3011C12.6119 10.1931 12.8183 10.1391 13.0607 10.1391C13.3069 10.1391 13.5134 10.1931 13.68 10.3011C13.8467 10.4071 13.9727 10.5492 14.0579 10.7272C14.1431 10.9033 14.1857 11.0975 14.1857 11.3096V11.6164C14.1857 11.8285 14.1422 12.0236 14.055 12.2016C13.9698 12.3778 13.8429 12.5198 13.6744 12.6278C13.5077 12.7338 13.3031 12.7869 13.0607 12.7869C12.8145 12.7869 12.6071 12.7338 12.4386 12.6278C12.27 12.5198 12.1422 12.3778 12.055 12.2016C11.9679 12.0236 11.9244 11.8285 11.9244 11.6164ZM12.5039 11.3096V11.6164C12.5039 11.7925 12.5456 11.9507 12.6289 12.0908C12.7122 12.2291 12.8562 12.2982 13.0607 12.2982C13.2596 12.2982 13.3997 12.2291 13.4812 12.0908C13.5645 11.9507 13.6062 11.7925 13.6062 11.6164V11.3096C13.6062 11.1335 13.5664 10.9763 13.4869 10.838C13.4073 10.6978 13.2653 10.6278 13.0607 10.6278C12.8619 10.6278 12.7189 10.6978 12.6317 10.838C12.5465 10.9763 12.5039 11.1335 12.5039 11.3096ZM12.1403 16.0369L16.1403 10.2187H16.788L12.788 16.0369H12.1403Z" fill="#252D32"/>
</svg>
