<svg width="63" height="59" viewBox="0 0 63 59" fill="none" xmlns="http://www.w3.org/2000/svg">
<path d="M5.91189 49.8078C3.97886 49.2811 1.28188 50.3865 0.703125 51.544V6.40139C0.703125 3.525 3.03549 1.19263 5.91189 1.19263V49.8078Z" fill="#FB954C"/>
<path d="M0.99508 53.2451C0.514717 53.2451 0.126953 52.8574 0.126953 52.377V6.22737C0.126953 2.78959 2.92233 0 6.35432 0H49.6102C50.0906 0 50.4783 0.387763 50.4783 0.868127V37.9082C50.4783 38.3886 50.0906 38.7764 49.6102 38.7764C49.1298 38.7764 48.7421 38.3886 48.7421 37.9082V1.73625H6.35432C3.87727 1.73625 1.86321 3.75031 1.86321 6.22737V52.377C1.86321 52.8574 1.47544 53.2451 0.99508 53.2451Z" fill="#252D32"/>
<path d="M24.7196 58.454H4.92048C3.36364 58.454 1.88205 57.7016 0.95605 56.4457C0.0184728 55.1667 -0.247747 53.5404 0.238404 51.9778C0.857668 49.9984 2.79071 48.6152 4.94945 48.6152H24.7138C25.1942 48.6152 25.5819 49.003 25.5819 49.4834C25.5819 49.9637 25.1942 50.3515 24.7138 50.3515H4.94945C3.54308 50.3515 2.28718 51.2312 1.89942 52.4986C1.5811 53.5288 1.74314 54.5937 2.35662 55.4213C2.95273 56.2374 3.91346 56.7178 4.92048 56.7178H24.7196C25.1999 56.7178 25.5877 57.1055 25.5877 57.5859C25.5877 58.0662 25.1999 58.454 24.7196 58.454Z" fill="#252D32"/>
<path d="M5.62399 49.194C5.14362 49.194 4.75586 48.8062 4.75586 48.3259V1.44698C4.75586 0.966621 5.14362 0.578857 5.62399 0.578857C6.10435 0.578857 6.49211 0.966621 6.49211 1.44698V48.3259C6.49211 48.8062 6.10435 49.194 5.62399 49.194Z" fill="#252D32"/>
<path d="M27.9071 37.0405C34.2998 37.0405 39.4821 31.8581 39.4821 25.4654C39.4821 19.0727 34.2998 13.8904 27.9071 13.8904C21.5143 13.8904 16.332 19.0727 16.332 25.4654C16.332 31.8581 21.5143 37.0405 27.9071 37.0405Z" fill="#B5D44F"/>
<path d="M30.0832 52.082H45.9873C46.5498 52.082 47.0059 51.626 47.0059 51.0635V48.4706C47.0059 47.9081 46.5498 47.452 45.9873 47.452H30.0832C29.5206 47.452 29.0646 47.9081 29.0646 48.4706V51.0635C29.0646 51.626 29.5206 52.082 30.0832 52.082Z" fill="#B5D44F"/>
<path d="M34.134 57.291H50.038C50.6006 57.291 51.0566 56.835 51.0566 56.2724V53.6796C51.0566 53.1171 50.6006 52.661 50.038 52.661H34.134C33.5714 52.661 33.1154 53.1171 33.1154 53.6796V56.2724C33.1154 56.835 33.5714 57.291 34.134 57.291Z" fill="#B5D44F"/>
<path d="M27.9075 41.0915C19.2899 41.0915 12.2812 34.0828 12.2812 25.4652C12.2812 16.8475 19.2899 9.83887 27.9075 9.83887C36.5251 9.83887 43.5338 16.8475 43.5338 25.4652C43.5338 34.0828 36.5251 41.0915 27.9075 41.0915ZM27.9075 11.5751C20.2507 11.5751 14.0175 17.8083 14.0175 25.4652C14.0175 33.122 20.2507 39.3552 27.9075 39.3552C35.5644 39.3552 41.7976 33.122 41.7976 25.4652C41.7976 17.8083 35.5644 11.5751 27.9075 11.5751Z" fill="#252D32"/>
<path d="M28.1943 20.2561C27.7139 20.2561 27.3262 19.8683 27.3262 19.388V17.073C27.3262 16.5926 27.7139 16.2048 28.1943 16.2048C28.6747 16.2048 29.0624 16.5926 29.0624 17.073V19.388C29.0624 19.8683 28.6747 20.2561 28.1943 20.2561Z" fill="white"/>
<path d="M28.2588 34.592C27.7784 34.592 27.3906 34.2042 27.3906 33.7239V31.7214C27.3906 31.241 27.7784 30.8533 28.2588 30.8533C28.7391 30.8533 29.1269 31.241 29.1269 31.7214V33.7239C29.1269 34.2042 28.7391 34.592 28.2588 34.592Z" fill="white"/>
<path d="M28.4141 32.3118C26.1396 32.3118 24.6464 30.7838 24.2355 30.3093C23.9229 29.9447 23.9635 29.3948 24.3281 29.0823C24.6927 28.7698 25.2425 28.8103 25.555 29.1749C25.7634 29.418 26.8977 30.6044 28.5356 30.5755C29.2764 30.5466 30.7754 30.2283 31.1573 29.1981C31.3888 28.5846 31.2152 27.7338 30.7464 27.1319C30.185 26.4143 29.3227 26.2696 28.3214 26.1018C27.1582 25.905 25.8386 25.6908 24.9879 24.4407C24.2934 23.4221 24.166 21.9926 24.6638 20.8988C25.4219 19.2378 27.4128 18.6416 28.9292 18.8037C30.7522 18.9889 31.8518 20.2159 32.2396 20.7367C32.529 21.1187 32.448 21.6627 32.066 21.9521C31.684 22.2415 31.14 22.1605 30.8506 21.7785C30.6538 21.518 29.9246 20.6499 28.7555 20.5342C27.8121 20.4416 26.6199 20.7888 26.238 21.6222C25.9833 22.1836 26.0585 22.9418 26.4174 23.4684C26.8283 24.0703 27.517 24.215 28.5993 24.3944C29.7278 24.5796 31.1342 24.8169 32.1123 26.067C32.9631 27.1551 33.2235 28.6251 32.7836 29.8116C32.1239 31.571 30.1156 32.2597 28.5993 32.3175C28.5356 32.3175 28.4777 32.3175 28.4199 32.3175L28.4141 32.3118Z" fill="white"/>
<path d="M60.025 58.4535H28.7724C28.2921 58.4535 27.9043 58.0658 27.9043 57.5854C27.9043 57.105 28.2921 56.7173 28.7724 56.7173H60.025C60.5054 56.7173 60.8931 57.105 60.8931 57.5854C60.8931 58.0658 60.5054 58.4535 60.025 58.4535Z" fill="#252D32"/>
<path d="M51.3706 53.245H30.4719C29.054 53.245 27.8965 52.0875 27.8965 50.6695V48.8696C27.8965 47.4517 29.054 46.2942 30.4719 46.2942H51.3706C52.7886 46.2942 53.9461 47.4517 53.9461 48.8696V50.6695C53.9461 52.0875 52.7886 53.245 51.3706 53.245ZM30.4777 48.0362C30.0147 48.0362 29.6385 48.4124 29.6385 48.8754V50.6753C29.6385 51.1383 30.0147 51.5145 30.4777 51.5145H51.3764C51.8394 51.5145 52.2156 51.1383 52.2156 50.6753V48.8754C52.2156 48.4124 51.8394 48.0362 51.3764 48.0362H30.4777Z" fill="#252D32"/>
<path d="M38.7609 46.8733H54.665C55.2275 46.8733 55.6836 46.4173 55.6836 45.8547V43.2619C55.6836 42.6993 55.2275 42.2433 54.665 42.2433H38.7609C38.1984 42.2433 37.7423 42.6993 37.7423 43.2619V45.8547C37.7423 46.4173 38.1984 46.8733 38.7609 46.8733Z" fill="#B5D44F"/>
<path d="M60.0542 48.0365H39.1555C37.7376 48.0365 36.5801 46.879 36.5801 45.4611V43.6611C36.5801 42.2432 37.7376 41.0857 39.1555 41.0857H60.0542C61.4722 41.0857 62.6297 42.2432 62.6297 43.6611V45.4611C62.6297 46.879 61.4722 48.0365 60.0542 48.0365ZM39.1613 42.8277C38.6983 42.8277 38.3221 43.2039 38.3221 43.6669V45.4668C38.3221 45.9298 38.6983 46.306 39.1613 46.306H60.06C60.523 46.306 60.8992 45.9298 60.8992 45.4668V43.6669C60.8992 43.2039 60.523 42.8277 60.06 42.8277H39.1613Z" fill="#252D32"/>
<path d="M55.4253 58.454H34.5266C33.1087 58.454 31.9512 57.2965 31.9512 55.8785V54.0786C31.9512 52.6607 33.1087 51.5032 34.5266 51.5032H55.4253C56.8433 51.5032 58.0008 52.6607 58.0008 54.0786V55.8785C58.0008 57.2965 56.8433 58.454 55.4253 58.454ZM34.5324 53.2452C34.0694 53.2452 33.6932 53.6214 33.6932 54.0844V55.8843C33.6932 56.3473 34.0694 56.7235 34.5324 56.7235H55.4311C55.8941 56.7235 56.2703 56.3473 56.2703 55.8843V54.0844C56.2703 53.6214 55.8941 53.2452 55.4311 53.2452H34.5324Z" fill="#252D32"/>
</svg>
