<svg width="71" height="61" viewBox="0 0 71 61" fill="none" xmlns="http://www.w3.org/2000/svg">
<path d="M25.2883 41.4004H5.27996C4.87163 41.4004 4.53703 41.0658 4.53703 40.6574V1.70142H3.73739C1.2874 1.70142 0 2.87537 0 5.13254V43.0848C0 45.3363 1.28171 46.5045 3.72604 46.5045H21.8798L25.7873 42.597C26.2297 42.1547 25.9177 41.4004 25.2939 41.4004H25.2883Z" fill="#B5D44F"/>
<path d="M48.8732 23.9951C45.425 23.9951 42.6348 26.6606 42.6348 29.95C42.6348 33.2393 45.425 35.9048 48.8732 35.9048C52.3213 35.9048 55.1116 33.2393 55.1116 29.95C55.1116 26.6606 52.3213 23.9951 48.8732 23.9951ZM47.7389 29.6664C46.7975 29.6664 46.0375 28.9064 46.0375 27.965C46.0375 27.0236 46.7975 26.2636 47.7389 26.2636C48.6804 26.2636 49.4403 27.0236 49.4403 27.965C49.4403 28.9064 48.6804 29.6664 47.7389 29.6664Z" fill="#FB954C"/>
<path d="M48.7795 37.0334C41.4919 37.0334 35.7242 31.0956 35.4804 30.8461C35.1628 30.5171 35.1628 29.9954 35.4804 29.6664C35.7242 29.4112 41.4976 23.4734 48.7795 23.4734C54.5246 23.4734 60.2128 26.3998 61.9199 29.1333C62.6515 30.3073 62.4927 31.192 62.2318 31.7251C61.8178 32.5758 61.0295 32.7856 60.4 32.9558C60.0257 33.0579 59.6741 33.1543 59.3792 33.3584C56.8214 35.1732 53.5604 37.0278 48.7795 37.0278V37.0334ZM37.3292 30.2506C38.9455 31.7024 43.5109 35.3264 48.7795 35.3264C53.067 35.3264 55.9367 33.7157 58.3924 31.969C58.9368 31.5833 59.4983 31.4302 59.952 31.3111C60.4681 31.1693 60.6382 31.1069 60.7006 30.9708C60.8367 30.6873 60.6155 30.2562 60.4737 30.0294C59.209 27.9991 54.1446 25.1748 48.7795 25.1748C43.4145 25.1748 38.9399 28.7987 37.3292 30.2506Z" fill="#252D32"/>
<path d="M70.8904 16.0498V4.67317C70.8904 3.03417 69.5576 1.70142 67.9186 1.70142H67.4876L67.4082 12.4769C68.4971 13.6281 69.4726 14.8815 70.3289 16.2256C70.4934 16.4808 70.8904 16.3617 70.8904 16.0554V16.0498Z" fill="#B5D44F"/>
<path d="M48.8807 36.96C44.82 36.96 41.5137 33.7047 41.5137 29.7008C41.5137 27.8236 42.2396 26.0428 43.5553 24.6817C43.8843 24.3471 44.423 24.3357 44.7576 24.6647C45.0922 24.9936 45.1036 25.5324 44.7747 25.867C43.7652 26.9048 43.2151 28.2659 43.2151 29.7008C43.2151 32.7689 45.7558 35.2586 48.8807 35.2586C52.0055 35.2586 54.5463 32.7632 54.5463 29.7008C54.5463 28.2319 53.9678 26.8481 52.9186 25.8046C52.584 25.4756 52.584 24.9369 52.9186 24.6023C53.2475 24.2677 53.7863 24.2677 54.1209 24.6023C55.4934 25.9691 56.2477 27.7839 56.2477 29.7064C56.2477 33.7104 52.9413 36.9657 48.8807 36.9657V36.96Z" fill="#252D32"/>
<path d="M49.0108 26.8479C49.2774 27.1485 49.4418 27.5398 49.4418 27.9708C49.4418 28.9122 48.6819 29.6722 47.7404 29.6722C47.0712 29.6722 46.4928 29.2809 46.2149 28.7138C46.1071 29.0143 46.0391 29.3319 46.0391 29.6722C46.0391 31.2375 47.3094 32.5078 48.8747 32.5078C50.44 32.5078 51.7103 31.2375 51.7103 29.6722C51.7103 28.1069 50.5137 26.9216 49.0108 26.8479Z" fill="#252D32"/>
<path d="M25.2355 42.5346H4.42761C3.54856 42.5346 2.83398 41.82 2.83398 40.941V1.59363C2.83398 0.714581 3.54856 0 4.42761 0H29.489C33.0619 0 35.5346 1.65034 36.2662 4.53135C36.2832 4.59941 36.2945 4.67314 36.2945 4.74119V8.79049C36.2945 9.2612 35.9146 9.64118 35.4439 9.64118C34.9731 9.64118 34.5932 9.2612 34.5932 8.79049V4.84895C33.8332 2.10972 31.077 1.70138 29.489 1.70138H4.53537V40.8332H25.2355C25.7063 40.8332 26.0862 41.2132 26.0862 41.6839C26.0862 42.1546 25.7063 42.5346 25.2355 42.5346Z" fill="#252D32"/>
<path d="M67.2052 13.0439C66.7345 13.0439 66.3545 12.664 66.3545 12.1933V1.70138H41.3612C39.7959 1.70138 37.0567 2.12106 36.3534 4.94536C36.24 5.39906 35.7806 5.67695 35.3213 5.56353C34.8676 5.4501 34.5897 4.98506 34.7031 4.53135C35.4233 1.65034 37.8506 0 41.3612 0H66.4623C67.3413 0 68.0559 0.714581 68.0559 1.59363V12.1933C68.0559 12.664 67.6759 13.0439 67.2052 13.0439Z" fill="#252D32"/>
<path d="M24.1022 28.3564H12.1925C11.7218 28.3564 11.3418 27.9764 11.3418 27.5057C11.3418 27.035 11.7218 26.655 12.1925 26.655H24.1022C24.5729 26.655 24.9529 27.035 24.9529 27.5057C24.9529 27.9764 24.5729 28.3564 24.1022 28.3564Z" fill="#252D32"/>
<path d="M19.5652 33.4604H12.1925C11.7218 33.4604 11.3418 33.0804 11.3418 32.6097C11.3418 32.139 11.7218 31.759 12.1925 31.759H19.5652C20.0359 31.759 20.4158 32.139 20.4158 32.6097C20.4158 33.0804 20.0359 33.4604 19.5652 33.4604Z" fill="#252D32"/>
<path d="M26.3707 9.64108H12.1925C11.7218 9.64108 11.3418 9.26111 11.3418 8.79039C11.3418 8.31967 11.7218 7.9397 12.1925 7.9397H26.3707C26.8414 7.9397 27.2214 8.31967 27.2214 8.79039C27.2214 9.26111 26.8414 9.64108 26.3707 9.64108Z" fill="#252D32"/>
<path d="M26.3712 15.8796H24.1026C23.6319 15.8796 23.252 15.4996 23.252 15.0289C23.252 14.5582 23.6319 14.1782 24.1026 14.1782H26.3712C26.8419 14.1782 27.2218 14.5582 27.2218 15.0289C27.2218 15.4996 26.8419 15.8796 26.3712 15.8796Z" fill="#252D32"/>
<path d="M19.5652 15.8796H12.1925C11.7218 15.8796 11.3418 15.4996 11.3418 15.0289C11.3418 14.5582 11.7218 14.1782 12.1925 14.1782H19.5652C20.0359 14.1782 20.4158 14.5582 20.4158 15.0289C20.4158 15.4996 20.0359 15.8796 19.5652 15.8796Z" fill="#252D32"/>
<path d="M29.2921 46.8958L21.1935 54.9944C20.2975 55.8904 20.2975 57.3366 21.1935 58.2327L22.4412 59.4803C23.3373 60.3764 24.7835 60.3764 25.6795 59.4803L34.005 51.1095L35.2413 51.2853C35.8651 51.3761 36.5003 51.2003 36.9937 50.8089L40.0222 48.8921C37.4871 47.6217 33.608 44.1735 31.7818 41.2869L29.5303 43.5384C28.9632 44.1055 28.7477 44.9335 28.9575 45.7048L29.2865 46.9071L29.2921 46.8958Z" fill="#FB954C"/>
<path d="M36.0161 52.5388C35.12 52.5388 34.2807 52.1929 33.6455 51.5577C33.3109 51.2231 33.3109 50.6843 33.6455 50.3554C33.9801 50.0208 34.5189 50.0208 34.8478 50.3554C35.4716 50.9792 36.5548 50.9792 37.1787 50.3554L38.9992 48.5349C39.3338 48.2003 39.8726 48.2003 40.2015 48.5349C40.5304 48.8695 40.5361 49.4083 40.2015 49.7372L38.381 51.5577C37.7458 52.1929 36.9065 52.5388 36.0104 52.5388H36.0161Z" fill="#252D32"/>
<path d="M31.7711 49.3229C31.5556 49.3229 31.3344 49.2379 31.17 49.0734L29.117 47.0204C27.8126 45.716 27.8126 43.5893 29.117 42.2849L30.0527 41.3491C30.3873 41.0145 30.9261 41.0145 31.255 41.3491C31.5896 41.6837 31.5896 42.2225 31.255 42.5514L30.3193 43.4872C29.6784 44.128 29.6784 45.1772 30.3193 45.8181L32.3723 47.8711C32.7069 48.2057 32.7069 48.7445 32.3723 49.0734C32.2078 49.2379 31.9866 49.3229 31.7711 49.3229Z" fill="#252D32"/>
<path d="M24.0616 61.0003C23.2223 61.0003 22.434 60.6714 21.8442 60.0815L20.5965 58.8339C20.001 58.2384 19.6777 57.4501 19.6777 56.6107C19.6777 55.7714 20.0067 54.9831 20.5965 54.3932L28.6951 46.2947C29.0297 45.96 29.5684 45.96 29.8974 46.2947C30.2263 46.6293 30.232 47.168 29.8974 47.497L21.7988 55.5956C21.2373 56.157 21.2373 57.0701 21.7988 57.6315L23.0465 58.8792C23.5909 59.4237 24.538 59.4237 25.0824 58.8792L33.4079 50.5084C33.7368 50.1738 34.2813 50.1738 34.6102 50.5084C34.9448 50.8374 34.9448 51.3761 34.6102 51.7107L26.2791 60.0815C25.6836 60.677 24.8953 61.0003 24.0559 61.0003H24.0616Z" fill="#252D32"/>
<path d="M49.059 51.6086C37.0189 51.6086 27.2246 41.8143 27.2246 29.7741C27.2246 17.734 37.0189 7.9397 49.059 7.9397C61.0992 7.9397 70.8935 17.734 70.8935 29.7741C70.8935 41.8143 61.0992 51.6086 49.059 51.6086ZM49.059 9.64108C37.9547 9.64108 28.926 18.6698 28.926 29.7741C28.926 40.8785 37.9547 49.9072 49.059 49.9072C60.1634 49.9072 69.1921 40.8785 69.1921 29.7741C69.1921 18.6698 60.1634 9.64108 49.059 9.64108Z" fill="#252D32"/>
<path d="M49.2368 47.2246C45.5731 47.2246 42.0683 46.0904 39.1079 43.9466C38.7279 43.6687 38.6428 43.1413 38.915 42.7613C39.1929 42.3813 39.7204 42.2963 40.1004 42.5685C42.7715 44.5024 45.9304 45.5232 49.2311 45.5232C57.8288 45.5232 64.8271 38.5249 64.8271 29.9272C64.8271 26.36 63.6532 22.9969 61.4357 20.2123C61.1408 19.8437 61.2032 19.3106 61.5718 19.0157C61.9405 18.7208 62.4735 18.7831 62.7685 19.1518C65.2298 22.2426 66.5342 25.9687 66.5342 29.9272C66.5342 39.4663 58.7759 47.2246 49.2368 47.2246Z" fill="#FB954C"/>
<path d="M36.6767 41.389C36.4329 41.389 36.1947 41.2869 36.0246 41.0884C33.3874 37.9749 31.9355 34.005 31.9355 29.9217C31.9355 20.3826 39.6939 12.6243 49.233 12.6243C52.7888 12.6243 56.2029 13.6961 59.1123 15.7208C59.498 15.9873 59.5944 16.5204 59.3222 16.9061C59.0556 17.2917 58.5225 17.3881 58.1369 17.1159C55.5167 15.2898 52.4372 14.3257 49.233 14.3257C40.6353 14.3257 33.6369 21.324 33.6369 29.9217C33.6369 33.608 34.947 37.1809 37.3233 39.9882C37.6295 40.3455 37.5841 40.8843 37.2212 41.1848C37.0624 41.321 36.8639 41.3833 36.6711 41.3833L36.6767 41.389Z" fill="#FB954C"/>
</svg>
