<svg width="71" height="55" viewBox="0 0 71 55" fill="none" xmlns="http://www.w3.org/2000/svg">
<path d="M26.8958 45.6763C26.0343 45.1135 25.2762 44.43 24.6444 43.6547H4.02029V1.72876H1.53919C0.689189 1.72876 0 2.41796 0 3.26796V44.6885C0 46.6527 1.14865 47.675 3.33109 47.675H27.5275C27.2174 47.0145 26.9934 46.3425 26.89 45.6763H26.8958Z" fill="#B5D44F"/>
<path d="M67.198 15.9893V3.71019C67.198 2.61322 66.3078 1.72876 65.2166 1.72876H63.1777V11.9575C64.9467 12.7559 66.3365 14.1745 67.198 15.9893Z" fill="#B5D44F"/>
<path d="M62.8894 12.0666C62.4127 12.0666 62.0279 11.6818 62.0279 11.2051V1.72872H39.342C36.8724 1.72872 34.9484 3.04968 34.4372 5.09428C34.3223 5.55375 33.8571 5.83516 33.3919 5.7203C32.9325 5.60543 32.651 5.14023 32.7659 4.67503C33.4781 1.83785 36.0568 0 39.3477 0H62.1887C63.056 0 63.7566 0.700677 63.7566 1.56791V11.1994C63.7566 11.6761 63.3718 12.0609 62.8952 12.0609L62.8894 12.0666Z" fill="#252D32"/>
<path d="M23.8339 44.8034H5.01323C4.146 44.8034 3.44531 44.1027 3.44531 43.2355V1.57378C3.44531 0.706545 4.146 0.00585938 5.01323 0.00585938H27.8198C31.1394 0.00585938 33.7354 1.82074 34.436 4.6292C34.4533 4.69812 34.459 4.76704 34.459 4.83596V10.0566C34.459 10.5333 34.0742 10.9181 33.5975 10.9181C33.1208 10.9181 32.736 10.5333 32.736 10.0566V4.94508C32.1962 2.98662 30.2779 1.72884 27.8198 1.72884H5.1683V43.0804H23.8339C24.3106 43.0804 24.6954 43.4652 24.6954 43.9419C24.6954 44.4186 24.3106 44.8034 23.8339 44.8034Z" fill="#252D32"/>
<path d="M27.2801 10.3436H23.8341C23.3575 10.3436 22.9727 9.95879 22.9727 9.4821C22.9727 9.00541 23.3575 8.62061 23.8341 8.62061H27.2801C27.7568 8.62061 28.1416 9.00541 28.1416 9.4821C28.1416 9.95879 27.7568 10.3436 27.2801 10.3436Z" fill="#252D32"/>
<path d="M19.8147 10.3436H8.90251C8.42582 10.3436 8.04102 9.95879 8.04102 9.4821C8.04102 9.00541 8.42582 8.62061 8.90251 8.62061H19.8147C20.2914 8.62061 20.6762 9.00541 20.6762 9.4821C20.6762 9.95879 20.2914 10.3436 19.8147 10.3436Z" fill="#252D32"/>
<path d="M22.112 17.2357H8.90251C8.42582 17.2357 8.04102 16.8509 8.04102 16.3742C8.04102 15.8975 8.42582 15.5127 8.90251 15.5127H22.112C22.5887 15.5127 22.9735 15.8975 22.9735 16.3742C22.9735 16.8509 22.5887 17.2357 22.112 17.2357Z" fill="#252D32"/>
<path d="M20.3891 24.1278H8.90251C8.42582 24.1278 8.04102 23.743 8.04102 23.2663C8.04102 22.7896 8.42582 22.4048 8.90251 22.4048H20.3891C20.8658 22.4048 21.2506 22.7896 21.2506 23.2663C21.2506 23.743 20.8658 24.1278 20.3891 24.1278Z" fill="#252D32"/>
<path d="M47.6693 20.2508V49.2141C47.6693 49.2141 46.2047 51.9938 43.649 52.8438C42.2189 53.3205 39.0543 53.9925 37.6645 49.6908C33.3742 49.2141 31.5077 46.8938 30.9506 44.1026C30.2269 43.3789 27.2576 40.8978 26.7006 38.7269C25.9769 35.8954 27.9411 33.1789 29.8306 31.2836C27.6712 28.3258 29.2965 24.4663 33.2019 22.795C32.6448 19.4524 34.8618 17.5227 37.4577 17.2643C39.129 13.3646 42.2533 13.7551 43.8385 14.2892C46.3885 15.1392 47.6693 20.2508 47.6693 20.2508Z" fill="#FB954C"/>
<path d="M47.383 49.9722C46.9063 49.9722 46.5215 49.5874 46.5215 49.1107V14.651C46.5215 14.1744 46.9063 13.7896 47.383 13.7896C47.8597 13.7896 48.2445 14.1744 48.2445 14.651V49.1107C48.2445 49.5874 47.8597 49.9722 47.383 49.9722Z" fill="#252D32"/>
<path d="M42.4668 54.0559C40.6232 54.0559 38.6475 53.1829 37.4357 51.839C37.005 51.3623 36.7063 50.8511 36.557 50.3457C34.5698 50.271 32.7147 49.042 31.5546 47.8014C30.36 46.5149 29.7053 45.0561 29.7225 43.7697C27.161 42.42 25.6562 39.9216 25.6562 36.9753C25.6562 34.8216 26.6326 32.8 28.3613 31.2838C27.184 30.0088 26.4833 28.3087 26.4833 26.626C26.4833 24.2081 27.764 21.9797 29.7914 20.808C30.0039 16.9141 32.5539 14.6857 35.2475 14.3296C36.2354 11.7681 38.6073 10.0796 41.3124 10.0796C45.1259 10.0796 48.1182 12.8766 48.1182 16.4431C48.1182 16.9198 47.7334 17.3046 47.2567 17.3046C46.78 17.3046 46.3952 16.9198 46.3952 16.4431C46.3952 13.8414 44.1611 11.8026 41.3124 11.8026C39.1817 11.8026 37.3323 13.2384 36.7063 15.3806C36.6029 15.7367 36.2756 15.9894 35.9023 16.0009C33.312 16.0698 31.5029 18.2638 31.5029 21.3364C31.5029 21.6695 31.3076 21.9739 31.009 22.1175C29.309 22.9158 28.2062 24.6847 28.2062 26.626C28.2062 28.1135 28.9988 29.6986 30.2221 30.6635C30.4346 30.83 30.561 31.0942 30.5495 31.3699C30.5438 31.6456 30.4059 31.8983 30.1762 32.0534C29.1309 32.777 27.3792 34.3736 27.3792 36.9753C27.3792 39.4277 28.7289 41.4838 30.986 42.4659C31.3651 42.6325 31.5718 43.0403 31.4857 43.4423C31.2961 44.3153 31.8073 45.5386 32.8238 46.6298C34.1161 48.0197 35.8333 48.795 37.1945 48.5998C37.4529 48.5596 37.7229 48.6514 37.9124 48.8352C38.1019 49.019 38.1996 49.2832 38.1708 49.5474C38.1364 49.846 38.3431 50.2768 38.7165 50.6903C39.4516 51.5116 40.8989 52.3386 42.4668 52.3386C44.5918 52.3386 46.5216 50.7994 46.5216 49.1109C46.5216 48.6342 46.9064 48.2494 47.3831 48.2494C47.8598 48.2494 48.2446 48.6342 48.2446 49.1109C48.2446 51.7471 45.5452 54.0616 42.4668 54.0616V54.0559Z" fill="#252D32"/>
<path d="M65.0273 20.6815C64.8205 18.3498 63.7121 16.4315 62.0293 15.3748V17.4366C62.7529 18.189 63.2813 19.2629 63.4249 20.6758H65.0273V20.6815Z" fill="#B5D44F"/>
<path d="M64.1355 22.1979C63.6588 22.1979 63.274 21.8131 63.274 21.3364C63.274 18.2638 61.4649 16.0698 58.8689 16.0009C58.4956 15.9894 58.1682 15.7424 58.0649 15.3806C57.4388 13.2384 55.5895 11.8026 53.4588 11.8026C50.8915 11.8026 48.1175 13.5772 48.1175 16.4431C48.1175 16.9198 47.7327 17.3046 47.256 17.3046C46.7793 17.3046 46.3945 16.9198 46.3945 16.4431C46.3945 12.934 49.5648 10.0796 53.4588 10.0796C56.1638 10.0796 58.5358 11.7624 59.5237 14.3296C62.3321 14.7029 64.9912 17.1151 64.9912 21.3364C64.9912 21.8131 64.6064 22.1979 64.1298 22.1979H64.1355Z" fill="#252D32"/>
<path d="M42.2837 22.4849C40.7904 22.4849 39.3776 21.9221 38.2978 20.894C37.9532 20.5666 37.9417 20.021 38.2691 19.6764C38.5965 19.3318 39.1421 19.3204 39.4867 19.6477C40.2448 20.3656 41.2384 20.7677 42.2894 20.7677C44.5695 20.7677 46.4016 18.1143 46.4016 15.9203C46.4016 15.4436 46.7864 15.0588 47.2631 15.0588C47.7398 15.0588 48.1246 15.4436 48.1246 15.9203C48.1246 19.0217 45.6262 22.4906 42.2894 22.4906L42.2837 22.4849Z" fill="#252D32"/>
<path d="M37.3086 50.3114C36.8663 50.3114 36.493 49.9783 36.4528 49.5303C36.315 48.0543 36.8549 46.5955 37.9231 45.5215C38.262 45.1826 38.8076 45.1826 39.1407 45.5215C39.4738 45.8603 39.4795 46.4059 39.1407 46.739C38.4457 47.4397 38.0782 48.4218 38.1643 49.3695C38.2103 49.8462 37.8599 50.2654 37.389 50.3056C37.3603 50.3056 37.3373 50.3056 37.3086 50.3056V50.3114Z" fill="#252D32"/>
<path d="M47.3861 44.803C46.9094 44.803 46.5246 44.4182 46.5246 43.9416C46.5246 42.5861 45.2152 41.8797 43.9287 41.8797C43.1189 41.8797 42.3665 42.2817 41.9185 42.948C41.6543 43.3442 41.1144 43.4476 40.7239 43.1777C40.3276 42.9135 40.2242 42.3736 40.4942 41.9831C41.2695 40.8402 42.556 40.1567 43.9344 40.1567C46.3983 40.1567 48.2534 41.7821 48.2534 43.9416C48.2534 44.4182 47.8686 44.803 47.3919 44.803H47.3861Z" fill="#252D32"/>
<path d="M51.185 24.1391C48.4397 24.1391 46.5215 22.5999 46.5215 20.3945C46.5215 19.9178 46.9063 19.533 47.383 19.533C47.8597 19.533 48.2445 19.9178 48.2445 20.3945C48.2445 21.8877 49.8296 22.4161 51.185 22.4161C51.6847 22.4161 52.1729 22.2783 52.5921 22.0198C52.9942 21.7728 53.5283 21.8992 53.7752 22.3012C54.0222 22.709 53.8959 23.2374 53.4938 23.4843C52.7989 23.9093 52.0006 24.1391 51.185 24.1391Z" fill="#252D32"/>
<path d="M35.9296 32.3807C35.7631 32.3807 35.5965 32.3348 35.4472 32.2314C33.9769 31.2436 31.7773 31.1861 30.0945 32.0993C29.6752 32.329 29.1526 32.174 28.9286 31.7547C28.6989 31.3354 28.8539 30.8128 29.2732 30.5888C31.5303 29.3598 34.3962 29.4459 36.4121 30.8013C36.8084 31.0655 36.9117 31.5996 36.6476 31.9959C36.481 32.2429 36.2111 32.375 35.9296 32.375V32.3807Z" fill="#252D32"/>
<path d="M32.491 44.4817C31.8248 44.4817 31.1356 44.3497 30.4119 44.0855L30.3545 44.0625C29.9065 43.9017 29.671 43.4078 29.8318 42.9598C29.9927 42.5118 30.4866 42.2763 30.9345 42.4371L31.0035 42.4601C31.5376 42.6554 32.9562 43.1723 34.415 42.0811C34.794 41.7939 35.3339 41.8743 35.6211 42.2534C35.9082 42.6324 35.8278 43.1723 35.4488 43.4594C34.5471 44.1372 33.5592 44.476 32.491 44.476V44.4817Z" fill="#252D32"/>
<path d="M41.0241 36.6363C40.7025 36.6363 40.3923 36.4583 40.2488 36.1481C40.1167 35.8725 39.0025 33.3971 40.3292 31.0596C41.5525 28.9059 44.2059 27.8836 46.7904 28.5728C47.2498 28.6934 47.5255 29.1701 47.3991 29.6295C47.2785 30.089 46.8018 30.3589 46.3424 30.2383C44.5505 29.7616 42.6437 30.4623 41.8224 31.9096C40.9265 33.4833 41.7076 35.212 41.7994 35.4015C42.0062 35.8323 41.8224 36.3434 41.3917 36.5502C41.2711 36.6076 41.1447 36.6363 41.0184 36.6363H41.0241Z" fill="#252D32"/>
<path d="M34.5172 25.8334C34.4713 25.8334 34.4253 25.8334 34.3851 25.8219C33.9142 25.7472 33.5926 25.305 33.6672 24.8398C33.6845 24.7249 33.8223 23.6969 33.0814 22.9617C32.6507 22.531 31.7949 21.8533 30.9219 22.1519C30.4682 22.307 29.98 22.0715 29.825 21.6178C29.6699 21.1698 29.9054 20.6759 30.3591 20.5209C31.6456 20.0786 33.0814 20.5209 34.299 21.7384C35.6142 23.0536 35.4189 24.7709 35.3672 25.104C35.2983 25.529 34.9365 25.8334 34.5172 25.8334Z" fill="#252D32"/>
<path d="M55.4235 30.4454H47.9572C47.4805 30.4454 47.0957 30.0606 47.0957 29.5839C47.0957 29.1072 47.4805 28.7224 47.9572 28.7224H55.4235C55.9001 28.7224 56.2849 29.1072 56.2849 29.5839C56.2849 30.0606 55.9001 30.4454 55.4235 30.4454Z" fill="#252D32"/>
<path d="M64.6128 38.4858H57.7094C57.5888 38.4858 57.4682 38.4628 57.3533 38.4111L53.6948 36.7628H47.383C46.9063 36.7628 46.5215 36.378 46.5215 35.9013C46.5215 35.4246 46.9063 35.0398 47.383 35.0398H53.8786C53.9992 35.0398 54.1198 35.0628 54.2347 35.1145L57.8932 36.7628H64.6128C65.0895 36.7628 65.4743 37.1476 65.4743 37.6243C65.4743 38.101 65.0895 38.4858 64.6128 38.4858Z" fill="#252D32"/>
<path d="M55.4225 24.1279C53.6823 24.1279 52.2637 22.7093 52.2637 20.9691C52.2637 19.2289 53.6823 17.8103 55.4225 17.8103C57.1627 17.8103 58.5813 19.2289 58.5813 20.9691C58.5813 22.7093 57.1627 24.1279 55.4225 24.1279ZM55.4225 19.5333C54.6299 19.5333 53.9867 20.1765 53.9867 20.9691C53.9867 21.7617 54.6299 22.4049 55.4225 22.4049C56.215 22.4049 56.8583 21.7617 56.8583 20.9691C56.8583 20.1765 56.215 19.5333 55.4225 19.5333Z" fill="#252D32"/>
<path d="M67.485 40.7832C65.7448 40.7832 64.3262 39.3646 64.3262 37.6244C64.3262 35.8842 65.7448 34.4656 67.485 34.4656C69.2252 34.4656 70.6438 35.8842 70.6438 37.6244C70.6438 39.3646 69.2252 40.7832 67.485 40.7832ZM67.485 36.1886C66.6924 36.1886 66.0492 36.8318 66.0492 37.6244C66.0492 38.417 66.6924 39.0602 67.485 39.0602C68.2775 39.0602 68.9208 38.417 68.9208 37.6244C68.9208 36.8318 68.2775 36.1886 67.485 36.1886Z" fill="#252D32"/>
<path d="M55.4225 54.5674C53.6823 54.5674 52.2637 53.1488 52.2637 51.4086C52.2637 49.6683 53.6823 48.2498 55.4225 48.2498C57.1627 48.2498 58.5813 49.6683 58.5813 51.4086C58.5813 53.1488 57.1627 54.5674 55.4225 54.5674ZM55.4225 49.9727C54.6299 49.9727 53.9867 50.616 53.9867 51.4086C53.9867 52.2011 54.6299 52.8444 55.4225 52.8444C56.215 52.8444 56.8583 52.2011 56.8583 51.4086C56.8583 50.616 56.215 49.9727 55.4225 49.9727Z" fill="#252D32"/>
<path d="M55.4235 44.2291H47.9572C47.4805 44.2291 47.0957 43.8443 47.0957 43.3676C47.0957 42.8909 47.4805 42.5061 47.9572 42.5061H55.4235C55.9001 42.5061 56.2849 42.8909 56.2849 43.3676C56.2849 43.8443 55.9001 44.2291 55.4235 44.2291Z" fill="#252D32"/>
<path d="M49.6802 51.1209H47.9572C47.4805 51.1209 47.0957 50.7361 47.0957 50.2594C47.0957 49.7827 47.4805 49.3979 47.9572 49.3979H49.6802C50.1569 49.3979 50.5417 49.7827 50.5417 50.2594C50.5417 50.7361 50.1569 51.1209 49.6802 51.1209Z" fill="#252D32"/>
<path d="M60.5903 32.1685C62.0177 32.1685 63.1748 31.0114 63.1748 29.584C63.1748 28.1566 62.0177 26.9995 60.5903 26.9995C59.163 26.9995 58.0059 28.1566 58.0059 29.584C58.0059 31.0114 59.163 32.1685 60.5903 32.1685Z" fill="#B5D44F"/>
<path d="M60.5903 45.9522C62.0177 45.9522 63.1748 44.795 63.1748 43.3677C63.1748 41.9403 62.0177 40.7832 60.5903 40.7832C59.163 40.7832 58.0059 41.9403 58.0059 43.3677C58.0059 44.795 59.163 45.9522 60.5903 45.9522Z" fill="#B5D44F"/>
</svg>
