<svg width="66" height="53" viewBox="0 0 66 53" fill="none" xmlns="http://www.w3.org/2000/svg">
<path d="M27.0762 36.4999C27.2344 36.4049 27.4295 36.4049 27.5877 36.4999C27.6035 36.5104 29.1751 37.4386 30.694 37.4386C32.2181 37.4386 33.7791 36.5052 33.795 36.4946C33.8741 36.4471 33.9637 36.4208 34.0534 36.4208C34.2063 36.4208 34.3065 36.4893 34.3645 36.5263C34.7706 36.8005 35.8517 37.4333 37.0963 37.4333H37.2176C38.4623 37.4333 39.5434 36.8005 39.9495 36.5263C40.0075 36.4841 40.1077 36.4208 40.2606 36.4208C40.3608 36.4208 40.4557 36.4524 40.5401 36.5052C40.5507 36.5157 41.9377 37.4333 43.5884 37.4333H43.62C45.2812 37.4228 46.5891 36.521 46.5997 36.5104C46.6841 36.4524 46.7843 36.4208 46.8845 36.4208C47.0374 36.4208 47.1376 36.4893 47.1956 36.5263C47.6017 36.8005 48.6828 37.4333 49.9274 37.4333H50.0487C51.1351 37.4333 52.1213 36.9745 52.654 36.695C53.7087 34.981 55.043 32.766 55.6864 32.2861L24.1387 34.6119C24.1387 34.6119 24.6397 36.1044 25.1143 37.2857C26.1849 37.022 27.0551 36.5052 27.0709 36.4946L27.0762 36.4999Z" fill="#B5D44F"/>
<path d="M39.5516 3.16455L39.3038 4.59902L26.3672 24.787H39.5516L51.6813 27.4239L39.5516 3.16455Z" fill="#FB954C"/>
<path d="M23.9755 42.1904C22.8469 42.1904 21.7447 41.8002 21.0169 41.4785C20.6161 41.2992 20.4421 40.8298 20.6161 40.4343C20.7954 40.0335 21.2648 39.8594 21.6603 40.0335C22.2457 40.2972 23.1212 40.6083 23.9702 40.6083C25.3994 40.6083 26.9077 39.717 26.9236 39.7065C27.1714 39.5536 27.4879 39.5536 27.741 39.7065C27.7568 39.717 29.2598 40.6083 30.6943 40.6083C32.1235 40.6083 33.6318 39.717 33.6476 39.7065C33.7689 39.6327 33.9113 39.5958 34.0537 39.5958C34.2119 39.5958 34.3965 39.6643 34.5284 39.754C34.9133 40.0124 35.9312 40.6083 37.0967 40.6083H37.218C38.3835 40.6083 39.4013 40.0071 39.7863 39.754C39.9182 39.6643 40.1027 39.5958 40.2609 39.5958C40.4192 39.5958 40.5721 39.6432 40.7039 39.7329C40.7145 39.7381 42.0277 40.6347 43.6151 40.6083C45.1708 40.5978 46.4154 39.7487 46.426 39.7381C46.5578 39.6432 46.7213 39.5958 46.8848 39.5958C47.0483 39.5958 47.2276 39.6643 47.3595 39.754C47.7444 40.0124 48.7623 40.6083 49.9278 40.6083H50.0491C51.1988 40.6083 52.243 40.0493 52.6912 39.812C52.9022 39.7012 53.0235 39.6379 53.1975 39.6168C53.3874 39.5957 53.6142 39.6643 53.7776 39.7751C54.1363 40.0229 55.1014 40.6083 56.2563 40.6083H56.3776C57.5431 40.6083 58.561 40.0071 58.9459 39.754C59.0778 39.6643 59.2624 39.5958 59.4206 39.5958C59.8583 39.5958 60.2117 39.9491 60.2117 40.3868C60.2117 40.6716 60.0587 40.9247 59.8267 41.0671C59.178 41.4996 57.907 42.1904 56.3723 42.1904H56.2511C54.9748 42.1904 53.9042 41.7158 53.2344 41.315C52.628 41.6262 51.415 42.1904 50.0438 42.1904H49.9225C48.6568 42.1904 47.5651 41.7158 46.869 41.315C46.2467 41.6525 45.0495 42.1799 43.6151 42.1904C42.1595 42.2168 40.9043 41.6525 40.2609 41.3097C39.5543 41.7158 38.4679 42.1904 37.2022 42.1904H37.0809C35.8046 42.1904 34.7024 41.7053 34.0062 41.2992C33.347 41.6314 32.0286 42.1904 30.6785 42.1904C29.3073 42.1904 27.9678 41.6156 27.3191 41.2886C26.6704 41.6156 25.3309 42.1957 23.9597 42.1957L23.9755 42.1904Z" fill="#FB954C"/>
<path d="M25.1483 37.66C24.874 37.66 24.6104 37.5176 24.4627 37.2645C23.9142 36.3205 23.4238 34.8596 23.4027 34.7964C23.3236 34.5643 23.3605 34.3112 23.4923 34.1055C23.6294 33.8998 23.8509 33.7732 24.0935 33.7521L55.6413 31.4264C55.9841 31.3948 56.3163 31.611 56.4376 31.938C56.5589 32.2649 56.4534 32.6394 56.1739 32.8503C55.6465 33.2459 54.9135 34.3534 54.2648 35.329C53.9431 35.8142 53.6425 36.273 53.3472 36.6738C53.0888 37.0272 52.593 37.101 52.2397 36.8426C51.8863 36.5842 51.8125 36.0884 52.0709 35.7351C52.3452 35.3659 52.6352 34.9229 52.9464 34.4536C53.2364 34.0106 53.537 33.5623 53.8324 33.1509L25.259 35.2552C25.4225 35.6613 25.6282 36.1201 25.8286 36.4734C26.0448 36.8531 25.9182 37.333 25.5385 37.5545C25.412 37.6284 25.2748 37.66 25.143 37.66H25.1483Z" fill="#252D32"/>
<path d="M39.8184 29.5332C39.3807 29.5332 39.0273 29.1798 39.0273 28.7421V0.791067C39.0273 0.353343 39.3807 0 39.8184 0C40.2561 0 40.6095 0.353343 40.6095 0.791067V28.7421C40.6095 29.1798 40.2561 29.5332 39.8184 29.5332Z" fill="#252D32"/>
<path d="M54.0568 32.6972C53.7667 32.6972 53.4872 32.539 53.3501 32.2595L39.1109 3.78105C38.9158 3.39079 39.074 2.91615 39.4643 2.72102C39.8545 2.52589 40.3292 2.68411 40.5243 3.07437L54.7635 31.5528C54.9586 31.943 54.8004 32.4177 54.4101 32.6128C54.2941 32.6708 54.1781 32.6972 54.0568 32.6972Z" fill="#252D32"/>
<path d="M36.6517 25.3143H26.1041C25.8141 25.3143 25.5451 25.1561 25.408 24.903C25.2709 24.6498 25.2814 24.3387 25.4396 24.0961L39.1515 3.00097C39.3888 2.63181 39.8792 2.5316 40.2484 2.76892C40.6123 3.00624 40.7178 3.49671 40.4805 3.86587L27.565 23.7375H36.657C37.0947 23.7375 37.448 24.0908 37.448 24.5285C37.448 24.9663 37.0947 25.3196 36.657 25.3196L36.6517 25.3143Z" fill="#252D32"/>
<path d="M30.7857 33.2409C30.6644 33.2409 30.5379 33.2145 30.4219 33.1512C30.0369 32.9508 29.8839 32.4709 30.0843 32.0859L31.7456 28.9006C31.8827 28.6369 32.1517 28.4734 32.447 28.4734H48.3843C48.7535 28.4734 49.0699 28.7265 49.1543 29.0851L49.8188 31.9383C49.919 32.3654 49.6553 32.7874 49.2281 32.8876C48.801 32.9878 48.3791 32.7241 48.2789 32.2969L47.7568 30.0555H32.9269L31.4872 32.8137C31.3448 33.0827 31.0705 33.2409 30.7857 33.2409Z" fill="#252D32"/>
<path d="M62.758 3.69189L62.4732 44.7061C62.4732 45.0647 62.1831 45.3547 61.8245 45.3547H41.6101C35.925 45.3547 33.0824 48.1868 33.0824 48.1868C33.0824 48.1868 30.2398 45.3547 24.5547 45.3547H4.34032C3.9817 45.3547 3.69165 45.0647 3.69165 44.7061V3.69189H3.24865C1.11804 3.69189 0 4.70974 0 6.66103V46.6099C0 48.5612 1.11277 49.5738 3.24337 49.5738H24.233C28.51 49.5738 30.7039 51.4354 30.9254 51.6358C32.0277 52.7644 33.8524 52.7802 34.9704 51.6675C35.0812 51.5673 37.2751 49.5738 41.6945 49.5738H62.9162C64.8886 49.5738 65.9275 48.5612 65.9275 46.6099V6.27605C65.9275 4.84686 64.7673 3.69189 63.3434 3.69189H62.7632H62.758Z" fill="#B5D44F"/>
<path d="M32.9629 49.231C32.7625 49.231 32.5621 49.1572 32.4092 49.0042C32.3828 48.9831 29.6773 46.4095 24.393 46.4095H4.07841C3.28735 46.4095 2.63867 45.7661 2.63867 44.9698V3.54423C2.63867 2.75316 3.28207 2.10449 4.07841 2.10449H27.821C31.9187 2.10449 33.2951 4.15072 33.7276 5.8647C33.7434 5.92798 33.754 5.99127 33.754 6.05983V7.11458C33.754 7.55231 33.4006 7.90565 32.9629 7.90565C32.5252 7.90565 32.1718 7.55231 32.1718 7.11458V6.1653C31.7077 4.49879 30.2838 3.68663 27.821 3.68663H4.22081V44.8221H24.393C30.3629 44.8221 33.3954 47.749 33.5166 47.8756C33.8278 48.1815 33.8278 48.6825 33.5219 48.9937C33.369 49.1519 33.1633 49.231 32.9576 49.231H32.9629Z" fill="#252D32"/>
<path d="M33.2611 49.231C33.0607 49.231 32.8551 49.1519 32.7021 48.9989C32.391 48.6878 32.391 48.1868 32.7021 47.8809C32.8287 47.7543 35.8295 44.8221 41.7361 44.8221H61.7026V3.68663H45.0902C44.6525 3.68663 44.2992 3.33328 44.2992 2.89556C44.2992 2.45784 44.6525 2.10449 45.0902 2.10449H61.845C62.6361 2.10449 63.2848 2.74789 63.2848 3.54423V44.9698C63.2848 45.7608 62.6414 46.4095 61.845 46.4095H41.7361C36.4729 46.4095 33.8465 48.9778 33.8202 49.0042C33.6672 49.1572 33.4615 49.2363 33.2611 49.2363V49.231Z" fill="#252D32"/>
<path d="M21.3601 25.8419H10.8126C10.3748 25.8419 10.0215 25.4886 10.0215 25.0508C10.0215 24.6131 10.3748 24.2598 10.8126 24.2598H21.3601C21.7978 24.2598 22.1512 24.6131 22.1512 25.0508C22.1512 25.4886 21.7978 25.8419 21.3601 25.8419Z" fill="#252D32"/>
<path d="M19.2506 30.588H10.8126C10.3748 30.588 10.0215 30.2346 10.0215 29.7969C10.0215 29.3592 10.3748 29.0059 10.8126 29.0059H19.2506C19.6883 29.0059 20.0417 29.3592 20.0417 29.7969C20.0417 30.2346 19.6883 30.588 19.2506 30.588Z" fill="#252D32"/>
<path d="M25.0518 12.1302H10.8126C10.3748 12.1302 10.0215 11.7769 10.0215 11.3392C10.0215 10.9014 10.3748 10.5481 10.8126 10.5481H25.0518C25.4895 10.5481 25.8428 10.9014 25.8428 11.3392C25.8428 11.7769 25.4895 12.1302 25.0518 12.1302Z" fill="#252D32"/>
<path d="M25.049 17.4037H22.9395C22.5018 17.4037 22.1484 17.0503 22.1484 16.6126C22.1484 16.1749 22.5018 15.8215 22.9395 15.8215H25.049C25.4867 15.8215 25.8401 16.1749 25.8401 16.6126C25.8401 17.0503 25.4867 17.4037 25.049 17.4037Z" fill="#252D32"/>
<path d="M19.2506 17.4037H10.8126C10.3748 17.4037 10.0215 17.0503 10.0215 16.6126C10.0215 16.1749 10.3748 15.8215 10.8126 15.8215H19.2506C19.6883 15.8215 20.0417 16.1749 20.0417 16.6126C20.0417 17.0503 19.6883 17.4037 19.2506 17.4037Z" fill="#252D32"/>
</svg>
