<?xml version="1.0" encoding="UTF-8"?>
<svg id="Layer_1" xmlns="http://www.w3.org/2000/svg" viewBox="0 0 150 60">
  <defs>
    <style>
      .cls-1 {
        fill: #fff;
      }
    </style>
  </defs>
  <path class="cls-1" d="M17.23,19.53l9.76.03c2.4,0,4.46,1.73,4.89,4.09.48,2.63-.89,4.88-3,5.49-.06.03-.12.07-.17.11,2.01.58,3.21,1.91,3.55,3.9.55,3.29-1.25,5.99-4.68,6.37-.76.07-1.53.1-2.3.09l-8.05.02v-20.1ZM21.54,35.78c.05.03.11.05.17.06h4.04c1.39-.08,2.22-.93,2.26-2.19s-.73-2.18-2.08-2.34c-.87-.07-1.74-.09-2.61-.07h-1.76v4.55ZM21.51,27.49h3.64c.23,0,.46,0,.69-.04.83-.17,1.48-.6,1.7-1.48.33-1.1-.29-2.26-1.39-2.59-.19-.06-.4-.09-.6-.09-.67-.03-1.35,0-2.02,0h-1.99c0,.15-.03.24-.03.32v3.88s0,0,0,0ZM94.79,39.98l-1.52-.28c-3.93-.94-5.94-4.33-5.59-8.07.28-3.12,1.87-5.43,4.87-6.47,4.2-1.48,9.07.52,9.79,6.09.09.74.09,1.49.14,2.31h-10.85c.25,1.39.94,2.34,2.16,2.86,1.97.83,3.81.42,5.54-.7.12-.07.2-.14.3-.22.03,0,.07,0,.1,0l1.7,2.49-1.64,1.01c-1.04.51-2.16.81-3.31.89-.13.02-.26.05-.39.09l-1.28-.02ZM98.73,30.91c.08-1.8-1.64-3.18-3.82-3.09-1.81.07-3.42,1.6-3.24,3.09h7.06ZM110.36,39.98l-1.88-.38c-2.91-.79-5-3.32-5.23-6.32-.25-2.86.58-5.28,2.87-7.08,3.47-2.73,10.31-2.11,11.67,4.35.1.46.16.94.18,1.41.03.5,0,1.01,0,1.59h-10.75c.07.75.4,1.45.93,1.99,1.19,1.23,2.68,1.46,4.28,1.18,1.04-.16,2.02-.61,2.82-1.3l1.73,2.54c-.46.3-.86.62-1.31.87-1.11.6-2.34.95-3.6,1.05-.15.02-.29.06-.44.09h-1.28ZM107.25,30.9h7.05c.09-1.75-1.59-3.14-3.7-3.1-1.87.04-3.49,1.52-3.35,3.1h0ZM39.07,39.98l-1.39-.28c-2.84-.68-4.5-2.81-4.5-5.72v-8.88h3.82v8.45c0,1.2.36,2.22,1.5,2.73,1.23.55,2.49.55,3.63-.28.83-.59,1.07-1.5,1.07-2.48v-8.45h3.79v8.81c0,3.32-2.08,5.63-5.4,5.97-.16.02-.32.07-.49.12h-2.02ZM75.21,39.57v-20.02h13.92v3.23c.03.43-.13.51-.53.5-2.75-.01-5.5,0-8.24,0h-.87v4.21h6.73c.42,0,.52.12.51.52v3.22h-7.26v8.34h-4.26ZM118.97,39.56v-13.96c0-.59,0-.59.61-.59l6.3.09c2.98.23,5.31,1.57,6.42,4.51,1.12,2.99.28,6.4-2.01,8.27-1.31,1.07-2.94,1.67-4.62,1.7l-6.49.03c-.07-.01-.13-.03-.2-.05h0ZM122.62,36.48h2.11c2.47,0,4.03-1.39,4.31-3.86.2-1.76-.76-3.52-2.28-4.16-1.34-.55-2.74-.26-4.14-.35v8.36ZM54.7,28.36h-6.5v-3.27h11.73v1.85c.04.53-.14,1.06-.5,1.46l-5.8,7.32-.36.48h6.72v3.35h-11.81v-2.74c0-.15.16-.32.28-.46,1.98-2.52,3.96-5.04,5.94-7.56.09-.12.16-.22.3-.43h0ZM61.05,28.38v-2.94c0-.12.02-.21.03-.35h11.69v2.62c-.04.15-.12.28-.23.38-2.02,2.56-4.04,5.11-6.05,7.66l-.34.48h6.3c.35,0,.49.09.46.46v2.87h-11.84v-2.81c0-.12.12-.24.21-.35l5.8-7.38.51-.66h-6.54Z"/>
</svg>