<?xml version="1.0" encoding="UTF-8"?>
<svg id="Layer_1" xmlns="http://www.w3.org/2000/svg" viewBox="0 0 150 60">
  <defs>
    <style>
      .cls-1 {
        fill: #fff;
      }
    </style>
  </defs>
  <path class="cls-1" d="M20.83,18.08c.45-1.58,1.86-2.95,3.55-2.99,3.83-.01,7.67,0,11.5,0,1.75.04,3.26,1.24,4.11,2.7h9.42c.86,0,1.7.25,2.4.74,1.17.8,1.87,2.12,1.87,3.54v16.19c-.01,1.65-1.11,3.22-2.64,3.84-.8.36-1.69.34-2.54.33h-26.17c-2.18-.03-4.16-1.96-4.14-4.16v-16.31c-.01-1.68,1.12-3.23,2.65-3.87ZM34.39,22.2c-4.69.44-9.13,3.08-11.67,7.05-.18.29-.26.62-.24.96.02.53.38.95.66,1.36,5.14,7.05,15.03,8.61,22.08,3.47,1.52-1.1,2.82-2.47,3.86-4.03.29-.43.36-.97.19-1.45-.17-.42-.46-.76-.72-1.13-2.29-3.05-5.6-5.16-9.33-5.95-1.59-.35-3.22-.44-4.84-.28h0Z"/>
  <path class="cls-1" d="M58.62,26.56c.61-1.08,1.71-1.91,2.95-2.05.97-.15,2.02,0,2.81.6.61.43,1.03,1.07,1.37,1.73-.56.3-1.15.54-1.72.83-.3-.7-.93-1.37-1.75-1.33-.87-.07-1.6.61-1.9,1.37-.5,1.26-.51,2.68-.14,3.98.21.63.58,1.26,1.21,1.57.79.37,1.76.15,2.39-.43v-1.6h-1.95v-1.88h3.94v4.31c-.83.99-2.03,1.59-3.32,1.65-1.16.07-2.3-.34-3.15-1.15-.83-.81-1.27-1.95-1.45-3.08-.19-1.53-.07-3.16.71-4.52Z"/>
  <path class="cls-1" d="M87.26,24.61h1.87c0,3.5,0,7,0,10.5h-1.87v-.94c-.38.57-.98,1.03-1.68,1.13-.96.1-1.89-.37-2.39-1.2-.69-1.12-.73-2.49-.61-3.76.13-.81.4-1.65.98-2.26.64-.68,1.71-.96,2.58-.59.48.18.83.56,1.12.97v-3.85ZM85.41,29.11c-.75.41-.89,1.36-.93,2.14.02.8.13,1.76.86,2.23.7.41,1.63-.07,1.92-.77.01-.93.02-1.87,0-2.81-.3-.67-1.15-1.13-1.85-.79Z"/>
  <path class="cls-1" d="M90.9,24.61h3.76c.82,0,1.68.22,2.3.78,1.01.9,1.28,2.43.9,3.69-.21.84-.84,1.59-1.67,1.87.64,1.38,1.26,2.77,1.9,4.16-.78,0-1.56,0-2.34,0-.53-1.26-1.08-2.53-1.59-3.79h-1.12v3.79h-2.13v-10.5ZM93.03,26.48v2.99c.62-.02,1.24.05,1.86-.05,1.2-.31,1.31-2.25.25-2.81-.67-.25-1.4-.1-2.1-.14h0Z"/>
  <path class="cls-1" d="M118.87,24.61c.62,0,1.25,0,1.87,0v10.5h-1.87c0-.31,0-.63,0-.94-.39.58-1,1.05-1.71,1.13-.93.08-1.83-.36-2.33-1.16-.68-1.04-.75-2.34-.66-3.54.08-.88.34-1.78.93-2.45.62-.72,1.7-1.03,2.6-.68.5.17.87.56,1.16.99,0-1.29,0-2.56,0-3.85ZM116.2,30.34c-.16.87-.18,1.85.27,2.64.26.48.86.77,1.39.6.44-.11.77-.46,1.01-.82,0-.96,0-1.93,0-2.89-.31-.49-.85-.94-1.47-.85-.68.05-1.09.73-1.21,1.33h0Z"/>
  <path class="cls-1" d="M35.31,24.72c1.55-.18,3.1.3,4.27,1.34,2.19,1.94,2.44,5.27.57,7.52-1.96,2.33-5.44,2.63-7.77.67-.35-.29-.66-.63-.92-.99-.84-1.17-1.18-2.64-.94-4.06.36-2.34,2.44-4.27,4.79-4.48ZM35.11,27.98c-.86.32-1.5,1.19-1.47,2.12-.04,1.06.79,2.03,1.82,2.22,1.26.31,2.66-.69,2.74-2,.08-.78-.25-1.55-.88-2.02-.63-.48-1.47-.6-2.21-.33Z"/>
  <path class="cls-1" d="M69.46,27.45c1.12-.32,2.44-.06,3.27.8.58.57.89,1.36,1.05,2.15.19,1.3,0,2.74-.87,3.78-1.06,1.31-3.19,1.49-4.5.47-.71-.55-1.14-1.39-1.31-2.26-.22-1.1-.12-2.27.38-3.28.4-.79,1.12-1.44,1.99-1.66ZM69.89,29.11c-.76.42-.9,1.37-.96,2.15.02.68.11,1.42.57,1.96.47.59,1.49.54,1.91-.08.49-.67.52-1.54.46-2.34-.06-.68-.33-1.46-1.01-1.74-.32-.1-.67-.09-.98.04Z"/>
  <path class="cls-1" d="M77.38,27.42c.93-.23,1.92-.06,2.72.48.87.6,1.34,1.64,1.48,2.67.17,1.26-.08,2.66-.92,3.66-1.14,1.35-3.43,1.45-4.7.23-.73-.68-1.07-1.67-1.18-2.64-.09-1.04.1-2.13.67-3.02.44-.7,1.13-1.19,1.93-1.37ZM77.69,29.09c-.74.37-.94,1.28-.96,2.04-.02.73.08,1.52.56,2.1.47.55,1.43.51,1.87-.06.42-.54.53-1.26.52-1.93,0-.65-.13-1.36-.57-1.86-.34-.39-.94-.48-1.41-.29Z"/>
  <path class="cls-1" d="M99.94,28.15c1.2-1.14,3.36-1.11,4.45.17.86.98,1.02,2.36.98,3.61h-4.77c.07.61.3,1.25.85,1.58.84.52,1.98.22,2.64-.46.29.37.58.75.87,1.13-1.2,1.26-3.33,1.53-4.77.51-1.03-.75-1.51-2.07-1.49-3.32-.03-1.17.36-2.41,1.23-3.22ZM101.14,29.23c-.38.36-.47.9-.54,1.4.98,0,1.97,0,2.95,0-.06-.4-.09-.83-.34-1.17-.41-.7-1.51-.82-2.07-.23h0Z"/>
  <path class="cls-1" d="M107.04,28.35c.59-.85,1.78-1.26,2.76-.88.5.17.88.56,1.15,1.01v-.96h1.9v7.6h-1.88v-.96c-.37.61-1,1.07-1.72,1.15-.84.07-1.66-.29-2.17-.96-.65-.85-.83-1.94-.84-2.99,0-1.04.18-2.14.81-3ZM109.16,29.1c-.72.34-.92,1.2-.98,1.92-.03.83.07,1.82.75,2.39.69.51,1.71.05,2.02-.69.03-.76,0-1.52.01-2.27.18-.93-.97-1.69-1.8-1.35Z"/>
  <path class="cls-1" d="M123.32,28.11c1.2-1.09,3.29-1.06,4.38.17.89.98,1.06,2.38,1.02,3.65h-4.77c.05.5.2,1.01.57,1.36.59.59,1.57.6,2.27.22.25-.1.42-.34.68-.42.3.34.56.72.84,1.09-1.21,1.26-3.36,1.53-4.79.49-1-.72-1.45-1.99-1.47-3.19-.05-1.22.34-2.53,1.27-3.37ZM124.47,29.25c-.35.37-.46.89-.52,1.38h2.97c-.09-.43-.13-.9-.42-1.26-.46-.63-1.5-.69-2.03-.11Z"/>
  <path class="cls-1" d="M131.88,28.5c.47-.67,1.21-1.11,2.02-1.21.07.62-.03,1.25.05,1.87-.73-.12-1.48.15-1.97.71-.14.11-.1.3-.11.46v4.78h-1.91v-7.6h1.91c0,.33,0,.66,0,1Z"/>
</svg>