<?xml version="1.0" encoding="UTF-8"?>
<svg id="Layer_1" xmlns="http://www.w3.org/2000/svg" viewBox="0 0 150 60">
  <defs>
    <style>
      .cls-1 {
        fill: #231f20;
      }
    </style>
  </defs>
  <path class="cls-1" d="M125.9,29.84l-.96.26c-.92-3.14-2.47-4.5-4.66-4.5-1.54,0-2.62,1.01-2.62,2.62s1.28,2.36,4.7,3.75c3.16,1.16,4.47,2.59,4.47,5.07,0,3.79-2.97,6.16-7.85,6.16-2.36,0-5.01-.52-6.51-1.12l-.19-5.26.92-.19c1.39,3.6,3.16,4.96,5.47,4.96,2,0,3.05-1.39,3.05-2.81s-.81-2.25-3.94-3.37c-2.97-.98-5.01-2.25-5.01-5.41s2.74-5.75,7.4-5.75c2.2,0,4.2.38,5.51.98l.21,4.61ZM105.77,31.49c.11-2.47-.39-6.05-2.42-6.05s-3.24,3.34-3.27,6.2l5.7-.15ZM103.84,24.25c5.12,0,7.59,3.75,7.64,8.67h-11.52c-.04,4.36,2.27,7.66,6.6,7.66,1.89,0,2.97-.52,4.12-1.35l.54.6c-1.27,1.72-3.9,3.37-7.4,3.37-5.62,0-9.52-3.86-9.52-9.31-.01-4.92,3.19-9.65,9.55-9.65M87.22,33.37c-.11-3.9-1.54-6.99-4.27-6.99-.65,0-1.15.11-1.92.38l.23,14.98c.27.11.92.19,1.39.19,2.66,0,4.59-3.76,4.59-8.56M92.93,33.07c0,6.16-3.9,10.13-10.49,10.13-2.36,0-4.79-.38-6.9-.86.19-2.47.19-17.8,0-20.68-.19-1.51-.61-2.21-1.77-2.36l-.77-.08v-.69l8.13-1.5c-.04,1.27-.11,4.62-.11,8.56,1.42-.71,2.74-1.12,4.51-1.12,4.24,0,7.4,3.6,7.4,8.6M72.23,29.72c-2.51-1.65-5.21-.94-5.75,0-.24,2.88-.19,7.33.04,9.61.11,1.51.54,2.14,1.7,2.25l1.54.15v.98h-11.49v-.98l.89-.15c1.11-.11,1.51-.75,1.57-2.25.27-2.44.35-7.55,0-10.36-.08-1.61-.46-2.21-1.57-2.36l-.89-.11v-.67l8.21-1.57-.11,4.2c1.92-4.35,5.75-4.87,7.82-3.71l-1.96,4.98ZM45.28,33.74c0,4.59,1.24,8.34,3.73,8.34,2.7,0,3.47-3.67,3.47-8.34s-1.19-8.3-3.73-8.3c-2.71,0-3.47,3.56-3.47,8.3M58.3,33.67c0,5.26-3.47,9.54-9.67,9.54s-9.17-4.06-9.17-9.39,3.47-9.57,9.67-9.57,9.17,4.09,9.17,9.42M42.35,24.63l-1.27.38c-1.07-3.69-2.97-5.79-6.25-5.79h-4.27c-.24,2.45-.35,6.24-.24,10.32l2.85-.15c1.92,0,2.74-1.39,3.2-3.41h1.07v8.52h-1.07c-.46-2.06-1.27-3.47-3.2-3.57l-2.85-.04c0,3.04.04,5.63.24,7.21.19,2.25.81,3.27,2.46,3.49l1.55.15v.98h-13.96v-.98l1.16-.15c1.61-.23,2.27-1.24,2.46-3.49.31-3.67.39-11.52,0-15.88-.19-2.32-.85-3.26-2.46-3.45l-1.16-.19v-1.01h21.71l.04,7.06Z"/>
</svg>