<?xml version="1.0" encoding="UTF-8"?>
<svg id="Layer_1" xmlns="http://www.w3.org/2000/svg" viewBox="0 0 150 60">
  <defs>
    <style>
      .cls-1 {
        fill: #231f20;
      }
    </style>
  </defs>
  <g id="Layer_2">
    <g id="Square">
      <path class="cls-1" d="M45.38,25.52h-1.43c-.24,0-.44.2-.43.44,0,0,0,0,0,.01v3.98h-4.79v-3.98c0-.24-.2-.44-.44-.44h-1.45c-.24,0-.43.2-.44.44v10.28c0,.24.2.43.44.44h1.45c.24,0,.44-.2.44-.44h0v-4.15h4.79v4.15c0,.24.19.43.43.44h1.43c.24,0,.43-.2.44-.44v-10.28c0-.25-.19-.45-.44-.45,0,0,0,0,0,0Z"/>
      <path class="cls-1" d="M54.48,25.52h-6.33c-.24,0-.44.2-.44.44,0,0,0,.01,0,.02v10.28c0,.24.2.44.44.44h6.33c.24,0,.44-.2.44-.44h0v-1.28c0-.24-.2-.42-.44-.42h-4.46v-2.45h3.7c.24,0,.44-.18.45-.42,0,0,0-.01,0-.02v-1.29c0-.24-.2-.43-.44-.44h-3.72v-2.27h4.46c.24,0,.43-.19.44-.43v-1.26c0-.24-.18-.44-.42-.45,0,0-.01,0-.02,0Z"/>
      <path class="cls-1" d="M80.43,33.69c-.16-.15-.41-.15-.57,0-.64.55-1.45.85-2.29.86-1.86-.01-3.35-1.52-3.34-3.38,0-.03,0-.05,0-.08-.06-1.86,1.4-3.42,3.26-3.48.02,0,.04,0,.06,0,.85,0,1.66.32,2.3.88.08.08.19.13.3.14h0c.11,0,.21-.05.28-.13l.95-.98c.08-.08.13-.2.13-.32,0-.12-.06-.24-.15-.32-1.04-.99-2.43-1.52-3.86-1.48-3.17-.08-5.81,2.42-5.89,5.59-.08,3.17,2.42,5.81,5.59,5.89.1,0,.2,0,.3,0,1.45.02,2.85-.55,3.88-1.56.09-.09.14-.22.14-.35,0-.1-.05-.2-.12-.27l-.96-1Z"/>
      <path class="cls-1" d="M92.95,36.09l-4.79-10.48c-.06-.16-.22-.26-.39-.25h-.16c-.17,0-.32.1-.39.25l-4.84,10.47c-.07.13-.07.29,0,.41.09.13.24.2.39.19h1.35c.26,0,.49-.15.58-.39l.73-1.6h4.47l.73,1.6c.09.24.32.4.58.39h1.35c.15.01.3-.06.39-.19.07-.13.07-.28,0-.41ZM86.32,32.69l1.33-2.99,1.36,2.99h-2.7Z"/>
      <path class="cls-1" d="M104.84,25.72c-.02-.21-.21-.37-.42-.36h-.25c-.17-.01-.33.08-.39.24l-3.32,7.12-3.32-7.14c-.07-.15-.23-.24-.39-.23h-.25c-.21-.02-.4.14-.42.35l-1.85,10.46c-.03.14,0,.28.09.39.09.1.21.15.34.14h1.4c.2,0,.38-.15.42-.35l.84-5.5,2.6,5.76c.06.16.22.26.39.25h.29c.17.01.33-.09.39-.25l2.56-5.76.86,5.52c.06.19.23.33.43.34h1.42c.23.01.42-.16.43-.39,0-.05,0-.09-.02-.14l-1.84-10.45Z"/>
      <path class="cls-1" d="M126.4,25.52h-1.48c-.24,0-.44.2-.44.44,0,0,0,.01,0,.02v6.36c.07,1.17-.82,2.18-1.99,2.25s-2.18-.82-2.25-1.99c0-.09,0-.17,0-.26v-6.36c0-.24-.2-.44-.44-.44h-1.48c-.24,0-.43.2-.44.44v6.45c.07,2.47,2.13,4.41,4.61,4.34,2.37-.07,4.27-1.97,4.34-4.34v-6.45c0-.24-.19-.45-.43-.45Z"/>
      <path class="cls-1" d="M137.76,25.52h-1.17s-.09.04-.09.09h0v.22s.04.09.09.09h.37v1.44s.04.08.09.09h.25s.09-.04.09-.09h0v-1.44h.37s.09-.04.09-.09h0v-.22s-.03-.08-.07-.09Z"/>
      <path class="cls-1" d="M140.08,27.37l-.31-1.78s-.04-.07-.08-.07h-.04s-.06.02-.08.05l-.55,1.17-.55-1.17s-.04-.05-.08-.05h-.04s-.08.03-.08.07l-.31,1.78s0,.05,0,.07c.02.02.04.03.07.03h.23s.08-.03.09-.07l.14-.89.43.94s.04.05.07.05h.05s.07-.02.08-.05l.42-.94.14.9s.04.07.08.07h.26s.05,0,.07-.03c.02-.02.02-.05.02-.07Z"/>
      <path class="cls-1" d="M132.39,29.98c-1.24-.51-1.75-.98-1.75-1.61,0-.46.47-.95,1.23-.95.75.1,1.47.39,2.08.83.27.14.6.04.74-.22,0,0,0,0,0,0l.59-.88c.07-.12.1-.26.07-.39-.02-.12-.09-.23-.2-.3-.93-.67-2.05-1.04-3.2-1.07-2.5,0-3.64,1.62-3.64,3.12,0,2.04,1.72,2.97,3.01,3.51s1.89,1.05,1.89,1.74c0,.6-.55,1.06-1.28,1.06-.57,0-1.36-.32-2.22-.91l-.04-.03h0c-.11-.08-.25-.12-.39-.09-.14.03-.26.12-.33.24l-.58.93h0c-.15.19-.11.47.08.62,0,0,.01.01.02.02.97.85,2.22,1.29,3.51,1.25,2.41,0,3.72-1.66,3.72-3.22,0-2.02-1.68-2.96-3.33-3.64Z"/>
      <path class="cls-1" d="M62.84,32.22c1.33-.52,2.22-1.78,2.25-3.21-.02-1.94-1.6-3.5-3.53-3.48h-4.45c-.24,0-.44.19-.44.43,0,0,0,.02,0,.02v10.28c0,.24.2.44.44.44h1.43c.24,0,.43-.2.44-.44v-8.59h2.4c.76,0,1.38.61,1.4,1.37,0,.78-.62,1.42-1.4,1.45h-1.33c-.22,0-.39.17-.39.39v1.17c0,.22.17.39.39.39h.42l2.03,4.05c.08.14.23.23.39.22h1.63c.16,0,.31-.07.39-.21.08-.14.08-.31,0-.45l-2.06-3.82Z"/>
      <path class="cls-1" d="M112.88,25.52h-3.66c-.24,0-.44.2-.43.44,0,0,0,0,0,.01v10.28c0,.24.2.44.44.44h1.43c.24,0,.44-.2.44-.44v-8.54h1.66c.78-.02,1.44.6,1.46,1.38,0,0,0,0,0,0,0,.81-.65,1.47-1.46,1.48h-.6c-.22,0-.39.17-.39.39v1.42c0,.22.17.39.39.39h.74c1.99,0,3.61-1.62,3.61-3.61s-1.62-3.61-3.61-3.61l-.02-.04Z"/>
      <path class="cls-1" d="M27.05,21.68h-14.94c-.47,0-.85.38-.85.85v17.24c0,.37.31.68.69.67.07,0,.14-.01.2-.03l7.28-2.34c.1-.04.22-.04.32,0l7.23,2.34c.38.12.78-.09.9-.47.02-.07.03-.14.03-.22v-17.17c.01-.47-.36-.86-.83-.88,0,0-.02,0-.02,0ZM16.06,28.35v2.49s-.02.1-.05.14c-.05.07-.13.12-.21.12h-.87c-.14,0-.25-.12-.26-.26v-6.16h0c0-.14.12-.26.26-.26h.87c.14,0,.26.12.26.26h0v2.38h2.86v-2.38c0-.14.12-.26.26-.26h.85c.14,0,.25.12.26.26v4.42c-.53.27-1,.65-1.38,1.11v-1.86h-2.86ZM24.46,35.25c-.61.59-1.43.92-2.28.91-1.86,0-3.36-1.5-3.36-3.36,0-1.86,1.5-3.36,3.36-3.36h0c.84-.02,1.65.29,2.26.87.05.05.09.11.09.18,0,.07-.03.14-.08.19l-.55.57s-.1.08-.16.08h0c-.07,0-.13-.03-.18-.08-.37-.33-.85-.51-1.34-.51-1.09.01-1.96.91-1.95,2,0,.01,0,.03,0,.04-.04,1.08.8,1.98,1.88,2.02.02,0,.05,0,.07,0,.49,0,.97-.18,1.34-.5.09-.09.24-.09.34,0l.57.58s.07.1.07.16c0,.08-.02.15-.07.21Z"/>
    </g>
  </g>
</svg>