<?xml version="1.0" encoding="UTF-8"?>
<svg id="Layer_1" xmlns="http://www.w3.org/2000/svg" viewBox="0 0 150 60">
  <defs>
    <style>
      .cls-1 {
        fill: #231f20;
      }
    </style>
  </defs>
  <g id="Components">
    <g id="a291fbb3-8798-49cd-8336-a481cf136c9f_1">
      <path class="cls-1" d="M84.58,37.99h2.71v-14.52h3.28v-2.36h-9.3v2.37h3.3v14.51h0Z"/>
      <path class="cls-1" d="M71.5,38.02h2.35l2.71-12.48h-.55c-.66,0-1.32,0-1.98,0h0c-.06.34-.12.68-.18,1.02l-.24,1.38c-.13.78-.27,1.55-.4,2.33-.09.53-.18,1.06-.27,1.58l-.2,1.2c-.01.08-.03.17-.05.25l-.14.68-.16-.55c-.05-.19-.08-.37-.11-.55l-1.05-6.12c-.07-.41-.14-.81-.21-1.22-.59,0-1.18,0-1.78,0h-.22l-1.48,8.63-.15-.72c-.1-.51-.21-1.06-.32-1.72-.08-.46-.16-.93-.24-1.39-.09-.51-.17-1.02-.26-1.53l-.21-1.19c-.12-.68-.24-1.37-.35-2.05,0-.01,0-.02,0-.02,0,0-.02,0-.03,0-.64,0-1.29,0-1.94,0h-.56l2.71,12.48h2.32l1.36-6.91.23-.02.05.12,1.34,6.81h0ZM71.06,25.54h0,0Z"/>
      <path class="cls-1" d="M58.07,25.54c-.65,0-1.29,0-1.94,0h-.53c-.22,0-.45,0-.67.03-.55.07-.9.33-1.04.78-.06.19-.09.4-.09.59,0,2.6,0,5.2,0,7.79v1.88c0,.06,0,.08,0,.11.03.3.09.64.34.9.24.25.57.37.97.38,1.58,0,3.16,0,4.74,0h.75c.12,0,.26,0,.39-.03.4-.07.67-.24.84-.53.12-.21.19-.45.19-.7,0-1.66,0-8.19,0-9.8,0-.13,0-.26-.03-.39-.09-.48-.33-.77-.74-.9-.22-.07-.47-.11-.7-.11-.82,0-1.65,0-2.47,0h0ZM59.41,35.87h-3.01v-8.17h3.01v8.17Z"/>
      <path class="cls-1" d="M94.12,25.54c-.62,0-1.23,0-1.85,0h-.62c-.2,0-.45,0-.68.03-.44.05-.74.23-.93.54-.14.23-.2.49-.2.84,0,3.18,0,6.37,0,9.55,0,.11,0,.24.03.39.08.69.54,1.09,1.26,1.1,1.47.01,2.96.01,4.41,0h1.26c.23,0,.45-.06.66-.17.39-.21.59-.57.59-1.06h0c.01-1.74,0-9.97-.02-10.2-.08-.47-.32-.77-.73-.9-.23-.07-.48-.11-.71-.11-.82,0-1.65,0-2.47,0h0ZM95.47,35.87h-3.01v-8.17h3.01v8.17Z"/>
      <path class="cls-1" d="M77.4,31.85v-2.54h5.35v2.54h-5.35Z"/>
      <path class="cls-1" d="M104.13,21.39l-.09.02c-.07.01-.14.02-.21.04-.55.11-.9.4-1.07.88-.1.3-.11.6-.11.88v13.16c0,.3.01.52.05.73.08.5.31.83.7,1.02.23.11.47.16.73.16h2.16c1.44,0,2.88,0,4.32,0,.14,0,.29,0,.44-.03.57-.09.93-.37,1.09-.83.09-.25.13-.52.13-.77,0-2.03,0-2.96,0-4.33v-2.1s0,0,0,0c-1.67,0-3.32,0-4.96,0h0c0,.76,0,1.51,0,2.27h0s0,0,0,0c.49,0,.97,0,1.46,0h.75v3.51h-4.13v-12.31h4.14v2.31h2.73c0-.63-.02-3.21-.04-3.37-.09-.63-.44-1.01-1.07-1.16-.09-.02-.18-.04-.26-.05l-.12-.02h-6.63Z"/>
      <path class="cls-1" d="M137.48,32.39l.23.21c.06.05.09.11.11.17l.39.9c.67,1.52,1.34,3.04,2,4.56.02.05.02.05.07.05.71,0,1.42,0,2.13,0h.65c-1.04-2.19-2.09-4.37-3.13-6.56-.07-.14-.06-.25,0-.38.83-1.6,1.65-3.21,2.47-4.81l.35-.69s0-.01,0-.01h-.27c-.84,0-1.68,0-2.52,0-.48,1.03-.97,2.05-1.45,3.07l-.82,1.71-.21-.07-.03-.11v-9.37h-2.67v17.21h2.67v-5.87h0Z"/>
      <path class="cls-1" d="M118.67,25.81c-.66,0-1.33,0-1.99,0h-.4c-.21,0-.44,0-.66.03-.54.07-.87.31-1.02.74-.07.2-.11.42-.11.65,0,3.17,0,6.35,0,9.53,0,.13,0,.26.03.41.08.7.52,1.08,1.24,1.09,1.84.02,3.72.01,5.54,0,.35,0,.65-.12.88-.34.25-.23.37-.53.37-.92,0-.67,0-1.35,0-2.02v-.7s0-.37,0-.56h-2.53v2.68h-2.98v-3.82h.23c.52,0,3.1,0,4.5,0,.43,0,.79-.35.79-.78,0-.82,0-1.63,0-2.44v-2.13c0-.12,0-.26-.03-.39-.09-.5-.35-.81-.79-.93-.23-.06-.46-.1-.67-.1-.8,0-1.59,0-2.39,0h0ZM120,30.97h-2.98v-3.28h2.98v3.28Z"/>
      <path class="cls-1" d="M129.05,25.81c-.66,0-1.33,0-1.99,0h-.4c-.21,0-.44,0-.66.03-.54.07-.87.31-1.02.74-.07.2-.11.42-.11.65,0,3.17,0,6.35,0,9.53,0,.13,0,.26.03.41.08.7.52,1.08,1.24,1.09,1.84.02,3.72.01,5.54,0,.35,0,.65-.12.88-.34.25-.23.37-.53.37-.92,0-.67,0-1.35,0-2.02v-.7s0-.37,0-.56h-2.53v2.68h-2.98v-3.82h.23c.52,0,3.1,0,4.5,0,.43,0,.79-.35.79-.78,0-.82,0-1.63,0-2.44v-2.13c0-.12,0-.26-.03-.39-.09-.5-.35-.81-.79-.93-.23-.06-.46-.1-.67-.1-.8,0-1.59,0-2.39,0h0ZM130.39,30.97h-2.98v-3.28h2.98v3.28Z"/>
      <path class="cls-1" d="M42.06,38h2.75v-7.27h4.29v7.26h2.75v-16.85s0-.02,0-.02h-2.75s0,.03,0,.05v7.04h-4.29v-7.09h-2.74v16.89h0Z"/>
      <polygon class="cls-1" points="13.05 27.76 16.23 27.76 20.29 20.9 25.27 20.87 25.39 20.87 26.91 18.27 13.68 18.3 13.64 18.31 12.1 20.9 17.12 20.9 13.05 27.76"/>
      <polygon class="cls-1" points="14.53 33.9 18.22 39.92 18.29 40.03 19.68 37.62 19.7 37.57 17.44 33.9 14.53 33.9"/>
      <polygon class="cls-1" points="30.66 24.06 27.2 29.89 27.12 30.01 28.45 32.05 30.59 28.35 31.54 29.88 28.43 35.21 25.15 30.17 29.59 22.6 29.67 22.46 27.93 19.82 22.05 29.85 22.02 29.89 28.53 39.92 34.4 29.83 34.43 29.79 30.66 24.06"/>
      <polygon class="cls-1" points="24.39 22.59 21.22 22.59 17.08 29.68 10.11 29.7 14.32 22.57 11.16 22.57 7 29.63 6.93 29.76 13.7 41.01 13.73 41.05 16.97 41.05 11.73 32.46 18.61 32.45 23.8 41.02 23.82 41.06 27.04 41.06 19.93 30.2 24.39 22.59"/>
    </g>
  </g>
</svg>