<?xml version="1.0" encoding="UTF-8"?>
<svg id="Layer_1" xmlns="http://www.w3.org/2000/svg" viewBox="0 0 150 60">
  <defs>
    <style>
      .cls-1 {
        fill: #231f20;
      }
    </style>
  </defs>
  <path class="cls-1" d="M27.47,40.81h4.81l2.59-14.79h-4.82l-.95,5.29h-4.18l.95-5.29h-4.82l-2.58,14.79h4.82l.97-5.53h4.18l-.96,5.53ZM37.59,26.01l-1.47,8.23c-.12.61-.18,1.23-.18,1.85,0,4.36,3.82,5.02,6.1,5.02,4.8,0,6.87-1.6,7.62-5.9l1.62-9.22h-4.83l-1.37,7.74c-.44,2.42-.75,3.68-2.55,3.68-1.18,0-1.74-.62-1.74-1.91.02-.62.09-1.24.22-1.85l1.4-7.67h-4.83v.03ZM76.74,40.81h4.82l.68-3.82h2.27c4.2,0,6.52-2.27,6.52-6.41,0-2.91-2.02-4.58-5.55-4.58h-6.17l-2.56,14.81ZM84.25,33.36h-1.39l.64-3.48h1.3c1.06,0,1.63.53,1.63,1.5,0,1.23-.83,1.98-2.18,1.98h0ZM100.39,25.69c-5.24,0-8.37,3.39-8.37,9.09,0,3.96,2.49,6.34,6.67,6.34,5.24,0,8.36-3.38,8.36-9.09.03-3.99-2.46-6.34-6.66-6.34h0ZM98.98,37.29c-1.25,0-1.98-.9-1.98-2.4,0-.55.06-1.09.16-1.63.37-1.94.99-3.72,2.94-3.72,1.25,0,1.98.9,1.98,2.4,0,.55-.06,1.09-.16,1.63-.36,1.93-.98,3.72-2.94,3.72ZM123.82,40.81h4.82l1.91-10.83h3.63l.7-3.96h-12.34l-.7,3.96h3.85l-1.87,10.83ZM115.84,31.49c-1.52-.48-2.14-.68-2.14-1.39,0-.48.31-1.04,1.23-1.04.64-.02,1.23.36,1.47.95l4.25-1.15c-.5-2.09-2.29-3.16-5.39-3.16-5.82,0-6.28,3.91-6.28,5.1,0,2.42,1.28,3.9,4.07,4.67.73.2,1.57.42,1.57,1.23,0,.64-.48,1.04-1.3,1.04-.8,0-1.52-.47-1.82-1.21l-4.2,1.14c.46,2.2,2.53,3.44,5.77,3.44,2.47,0,6.61-.66,6.61-5.13.01-2.24-1.25-3.7-3.83-4.49h0ZM54.02,26.01l-2.58,14.8h4.82l.77-4.36h4.05l.66-3.72h-4.05l.46-2.75h5.66l.7-3.97h-10.48ZM66.66,26.01l-2.58,14.8h4.82l.75-4.36h4.07l.66-3.72h-4.05l.46-2.75h5.66l.7-3.97h-10.48Z"/>
</svg>