<?xml version="1.0" encoding="UTF-8"?>
<svg id="Layer_1" xmlns="http://www.w3.org/2000/svg" viewBox="0 0 150 60">
  <defs>
    <style>
      .cls-1 {
        fill: #231f20;
      }
    </style>
  </defs>
  <path class="cls-1" d="M103.96,31.66l-.12-.21-.07-.12,4.87-8.25h-2.94l-.17.28.07-.1-.07.1-4.14,6.87-.19.33-.07.13-.05.1-.05.13-.04.1-.03.14v.15s0,.12,0,.12l.03.09c.04.13.1.27.21.44l.1.18,4.9,8.53h2.83l-5.07-9.04ZM98.09,15.55v25.15h2.58V15.55h-2.58ZM130.56,23.21l-.51-.15-.15-.05h-.01l-.14-.04h-.02s-.13-.04-.13-.04c-.37-.07-.75-.11-1.12-.11h-.28s-.26.03-.26.03l-.26.03-.26.05-.27.06-.31.09-.35.13-.35.15-.28.15-.03.02-.21.12-.22.15-.26.2-.03.03-.18.15-.19.19-.06.06-.15.17-.03.03-.14.18-.05.07-.08.1-.07.1-.13.2-.09.15-.05.09-.11.22-.09.21v.1l-.1.25-.08.26-.02.08-.07.25-.08.39-.03.15v.08s-.04.3-.04.3v.26s-.01,12.6-.01,12.6h2.58v-12.55c.02-.76.32-1.48.85-2.02l.13-.13.13-.1c.29-.25.65-.41,1.03-.48.1-.02.21-.03.31-.03l2.8.07.09-1.74v-.25s-.47-.22-.47-.22l-.13-.02ZM120.05,27.65l-.02-.24-.02-.15v-.08s-.05-.24-.05-.24l-.05-.21-.05-.19-.04-.13-.07-.22-.08-.21-.07-.16-.15-.31-.15-.28-.19-.28-.23-.31-.24-.27-.26-.25-.06-.05-.21-.17-.31-.22-.29-.18-.34-.18h-.03s-.22-.11-.22-.11l-.13-.05-.3-.1-.32-.09-.4-.08-.33-.04h-.09.05-.3s-.02-.01-.02-.01h-.21s-.14,0-.14,0h-.16s-.21.04-.21.04h-.05s-.1.02-.1.02l-.1.02h-.04s-.1.03-.1.03l-.13.03-.1.03-.12.03-.1.04-.23.09-.12.05-.1.05-.09.04-.13.06-.12.06-.1.05-.11.07-.09.05-.1.07-.09.06h-.01s-.09.08-.09.08l-.09.07-.1.08-.08.07-.1.09-.08.07-.1.09-.08.07-.02.02-.14.15-.09.1-.07.08-.04.05-.11.14-.08.11-.05.09-.03.05-.05.08-.09.15-.08.13-.06.12-.05.09-.05.12-.05.1-.05.14-.09.24-.1.35-.05.21-.02.1-.03.14-.02.11-.02.13v.12s-.02.07-.02.11v8.29l.02.39.03.26.05.35.02.08.05.24.1.36.13.37.14.32.12.23.04.07.1.18.18.28.21.29.12.15.05.06.17.18.21.2.21.18.24.17.28.18.3.15.2.08.06.03.24.08h.02l.32.08.31.05.24.03h.05s.31.02.31.02c.26,0,.53-.02.8-.07l3.09-.48-.02-.2v-.12l-.04-.49v-.15l-.04-.7v-.26s-.01-.13-.01-.13h-3.25c-.09,0-.19,0-.28-.02l-.23-.04-.22-.05-.25-.09-.21-.1c-.1-.05-.17-.1-.24-.14l-.18-.14-.15-.15-.15-.17-.15-.2-.07-.1-.16-.32-.08-.21-.07-.26-.04-.23c-.01-.1-.02-.19-.02-.29v-2.73h6.22c.71,0,1.29-.58,1.29-1.29,0,0,0,0,0,0v-3.96l-.03-.26.02-.02ZM117.52,27.9v2.71h-4.96v-2.71c0-1.12.72-2.08,1.74-2.4.31-.1.64-.13.97-.1l.23.03.26.06c.15.05.29.1.42.18l.06.03.15.1.21.15.16.15.16.18c.07.08.13.17.19.26l.08.14.1.21.03.07.07.21.04.13.03.1.03.15.02.34h0ZM92.76,28.25h.19s.16-.01.16-.01h.1s1.3-.03,1.3-.03h.67v-.52s0-.04,0-.04v-.13s-.03-.25-.03-.25l-.02-.13-.02-.12-.03-.13-.03-.12-.03-.12-.03-.12-.04-.12-.04-.11-.04-.1h0s-.04-.12-.04-.12l-.04-.1h0s-.05-.12-.05-.12l-.19-.38-.16-.28-.04-.06-.16-.24-.02-.03-.21-.26-.24-.26-.27-.26-.26-.22-.36-.26-.24-.14-.35-.18-.04-.02-.21-.09-.13-.05-.31-.1h-.01l-.31-.08-.39-.08-.11-.02-.23-.03h-.09s-.34-.02-.34-.02h-.14s-.12,0-.12,0h-.13s-.12.02-.12.02l-.25.03-.13.02h-.02l-.1.02-.24.05-.1.03-.13.04h-.02l-.09.03-.13.04-.23.09-.13.06-.09.04-.15.08-.06.03-.11.07-.09.05-.19.12-.1.07-.12.09-.07.05-.12.09-.19.15-.18.17-.05.05-.12.13-.18.21-.17.23-.06.09-.13.2-.11.2-.05.09-.12.26-.11.27-.1.29-.1.34v.02c-.1.4-.15.81-.15,1.22v8.35s.02.07.02.1l.02.19.02.11.03.2.08.37.18.56.12.29.15.31.15.26.19.27.26.34.15.16.27.27.22.19.24.19.36.24.22.12.29.14.35.14.29.09.34.08h.05s.3.06.3.06l.41.04h.31s.24,0,.24,0h.24s.24-.04.24-.04l.24-.04.1-.02.13-.03.1-.03.13-.04.1-.03.12-.04.1-.04.12-.05.1-.04.12-.05.09-.04.12-.05.21-.11.09-.05.11-.07.2-.13.19-.14.18-.14.18-.15.17-.16.15-.17.15-.18.15-.19.14-.21.15-.24c.09-.15.17-.3.24-.45l.08-.18.08-.22.03-.07.05-.15.03-.08.04-.15.05-.23.04-.24v-.05l.02-.14.02-.22c-.05-.08-.52-.1-1.15-.14l-1.38-.1v.16c-.03.19-.07.39-.13.57-.34.97-1.29,1.65-2.37,1.65-.08,0-.15,0-.22-.01h-.05s-.22-.04-.22-.04h-.02l-.2-.05h-.04s-.21-.08-.21-.08h-.07l-.18-.08-.22-.13-.21-.15c-.05-.04-.1-.09-.15-.14l-.15-.16-.15-.2-.07-.1-.07-.12-.09-.2-.09-.26-.05-.22-.04-.23-.02-.29v-8.04c0-.74.33-1.44.89-1.91.49-.42,1.13-.62,1.79-.52l.23.03.26.06c.26.08.52.18.65.31l.22.15.32.31.04.04.13.18.12.19.1.21.04.1.07.19.04.13.05.25c.02.11.03.22.03.33v.39h.17v-.09ZM81.61,28.06v-.14l-.02-.21v-.16s-.03-.13-.03-.13l-.02-.1-.02-.14-.02-.1-.03-.14-.03-.1-.02-.07-.04-.15v-.15l-.03-.1-.05-.13-.04-.1-.05-.1-.05-.13-.04-.07-.12-.23-.03-.05-.17-.3-.18-.27-.05-.07-.18-.23-.23-.26-.23-.23-.3-.26-.04-.03-.22-.15-.32-.21-.03-.02c-.19-.11-.4-.21-.6-.29l-.34-.14-.08-.02-.26-.07-.18-.04-.26-.05-.41-.05h-.14s-.21-.02-.21-.02h-.21c-.29,0-.57.04-.86.08h-.02s-.44.08-.44.08l-.36.08-.06.02h-.02l-.58.15-.26.08h-.03s-.26.09-.26.09l-.12.04-.04.02-.15.05v.15s0,.19,0,.19l.03.58v.12s0,.21,0,.21v.14s.01.13.01.13v.51s.16-.01.16-.01h.13l.21-.02.26-.02h.14s.9-.08.9-.08h.12l.3-.02.68-.04h.15s.39-.03.39-.03h-.03c.13-.01.26-.02.39-.02h.25s.29.05.29.05l.21.05.24.09c.06.03.12.06.18.09l.04.03c.05.03.1.07.15.1h.01c.05.04.09.08.13.13l.15.18.1.15.1.2.07.15c.07.18.12.36.15.55l.04.29.02.38v2.03l-.19-.06h-.04l-.19-.05-.11-.03-.07-.02-.12-.03-.13-.03h-.08s-.09-.03-.09-.03l-.1-.02h-.02l-.13-.02h-.14s-.14-.02-.14-.02h-.21s-.08-.01-.08-.01h-1.18s-.12.02-.12.02l-.13.02h-.09s-.04.01-.04.01l-.13.02-.12.02-.13.03-.1.03-.15.04h0l-.12.04-.18.05-.22.08-.1.04-.12.05-.09.04-.05.03-.07.03-.09.05-.1.06-.08.05-.1.06-.09.05-.18.12-.18.13-.07.05-.1.08-.22.22-.08.09-.02.02-.05.05-.27.34-.03.04h-.01l-.09.13-.11.19-.1.2-.04.08-.05.12-.1.23h0s-.01.04-.01.04l-.08.22v.04s-.06.18-.06.18l-.04.15-.02.06-.02.08-.03.13-.03.14-.02.11-.02.15v.1s-.03.18-.03.18v.36s-.01,1.58-.01,1.58v.29s.04.29.04.29v.1s.04.21.04.21l.08.36v.02s.08.26.08.26l.1.27.11.27.16.33.15.26.18.26.23.3.21.22.24.24.34.29.18.13.32.22.26.15.29.14.35.14.29.1.34.09.35.07.32.04c1.16.09,2.31-.23,3.26-.9,1.33-.96,2.13-2.5,2.13-4.14v-7.7l-.09-.15ZM74.5,37.14l-.07-.13-.09-.19-.08-.21-.07-.26-.04-.22v-.07s-.02-.23-.02-.23v-1.87c0-1.37,1.1-2.48,2.47-2.48,0,0,0,0,.01,0h2.47v4.35c0,.29-.05.52-.14.82-.31.92-1.12,1.57-2.09,1.68-.09.01-.17.02-.26.02-.09,0-.19,0-.28-.02l-.22-.03h-.02s-.2-.06-.2-.06l-.05-.02-.23-.08-.17-.08-.22-.13-.18-.13-.19-.17-.15-.16-.15-.21-.07-.1.02-.02ZM68.49,28.07v-.35s-.03-.18-.03-.18l-.02-.11-.03-.19-.02-.1-.03-.15-.03-.11-.04-.17h0s-.1-.35-.1-.35l-.02-.04-.07-.19-.02-.04-.1-.26-.03-.05-.14-.29-.17-.29-.09-.14-.03-.04-.1-.15-.24-.26-.21-.23-.24-.24-.27-.24-.26-.2-.32-.21-.27-.15-.34-.15-.3-.12-.32-.1h-.06s-.31-.07-.31-.07h-.05s-.35-.05-.35-.05h-.25s-.11-.01-.11-.01h-.24s-.05,0-.05,0h-.24s-.04.01-.04.01l-.3.02-.15.02.15-.02-.27.03h-.05s-.21.03-.21.03h-.1s-.12.03-.12.03l-.19.03-.14.03-.15.03-.29.07-.15.05v-7.67h-2.58v25.22h2.58v-15.08h2.68s.23.04.23.04l.26.05.25.08.21.09.21.12.22.15.05.04.12.1.05.05s.07.08.1.12l.17.22.03.04.09.14.04.06.07.14.07.19.04.1.04.14.05.27.02.31v12.6h2.51v-12.58l.02-.04ZM55.42,27.79v-.21s0-.02,0-.02l-.06-.12-.02-.18-.02-.12-.02-.15-.02-.1h0s-.03-.16-.03-.16l-.03-.12-.02-.07-.04-.14-.06-.21-.09-.27-.05-.12-.06-.14-.05-.13-.12-.24-.02-.04-.13-.23-.12-.19-.09-.13-.23-.3-.15-.19-.04-.05-.16-.18h0s-.16-.16-.16-.16l-.05-.05-.19-.15-.13-.1-.1-.08-.15-.1-.05-.04-.19-.12h-.01s-.14-.11-.14-.11l-.05-.04-.22-.12-.23-.1-.05-.02h-.01s0-.01,0-.01l-.21-.08-.06-.03-.19-.06-.26-.08-.08-.02-.19-.05-.07-.02-.4-.06-.35-.03h-.32s-.19,0-.19,0h-.1s-.15.02-.15.02h-.13s-.15.03-.15.03l-.11.02-.16.03h-.11l-.11.03h-.04s-.12.04-.12.04l-.15.05-.1.03-.13.05h-.03l-.16.06-.05.02-.04.02-.09.04-.13.06-.1.05-.12.07-.14.11-.16.1-.07.04-.1.06-.07.05-.05.04-.09.06-.12.09-.17.13-.04.03h0s-.03.03-.03.03l-.13.11-.03.03h0l-.18.18-.08.08-.09.09-.15.19-.07.08-.11.15-.09.12-.16.26-.02.03-.18.32-.11.22-.08.17-.14.37h-.04l-.1.36c-.11.43-.16.88-.16,1.33v7.92s.02.1.02.1l.03.26.05.39.02.09.05.25.13.52.09.24.04.09.14.32.14.29.13.24v.09l.15.24.18.24.06.08.13.15.22.24h.05l.21.2.23.19.08.06.16.12.32.21.27.14.09.04.19.08.1.04.21.07.37.1.31.05.12.02.21.03h.4s.03.01.03.01l.43-.02.43-.05,3.61-.55-.13-3.39h-4.02c-.12-.03-.18-.04-.23-.06l-.11.06-.21-.09-.14-.09-.13-.1-.12-.12-.13-.16-.07-.11-.06-.12v-.15l-.04-.14v-.05s.04-.14.04-.14v-1.88h5c.53,0,1.04-.21,1.42-.58s.58-.89.58-1.42v-3.87l-.04-.05ZM48.43,29.72v-1.87c0-.83.67-1.52,1.52-1.52h.13s.13.03.13.03h.05s.13.05.13.05l.24.1.15.1.1.08s.06.06.09.09l.03.03.09.1.08.1.06.1.07.13.04.09.05.22.03.28v1.87h-2.99ZM42.72,15.74v.04-.3l-.19-.11-.15-.05-.13-.04h-.03s-.01-.01-.01-.01l-.12-.03h-.05s-.09-.03-.09-.03h-.04s-.11-.03-.11-.03h-.06s-.1-.02-.1-.02l-.19-.03h-.02l-.11-.02-.18-.02h0-.12s-.2,0-.2,0h-.26s-.04,0-.04,0l-.22.02-.35.05-.15.03-.27.07-.31.09-.23.09-.23.1-.09.04-.21.1-.3.17-.07.05-.18.12-.29.22-.13.11-.09.07-.07.06-.21.2-.1.1-.09.09-.05.07-.14.15-.15.2-.07.09-.07.1-.1.14-.03.04-.03.04-.19.19-.02.04-.13.26-.04.08-.1.21-.05.14-.08.2-.03.07-.07.22-.09.31h-.02v.02s0-.02,0-.02l-.07.32v.03l-.05.29-.03.32-.02.41v24.13h.17l3.82-.22v-14.42h2.99v-3.99h-2.99v-5.41c0-.83.67-1.52,1.48-1.52h1.83l.1-3.89v.27ZM26.23,15.92h0s-3.99-.25-3.99-.25v25.04h3.99s0-24.79,0-24.79Z"/>
  <path class="cls-1" d="M33.05,19.16h0s-.01-.08-.01-.08l-.03-.15-.04-.14-.05-.15-.04-.12-.03-.05-.06-.13-.03-.05-.09-.14-.02-.03-.12-.15-.04-.05-.1-.1-.05-.05-.11-.1-.11-.09-.12-.08-.1-.06s-.06-.04-.09-.05l-.11-.08-.19-.07-.25-.07-.14-.03-.13-.02h-.22s-.23,0-.23,0l-.22.04-.21.05h-.01l-.21.07-.14.07c-.05.02-.09.05-.14.08l-.09.05h0s-.17.13-.17.13l-.1.09-.13.13-.08.09-.06.08-.07.09-.1.16v.02s-.06.09-.06.09l-.05.1-.04.09-.04.11-.03.1-.03.12-.02.1-.02.12v.31c-.01.07,0,.14,0,.21l.03.23v.02c.02.07.04.13.06.2l.02.05.05.15c.05.11.08.19.12.26l.08.14c.07.1.11.15.16.22l.11.12c.08.08.14.13.21.18l.14.1.02.02c.12.08.24.14.37.21h.02s.19.08.19.08l.24.06c.07.02.14.03.21.03.19.02.34.02.48,0l.22-.04.21-.05.21-.08.2-.09.19-.11.18-.13.15-.14.21-.23c.07-.09.13-.18.19-.27l.14-.28.04-.1.03-.1.03-.11.03-.1.02-.12v-.1s.02-.21.02-.21c0-.07,0-.14-.01-.22v-.02ZM28.77,22.6v18.1h3.99v-17.87l-3.99-.23Z"/>
</svg>