<?xml version="1.0" encoding="UTF-8"?>
<svg id="Layer_1" xmlns="http://www.w3.org/2000/svg" viewBox="0 0 150 60">
  <defs>
    <style>
      .cls-1 {
        fill: #231f20;
      }
    </style>
  </defs>
  <path class="cls-1" d="M22.48,27.82v11.21h-4.11v-11.21h-4.15v-3.59h12.41v3.59h-4.15ZM36.23,34.59h-6.56c-.02.97.74,1.77,1.71,1.79.06,0,.12,0,.17,0,1.01,0,2.01-.28,2.88-.78l1.49,2.48c-1.35.83-2.9,1.27-4.48,1.28-3.36,0-5.19-2.38-5.19-5.79,0-3.83,2.16-5.81,5.08-5.81s4.95,2.02,4.95,6.14c-.04.27-.04.5-.06.7h0ZM31.18,30.52c-.87,0-1.36.59-1.48,1.7h3.17c-.19-1.13-.57-1.7-1.69-1.7ZM43.31,39.3c-3.26,0-5.2-2.07-5.2-5.83,0-3.36,1.73-5.76,5.29-5.76,1.79-.06,3.45.92,4.27,2.52l-2.62,2.01c-.53-.96-.89-1.44-1.72-1.44s-1.45.98-1.45,2.74.53,2.67,1.57,2.67c.72,0,1.22-.4,1.93-1.45l2.41,1.88c-1.3,1.92-2.5,2.66-4.47,2.66h0ZM56.32,39.06v-6.31c0-1.45-.48-1.83-1.27-1.83s-1.3.38-1.3,1.78v6.36h-3.81v-13.91l3.81-1.52v5.06c.79-.65,1.78-.99,2.8-.98,2.44,0,3.6,1.64,3.6,4.55v6.81h-3.84ZM69.28,39.3c-4.41,0-6.73-3.26-6.73-7.65,0-4.77,2.8-7.65,6.73-7.65,3.64,0,5.08,1.56,6.1,4.36l-3.72,1.45c-.54-1.38-1.04-2.24-2.4-2.24-1.72,0-2.46,1.72-2.46,4.07s.72,4.06,2.5,4.06c1.29,0,1.84-.7,2.65-2.1l3.48,1.85c-1.05,2.43-3.5,3.96-6.14,3.83h0ZM84.82,32.14c-.43-.55-1.07-.89-1.77-.93-.93,0-1.5.45-1.5,1.81v6.05h-3.81v-11.09h3.81v.81c1.08-1.14,2.82-1.38,4.17-.57l-.9,3.92ZM93.89,39.07v-.74c-.78.65-1.77,1-2.78.98-2.44,0-3.6-1.64-3.6-4.56v-6.76h3.82v6.28c0,1.44.49,1.82,1.28,1.82s1.27-.38,1.27-1.77v-6.32h3.83v11.12l-3.82-.03ZM106.85,39.07v-6.31c0-1.45-.49-1.83-1.27-1.83s-1.3.38-1.3,1.78v6.36h-3.81v-11.09h3.81v.74c.79-.65,1.78-.99,2.8-.98,2.44,0,3.6,1.64,3.6,4.55v6.81l-3.84-.03ZM118.12,39.3c-3.26,0-5.21-2.07-5.21-5.83,0-3.36,1.74-5.76,5.29-5.76,1.79-.06,3.46.92,4.28,2.51l-2.62,1.98c-.54-.96-.9-1.44-1.72-1.44s-1.47.98-1.47,2.74.53,2.67,1.57,2.67c.72,0,1.23-.4,1.93-1.45l2.41,1.88c-1.29,1.95-2.5,2.69-4.46,2.69h0ZM131.12,39.07v-6.31c0-1.45-.48-1.83-1.27-1.83s-1.29.38-1.29,1.78v6.36h-3.81v-13.91l3.81-1.52v5.06c.78-.65,1.77-.99,2.79-.98,2.44,0,3.6,1.64,3.6,4.55v6.81h-3.83Z"/>
</svg>