<?xml version="1.0" encoding="UTF-8"?>
<svg id="Layer_1" xmlns="http://www.w3.org/2000/svg" viewBox="0 0 150 60">
  <defs>
    <style>
      .cls-1 {
        fill: #231f20;
      }
    </style>
  </defs>
  <path class="cls-1" d="M88.37,41.4h13.67v-2.79h-10.39v-5.39h9.44v-2.63h-9.44v-4.82h10.2v-2.79h-13.48v18.42ZM112.08,36.6c-.13.54-.36,1.06-.66,1.53-.29.45-.69.82-1.15,1.1-.47.28-1.02.42-1.67.42s-1.17-.13-1.63-.39c-.45-.26-.84-.61-1.14-1.04-.31-.45-.53-.96-.66-1.49-.14-.55-.22-1.12-.22-1.7,0-.61.06-1.21.19-1.79.12-.56.33-1.09.64-1.57.29-.46.69-.84,1.15-1.12.47-.29,1.04-.43,1.72-.43,1.12,0,2.01.42,2.67,1.25.66.84.98,2,.98,3.5,0,.59-.07,1.17-.22,1.74ZM112.2,22.98v6.89h-.05c-.22-.36-.5-.69-.83-.95-.33-.27-.7-.49-1.08-.67-.39-.17-.8-.3-1.23-.38-.41-.08-.83-.12-1.25-.12-.72,0-1.44.14-2.11.4-.69.27-1.3.69-1.84,1.27s-.97,1.31-1.29,2.19c-.32.89-.48,1.94-.48,3.16,0,1.01.13,1.95.38,2.83.26.88.64,1.64,1.15,2.28.51.64,1.15,1.15,1.93,1.53.77.37,1.68.56,2.72.56.82,0,1.63-.17,2.37-.51.75-.34,1.32-.9,1.71-1.68h.05v1.83h2.76v-18.65h-2.91Z"/>
  <path class="cls-1" d="M68.17,22.98h9.42c6.21,0,8.4,4.54,8.4,9.18,0,5.65-3.03,9.24-9.53,9.24h-8.3v-18.42ZM73.91,36.68h2.25c3.58,0,4.1-2.86,4.1-4.59,0-1.16-.37-4.39-4.52-4.39h-1.83v8.97ZM52.12,22.98v18.42h15.45v-4.72h-9.8v-2.29h9.8v-4.38h-9.8v-2.3h9.8v-4.72h-15.45ZM34.89,22.98v4.72h5.17v13.7h5.69v-13.7h5.18v-4.72h-16.04Z"/>
</svg>