<?xml version="1.0" encoding="UTF-8"?>
<svg id="Layer_1" xmlns="http://www.w3.org/2000/svg" viewBox="0 0 150 60">
  <defs>
    <style>
      .cls-1 {
        fill: #231f20;
      }
    </style>
  </defs>
  <path class="cls-1" d="M54,31.05l1.67-.87v-13.16h-1.27l-3.09,4.1h-.35l.19-4.61h13.4l.19,4.62h-.37l-3.03-4.1h-1.3v13.12l1.68.89v.45h-7.74v-.44M66.06,30.47v-14.59l-1.3-.52v-.27l4.7-.87h.51v6.91l.11-.11c1.12-.96,2.55-1.49,4.03-1.49,2.06,0,2.97,1.16,2.97,3.33v7.59l1.1.6v.42h-6.14v-.42l1.1-.6v-7.62c0-1.19-.52-1.67-1.49-1.67-.59-.01-1.16.18-1.63.54v8.77l1.08.6v.4h-6.14v-.4l1.11-.62M81.52,25.97c.13,2.4,1.21,4.27,3.77,4.27,1.24,0,2.12-.57,2.93-1.01v.48c-1.11,1.35-2.77,2.12-4.52,2.1-3.96,0-5.99-2.2-5.99-6.02s2.22-6.05,5.8-6.05c3.36,0,5.11,1.68,5.11,6.12v.12h-7.1M81.46,25.42l3.49-.21c0-2.97-.51-4.97-1.54-4.97-1.09,0-1.96,2.3-1.96,5.18h0M32.19,37.32c0-6.33,4.2-8.6,8.87-8.6,1.99,0,3.86.33,4.9.75l.09,4.43h-.45l-2.74-4.28c-.55-.22-1.14-.32-1.74-.28-2.49,0-3.76,2.87-3.72,7.58.05,5.63,1.02,8.2,3.31,8.2.47.02.93-.06,1.37-.23v-6.03l-1.51-.86v-.51h7.28v.54l-1.48.83v5.96c-1.77.63-3.63.94-5.5.93-5.31,0-8.69-2.46-8.69-8.42M47.19,34.36v-.37l4.88-.86.54.05v9.65c0,1.16.56,1.52,1.5,1.52.62,0,1.2-.27,1.59-.75v-8.65l-1.34-.58v-.38l4.88-.86.49.05v11.06l1.32.55v.35l-4.79.58-.49-.05v-1.45h-.13c-.98.96-2.3,1.51-3.67,1.54-2.35,0-3.42-1.39-3.42-3.49v-7.33l-1.35-.58M77.87,33.1l.4.05v3.58h.11c.52-2.6,1.68-3.58,3.09-3.58.2,0,.41.02.6.09v3.63c-.33-.07-.67-.1-1.01-.09-.92-.02-1.83.16-2.66.53v7.06l1.11.62v.48h-6.35v-.48l1.15-.62v-9.62l-1.34-.4v-.33l4.9-.9M90.15,33.41v-3.77l-1.34-.47v-.3l4.94-.91.47.07v16.17l1.36.49v.42l-4.88.65-.38-.05v-1.33h-.11c-.84.89-2.03,1.39-3.25,1.36-2.66,0-4.61-2.03-4.61-6.18,0-4.38,2.26-6.54,5.68-6.54.73-.04,1.45.09,2.12.37M90.15,43.77v-9.68c-.37-.32-.86-.47-1.35-.42-1.32.05-2.14,2.04-2.14,5.6,0,3.2.58,4.99,2.35,4.92.42,0,.82-.15,1.14-.42M100.94,33.11l.42.05v11.23l1.12.62v.48h-6.35v-.48l1.14-.62v-9.47l-1.36-.54v-.38l5.03-.9M101.39,30.07c-.04,1.16-1,2.08-2.17,2.06-1.15.05-2.13-.85-2.17-2.01-.02-.41.09-.81.29-1.15.39-.66,1.11-1.05,1.88-1.02,1.18-.02,2.15.93,2.17,2.11,0,0,0,0,0,0h0M115.63,44.37v-9.55l-1.34-.47v-.46l4.88-.91.49.05v1.43h.13c1.16-.99,2.63-1.54,4.16-1.54,2.13,0,3.06,1.01,3.06,3.25v8.19l1.14.65v.47h-6.36v-.48l1.14-.62v-8.01c0-1.23-.54-1.72-1.54-1.72-.6-.02-1.19.17-1.68.53v9.19l1.12.62v.49h-6.36v-.48l1.14-.62M108.72,38.37v-1.6c0-2.41-.53-3.21-2.02-3.21-.17,0-.34.02-.5.05l-2.66,3.6h-.38v-3.32c1.44-.49,2.94-.75,4.46-.77,3.25,0,5.14.9,5.14,3.63v7.81l1.16.31v.31c-.74.38-1.56.57-2.4.55-1.6,0-2.37-.53-2.73-1.41h-.12c-.68.92-1.65,1.45-3.16,1.45-1.93,0-3.25-1.21-3.25-3.29s1.25-3.12,3.8-3.6l2.64-.49M108.71,43.77v-4.83l-.81.07c-1.28.11-1.73.92-1.73,2.73,0,1.95.65,2.46,1.54,2.46.39.04.76-.12,1.01-.42M67.51,38.37v-1.6c0-2.41-.53-3.21-2.02-3.21-.17,0-.34.02-.5.05l-2.66,3.59h-.37v-3.32c1.44-.49,2.94-.75,4.46-.77,3.25,0,5.14.9,5.14,3.63v7.81l1.16.31v.31c-.74.38-1.56.57-2.4.55-1.6,0-2.37-.53-2.73-1.41h-.11c-.68.92-1.65,1.45-3.16,1.45-1.93,0-3.25-1.21-3.25-3.29s1.25-3.12,3.8-3.6l2.64-.49M67.51,43.77v-4.83l-.81.07c-1.28.11-1.73.92-1.73,2.73,0,1.95.65,2.46,1.54,2.46.39.04.76-.12,1.01-.42"/>
</svg>