<svg width="51" height="48" viewBox="0 0 51 48" fill="none" xmlns="http://www.w3.org/2000/svg">
<path d="M9.38333 16.0053C9.38333 13.349 9.95789 10.5778 12.2738 10.264C13.2595 8.58005 16.066 8.69496 18.0593 9.464C20.0438 10.2242 22.3907 11.8551 21.7189 15.9611C21.5421 17.0483 20.6405 18.1135 20.2869 18.0074L20.0968 15.4484C17.6792 15.3909 15.5622 14.6174 13.1666 13.0396C10.8551 13.1236 10.9789 15.7975 10.6076 17.8527C10.3159 17.8616 9.63083 17.3931 9.37891 16.0097L9.38333 16.0053Z" fill="#B5D44F"/>
<path d="M8.12165 28.0578C7.92718 28.0578 7.73712 27.9739 7.60453 27.8103C7.3747 27.523 7.42332 27.1076 7.70619 26.8778C8.4929 26.2457 9.49177 25.7198 10.8531 25.2292C12.3293 24.6944 12.8508 24.3452 12.8508 23.4657C12.8508 23.0989 13.1469 22.8027 13.5138 22.8027C13.8806 22.8027 14.1767 23.0989 14.1767 23.4657C14.1767 25.4325 12.5149 26.0336 11.3039 26.4756C10.1017 26.9131 9.19565 27.3816 8.5371 27.912C8.41335 28.0092 8.2675 28.0578 8.12165 28.0578Z" fill="#252D32"/>
<path d="M15.6949 24.4334C13.2419 24.4334 10.3867 21.9628 10.3867 18.7761V15.9121C10.3867 14.1752 11.5845 12.3145 13.3701 12.3145C13.5115 12.3145 13.6485 12.3587 13.7634 12.4426C13.7988 12.4691 17.4451 15.1122 20.8218 14.6437C21.1842 14.5951 21.5201 14.847 21.5687 15.2094C21.6173 15.5718 21.3654 15.9077 21.003 15.9563C20.9632 15.9608 20.9279 15.9652 20.8881 15.9696C20.9544 16.0713 20.9942 16.195 20.9942 16.3276V18.7717C20.9942 21.9584 18.1478 24.429 15.6949 24.429V24.4334ZM13.1844 13.6536C12.3314 13.7995 11.7126 14.9089 11.7126 15.9121V18.7761C11.7126 21.1098 13.9049 23.1075 15.6949 23.1075C17.4849 23.1075 19.6682 21.1098 19.6682 18.7761V16.332C19.6682 16.2215 19.6947 16.1155 19.7434 16.0226C16.7335 15.9298 13.9535 14.1796 13.18 13.6536H13.1844Z" fill="#252D32"/>
<path d="M23.0663 27.9252C22.9293 27.9252 22.7879 27.881 22.6685 27.7926C22.0232 27.3109 21.1702 26.8778 20.0564 26.4756C18.8454 26.0336 17.1836 25.4325 17.1836 23.4657C17.1836 23.0989 17.4797 22.8027 17.8466 22.8027C18.2134 22.8027 18.5095 23.0989 18.5095 23.4657C18.5095 24.3452 19.0355 24.6944 20.5073 25.2292C21.7448 25.68 22.7083 26.1706 23.4597 26.7319C23.7514 26.9529 23.8132 27.3684 23.5923 27.6601C23.4641 27.8324 23.2608 27.9252 23.0619 27.9252H23.0663Z" fill="#252D32"/>
<path d="M36.9154 41.9181C36.7298 41.9181 36.5442 41.8385 36.4116 41.6883C36.1729 41.4098 36.2039 40.9944 36.4779 40.7513C38.4403 39.0541 40.6811 36.8221 40.88 36.1724C41.2336 35.0277 41.2203 31.8322 40.8535 28.0312C40.5573 24.9815 38.8734 22.944 35.6956 21.7993C34.3387 21.3087 32.4824 20.6413 32.4824 18.4757V18.1C32.4824 17.7331 32.7785 17.437 33.1454 17.437C33.5122 17.437 33.8084 17.7331 33.8084 18.1V18.4757C33.8084 19.5364 34.4978 19.9563 36.1464 20.5529C39.8016 21.87 41.8302 24.3451 42.175 27.9074C42.5683 31.9913 42.5595 35.231 42.1484 36.5658C41.733 37.9138 38.0734 41.127 37.3442 41.759C37.2204 41.8695 37.0657 41.9225 36.911 41.9225L36.9154 41.9181Z" fill="#252D32"/>
<path d="M30.7556 19.4788C28.3999 19.4788 25.4121 16.5971 25.4121 13.353V11.3862C25.4121 11.1078 25.5845 10.8603 25.8453 10.763C25.8762 10.7542 28.7711 9.67136 30.2164 7.60733C30.3357 7.43496 30.5302 7.32888 30.7423 7.32446C30.9501 7.32888 31.1534 7.41286 31.2816 7.58081C32.7401 9.45479 35.7455 10.763 35.7765 10.7763C36.0284 10.8868 36.1875 11.1387 36.1787 11.4127L36.0991 13.3663C36.0903 16.6016 33.1069 19.4744 30.7556 19.4744V19.4788ZM26.738 11.8326V13.353C26.738 15.7795 29.0407 18.1529 30.7556 18.1529C32.4705 18.1529 34.7732 15.7795 34.7732 13.353C34.7732 13.3442 34.7732 13.3353 34.7732 13.3265L34.8351 11.8017C34.0086 11.4039 32.1346 10.4095 30.7865 9.02165C29.4385 10.5376 27.5778 11.4658 26.738 11.8282V11.8326Z" fill="#252D32"/>
<path d="M21.4486 24.2435C21.2895 24.2435 21.1348 24.186 21.0066 24.0755C20.7326 23.8324 20.7105 23.4126 20.9536 23.1385C22.1513 21.7993 23.7424 21.1054 25.2849 20.5486C26.9335 19.9519 27.623 19.532 27.623 18.4713V18.0956C27.623 17.7287 27.9191 17.4326 28.286 17.4326C28.6528 17.4326 28.9489 17.7287 28.9489 18.0956V18.4713C28.9489 20.6325 27.0926 21.3043 25.7358 21.7949C24.3568 22.2899 22.9469 22.9043 21.9436 24.0225C21.811 24.1683 21.6298 24.2435 21.4486 24.2435Z" fill="#252D32"/>
<path d="M30.748 25.4014C28.4365 25.4014 26.368 23.9385 25.599 21.7595C25.4752 21.4148 25.6608 21.0347 26.0056 20.9154C26.3547 20.796 26.7304 20.9772 26.8498 21.322C27.4287 22.9705 28.9978 24.0799 30.748 24.0799C32.4982 24.0799 34.0628 22.9705 34.6462 21.322C34.77 20.9772 35.1457 20.796 35.4904 20.9154C35.8351 21.0391 36.0164 21.4148 35.897 21.7595C35.128 23.9385 33.0595 25.4014 30.748 25.4014Z" fill="#252D32"/>
<path d="M40.5379 20.4731C40.2462 20.4731 39.9766 20.2786 39.8971 19.9825C39.6673 19.1251 38.9822 18.3958 38.1027 18.0776C37.8861 17.998 37.727 17.8124 37.6784 17.587C37.6297 17.3616 37.7049 17.1273 37.8728 16.9682C38.4386 16.4379 38.7037 15.6777 38.5623 14.9837L38.4651 14.4976C38.3457 13.8965 38.1955 13.1451 38.0629 12.6457C37.7844 11.5849 37.8817 10.922 37.9833 10.2811C38.0629 9.75517 38.1469 9.20712 38.0319 8.3099C37.9524 7.68672 37.5458 5.54755 35.7292 4.20394C34.5226 3.30673 32.9581 2.98409 31.0885 3.24043C31.0045 3.27579 30.9161 3.29789 30.8189 3.29789H30.6642C30.567 3.29789 30.4786 3.27579 30.3946 3.24043C28.5206 2.98409 26.9604 3.30673 25.7538 4.20394C23.9373 5.54755 23.5307 7.68672 23.4511 8.3099C23.3362 9.20712 23.46 9.82146 23.5881 10.4712C23.7384 11.2225 23.8975 12.0004 23.6147 13.07C23.5219 13.4236 23.1594 13.6357 22.8059 13.5429C22.4523 13.4501 22.2401 13.0877 22.3329 12.7341C22.5362 11.9651 22.4258 11.4214 22.2887 10.7364C22.1473 10.0425 21.9882 9.25573 22.134 8.14195C22.2313 7.38617 22.7263 4.79619 24.9627 3.13878C26.4964 2.0029 28.4411 1.6007 30.7438 1.94986C33.0464 1.6007 34.9867 1.99848 36.5248 3.13878C38.7612 4.79619 39.2562 7.38617 39.3535 8.14195C39.4949 9.2248 39.3932 9.8966 39.3004 10.4844C39.2076 11.0811 39.1413 11.5142 39.3535 12.3098C39.4949 12.849 39.6496 13.6225 39.7733 14.2456L39.8706 14.7274C40.0429 15.576 39.8573 16.4776 39.3755 17.2334C40.2595 17.7903 40.9225 18.661 41.1832 19.6466C41.276 20.0002 41.0683 20.3626 40.7147 20.4598C40.6573 20.4775 40.5998 20.4819 40.5424 20.4819L40.5379 20.4731Z" fill="#252D32"/>
<path d="M8.1783 37.4144V30.0378L19.4973 31.5803H23.6475V46.6075H20.0586L7.73633 44.5833V40.4199H9.17718C10.4854 40.548 10.923 37.8122 9.61473 37.3791L8.18273 37.4144H8.1783Z" fill="#FB954C"/>
<path d="M35.1384 37.0169L35.0059 30.0867L23.2051 31.6247V46.6387L35.1384 44.6542V41.7239L33.2158 41.6311C32.3231 41.6311 32.1772 39.4698 32.8313 38.5505C33.1451 38.1085 33.9407 38.3074 34.3694 38.166C35.1384 38.166 35.523 37.397 35.1384 37.0124V37.0169Z" fill="#FB954C"/>
<path d="M22.9814 47.4915H19.8876C19.5207 47.4915 19.2246 47.1953 19.2246 46.8285C19.2246 46.4617 19.5207 46.1655 19.8876 46.1655H22.9814C23.3482 46.1655 23.6444 46.4617 23.6444 46.8285C23.6444 47.1953 23.3482 47.4915 22.9814 47.4915Z" fill="#252D32"/>
<path d="M19.8893 47.4961C19.8539 47.4961 19.8186 47.4961 19.7832 47.4872L7.84986 45.5646C7.52722 45.5116 7.29297 45.2376 7.29297 44.9105V42.4089C7.29297 42.0421 7.58909 41.746 7.95593 41.746C8.32277 41.746 8.6189 42.0421 8.6189 42.4089V44.3448L19.2263 46.0552V32.0181L8.6189 30.6479V36.2168C8.6189 36.5837 8.32277 36.8798 7.95593 36.8798C7.58909 36.8798 7.29297 36.5837 7.29297 36.2168V29.8921C7.29297 29.7021 7.37695 29.5209 7.51838 29.3927C7.65981 29.269 7.84986 29.2071 8.03991 29.2336L19.9733 30.7717C20.3048 30.8159 20.5523 31.0943 20.5523 31.4302V46.8287C20.5523 47.0231 20.4683 47.2088 20.318 47.3325C20.1987 47.4342 20.044 47.4916 19.8893 47.4916V47.4961Z" fill="#252D32"/>
<path d="M23.4247 47.4958C23.27 47.4958 23.1153 47.4428 22.996 47.3367C22.8501 47.2129 22.7617 47.0273 22.7617 46.8328V31.4344C22.7617 31.1029 23.0092 30.82 23.3407 30.7758L35.2741 29.2377C35.4641 29.2112 35.6542 29.2731 35.7956 29.3969C35.937 29.525 36.021 29.7062 36.021 29.8963V36.221C36.021 36.5878 35.7249 36.8839 35.358 36.8839C34.9912 36.8839 34.6951 36.5878 34.6951 36.221V30.6521L24.0876 32.0222V46.0594L34.6951 44.3489V42.4131C34.6951 42.0462 34.9912 41.7501 35.358 41.7501C35.7249 41.7501 36.021 42.0462 36.021 42.4131V44.9147C36.021 45.2417 35.7868 45.5157 35.4641 45.5688L23.5308 47.4914C23.4954 47.4958 23.46 47.5002 23.4247 47.5002V47.4958Z" fill="#252D32"/>
<path d="M9.08809 40.9813C9.05273 40.9813 9.01737 40.9813 8.97759 40.9813L6.99312 40.8443C6.15779 40.7603 5.49482 40.1681 5.33129 39.3637L5.09704 38.2366C4.96445 37.746 5.01748 37.2245 5.24289 36.7693C5.54343 36.1682 6.08706 35.766 6.73677 35.6555L7.74447 35.4875C8.09806 35.4301 8.44722 35.6687 8.5091 36.0312C8.57098 36.3936 8.32346 36.7339 7.96546 36.7958L6.95776 36.9637C6.73235 36.9991 6.53788 37.1449 6.4318 37.3615C6.34783 37.5295 6.33016 37.7195 6.38319 37.8963C6.38319 37.914 6.39203 37.9272 6.39645 37.9449L6.63512 39.0941C6.68374 39.3283 6.87378 39.5007 7.11245 39.5228L9.07483 39.6598C9.19858 39.6642 9.32233 39.5802 9.34885 39.4521L9.53449 38.5239C9.55659 38.4178 9.50797 38.3427 9.48145 38.3073C9.45051 38.272 9.38863 38.2145 9.28256 38.2145H8.40744C8.0406 38.2145 7.74447 37.9184 7.74447 37.5516C7.74447 37.1847 8.0406 36.8886 8.40744 36.8886H9.28256C9.75989 36.8886 10.2063 37.1007 10.5068 37.4676C10.8074 37.8388 10.9267 38.3162 10.8339 38.7847L10.6483 39.7128C10.498 40.4553 9.84387 40.9857 9.09251 40.9857L9.08809 40.9813Z" fill="#252D32"/>
<path d="M33.7335 42.3646C32.907 42.3646 32.1822 41.7768 32.0142 40.9547L31.7932 39.8586C31.6916 39.3415 31.8242 38.8112 32.1556 38.4045C32.4915 37.9979 32.9821 37.7637 33.5125 37.7637H34.476C34.8429 37.7637 35.139 38.0598 35.139 38.4266C35.139 38.7935 34.8429 39.0896 34.476 39.0896H33.5125C33.3357 39.0896 33.2297 39.1868 33.181 39.2443C33.1324 39.3018 33.0573 39.4255 33.0926 39.5979L33.3136 40.694C33.3534 40.9061 33.5435 41.0431 33.76 41.0343L36.1025 40.8708C36.4163 40.8398 36.6859 40.5967 36.7522 40.2697L37.0306 38.9128C37.0306 38.9128 37.0395 38.8819 37.0439 38.8642C37.1146 38.6211 37.0881 38.3648 36.9776 38.1438C36.8318 37.8565 36.5754 37.6576 36.2704 37.609C36.2351 37.6046 36.2041 37.5957 36.1688 37.5825L34.8738 37.1493C34.5246 37.0344 34.339 36.6587 34.4539 36.3096C34.5688 35.9604 34.9445 35.7748 35.2937 35.8897L36.5401 36.3052C37.2428 36.4377 37.835 36.8886 38.1621 37.5471C38.4185 38.0598 38.4759 38.6476 38.3256 39.2001L38.0516 40.5349C37.866 41.4365 37.1279 42.0995 36.2174 42.1923L33.8573 42.3558C33.8175 42.3558 33.7733 42.3558 33.7335 42.3558V42.3646Z" fill="#252D32"/>
<path d="M22.9814 32.0222H19.8876C19.5207 32.0222 19.2246 31.7261 19.2246 31.3593C19.2246 30.9924 19.5207 30.6963 19.8876 30.6963H22.9814C23.3482 30.6963 23.6444 30.9924 23.6444 31.3593C23.6444 31.7261 23.3482 32.0222 22.9814 32.0222Z" fill="#252D32"/>
<path d="M15.6826 27.2398C14.3036 27.2398 12.9202 26.8111 11.8462 25.9492C11.559 25.7194 11.5148 25.3039 11.7446 25.0167C11.9744 24.7294 12.3899 24.6852 12.6772 24.915C14.339 26.2409 17.035 26.2409 18.6969 24.915C18.9842 24.6852 19.3996 24.7338 19.6295 25.0167C19.8593 25.3039 19.8107 25.7194 19.5278 25.9492C18.4538 26.8111 17.0704 27.2398 15.6914 27.2398H15.6826Z" fill="#252D32"/>
<path d="M38.1804 46.625C37.9594 46.625 37.7428 46.5145 37.619 46.3112C37.4246 46.0018 37.5174 45.5908 37.8312 45.3963C44.863 40.9987 49.0618 33.4276 49.0618 25.145C49.0618 18.4711 46.2376 12.0536 41.314 7.54104C41.0444 7.29354 41.0267 6.87366 41.2742 6.60405C41.5217 6.33445 41.9416 6.31677 42.2112 6.56427C47.4088 11.3244 50.3877 18.0999 50.3877 25.145C50.3877 33.8873 45.9591 41.8782 38.5339 46.519C38.4234 46.5897 38.3041 46.6206 38.1848 46.6206L38.1804 46.625Z" fill="#B5D44F"/>
<path d="M3.30156 36.8886C3.05848 36.8886 2.82865 36.756 2.70932 36.5262C0.910474 32.9815 0 29.154 0 25.1497C0 11.8374 10.3997 0.787948 23.6811 0.00122944C24.0479 -0.0208694 24.3617 0.257576 24.3838 0.624416C24.4059 0.991257 24.1275 1.30506 23.7607 1.32716C11.182 2.0741 1.33035 12.5401 1.33035 25.1497C1.33035 28.9419 2.1922 32.5661 3.89381 35.9251C4.05734 36.2521 3.92917 36.6499 3.60211 36.8179C3.50487 36.8665 3.40322 36.8886 3.30156 36.8886Z" fill="#B5D44F"/>
</svg>
