<svg width="51" height="47" viewBox="0 0 51 47" fill="none" xmlns="http://www.w3.org/2000/svg">
<path d="M4.75452 40.0478C3.20026 39.6243 1.03175 40.5131 0.566406 41.4438V5.14685C0.566406 2.83408 2.44175 0.95874 4.75452 0.95874V40.0478Z" fill="#FB954C"/>
<path d="M0.799581 42.8118C0.413344 42.8118 0.101562 42.5 0.101562 42.1138V5.00712C0.101562 2.24297 2.34919 0 5.10869 0H39.8886C40.2748 0 40.5866 0.311782 40.5866 0.698018V30.4802C40.5866 30.8664 40.2748 31.1782 39.8886 31.1782C39.5024 31.1782 39.1906 30.8664 39.1906 30.4802V1.39604H5.10869C3.11701 1.39604 1.4976 3.01544 1.4976 5.00712V42.1138C1.4976 42.5 1.18582 42.8118 0.799581 42.8118Z" fill="#252D32"/>
<path d="M19.8758 47H3.95632C2.70454 47 1.51327 46.395 0.768713 45.3852C0.0148531 44.3568 -0.199201 43.0492 0.191689 41.7928C0.689609 40.2013 2.24387 39.0891 3.97961 39.0891H19.8711C20.2574 39.0891 20.5692 39.4009 20.5692 39.7871C20.5692 40.1734 20.2574 40.4851 19.8711 40.4851H3.97961C2.84882 40.4851 1.83901 41.1925 1.52723 42.2116C1.27129 43.0399 1.40158 43.8961 1.89484 44.5616C2.37415 45.2177 3.14662 45.604 3.95632 45.604H19.8758C20.262 45.604 20.5738 45.9157 20.5738 46.302C20.5738 46.6882 20.262 47 19.8758 47Z" fill="#252D32"/>
<path d="M4.52224 39.5544C4.136 39.5544 3.82422 39.2426 3.82422 38.8564V1.16335C3.82422 0.777114 4.136 0.465332 4.52224 0.465332C4.90847 0.465332 5.22026 0.777114 5.22026 1.16335V38.8564C5.22026 39.2426 4.90847 39.5544 4.52224 39.5544Z" fill="#252D32"/>
<path d="M22.4397 29.7823C27.5798 29.7823 31.7466 25.6154 31.7466 20.4754C31.7466 15.3353 27.5798 11.1685 22.4397 11.1685C17.2997 11.1685 13.1328 15.3353 13.1328 20.4754C13.1328 25.6154 17.2997 29.7823 22.4397 29.7823Z" fill="#B5D44F"/>
<path d="M24.1882 41.8765H36.9759C37.4282 41.8765 37.7949 41.5098 37.7949 41.0575V38.9727C37.7949 38.5204 37.4282 38.1537 36.9759 38.1537H24.1882C23.7359 38.1537 23.3692 38.5204 23.3692 38.9727V41.0575C23.3692 41.5098 23.7359 41.8765 24.1882 41.8765Z" fill="#B5D44F"/>
<path d="M27.446 46.0647H40.2337C40.686 46.0647 41.0527 45.698 41.0527 45.2457V43.1609C41.0527 42.7086 40.686 42.3419 40.2337 42.3419H27.446C26.9937 42.3419 26.627 42.7086 26.627 43.1609V45.2457C26.627 45.698 26.9937 46.0647 27.446 46.0647Z" fill="#B5D44F"/>
<path d="M22.4393 33.0396C15.5103 33.0396 9.875 27.4042 9.875 20.4752C9.875 13.5462 15.5103 7.91089 22.4393 7.91089C29.3683 7.91089 35.0037 13.5462 35.0037 20.4752C35.0037 27.4042 29.3683 33.0396 22.4393 33.0396ZM22.4393 9.30693C16.2828 9.30693 11.271 14.3187 11.271 20.4752C11.271 26.6317 16.2828 31.6435 22.4393 31.6435C28.5959 31.6435 33.6076 26.6317 33.6076 20.4752C33.6076 14.3187 28.5959 9.30693 22.4393 9.30693Z" fill="#252D32"/>
<path d="M22.6707 16.287C22.2844 16.287 21.9727 15.9752 21.9727 15.5889V13.7276C21.9727 13.3413 22.2844 13.0295 22.6707 13.0295C23.0569 13.0295 23.3687 13.3413 23.3687 13.7276V15.5889C23.3687 15.9752 23.0569 16.287 22.6707 16.287Z" fill="white"/>
<path d="M22.7215 27.8137C22.3352 27.8137 22.0234 27.502 22.0234 27.1157V25.5056C22.0234 25.1194 22.3352 24.8076 22.7215 24.8076C23.1077 24.8076 23.4195 25.1194 23.4195 25.5056V27.1157C23.4195 27.502 23.1077 27.8137 22.7215 27.8137Z" fill="white"/>
<path d="M22.8471 25.9802C21.0183 25.9802 19.8177 24.7516 19.4873 24.3701C19.236 24.0769 19.2686 23.6348 19.5617 23.3835C19.8549 23.1322 20.297 23.1648 20.5483 23.458C20.7158 23.6534 21.6279 24.6074 22.9448 24.5841C23.5405 24.5609 24.7457 24.3049 25.0528 23.4766C25.2389 22.9833 25.0993 22.2993 24.7224 21.8153C24.271 21.2383 23.5777 21.1219 22.7726 20.987C21.8373 20.8288 20.7763 20.6566 20.0922 19.6515C19.5338 18.8325 19.4314 17.6831 19.8316 16.8035C20.4412 15.468 22.042 14.9887 23.2612 15.119C24.7271 15.2679 25.6112 16.2544 25.923 16.6733C26.1557 16.9804 26.0905 17.4178 25.7834 17.6505C25.4763 17.8831 25.0389 17.818 24.8062 17.5109C24.648 17.3015 24.0616 16.6034 23.1216 16.5104C22.3631 16.4359 21.4045 16.7151 21.0974 17.3852C20.8926 17.8366 20.9531 18.4462 21.2416 18.8697C21.572 19.3536 22.1258 19.47 22.996 19.6142C23.9034 19.7631 25.0342 19.9539 25.8206 20.9591C26.5047 21.8339 26.7141 23.0159 26.3604 23.9699C25.8299 25.3845 24.2152 25.9383 22.996 25.9848C22.9448 25.9848 22.8983 25.9848 22.8517 25.9848L22.8471 25.9802Z" fill="white"/>
<path d="M48.2642 46.9996H23.1355C22.7493 46.9996 22.4375 46.6878 22.4375 46.3015C22.4375 45.9153 22.7493 45.6035 23.1355 45.6035H48.2642C48.6504 45.6035 48.9622 45.9153 48.9622 46.3015C48.9622 46.6878 48.6504 46.9996 48.2642 46.9996Z" fill="#252D32"/>
<path d="M41.3061 42.8117H24.5024C23.3623 42.8117 22.4316 41.881 22.4316 40.7409V39.2937C22.4316 38.1536 23.3623 37.2229 24.5024 37.2229H41.3061C42.4462 37.2229 43.3769 38.1536 43.3769 39.2937V40.7409C43.3769 41.881 42.4462 42.8117 41.3061 42.8117ZM24.5071 38.6236C24.1348 38.6236 23.8323 38.926 23.8323 39.2983V40.7456C23.8323 41.1178 24.1348 41.4203 24.5071 41.4203H41.3107C41.683 41.4203 41.9855 41.1178 41.9855 40.7456V39.2983C41.9855 38.926 41.683 38.6236 41.3107 38.6236H24.5071Z" fill="#252D32"/>
<path d="M31.1667 37.6885H43.9544C44.4068 37.6885 44.7734 37.3218 44.7734 36.8695V34.7847C44.7734 34.3324 44.4068 33.9657 43.9544 33.9657H31.1667C30.7144 33.9657 30.3477 34.3324 30.3477 34.7847V36.8695C30.3477 37.3218 30.7144 37.6885 31.1667 37.6885Z" fill="#B5D44F"/>
<path d="M48.2865 38.6237H31.4829C30.3428 38.6237 29.4121 37.693 29.4121 36.5529V35.1057C29.4121 33.9656 30.3428 33.0349 31.4829 33.0349H48.2865C49.4266 33.0349 50.3573 33.9656 50.3573 35.1057V36.5529C50.3573 37.693 49.4266 38.6237 48.2865 38.6237ZM31.4876 34.4356C31.1153 34.4356 30.8128 34.7381 30.8128 35.1103V36.5576C30.8128 36.9299 31.1153 37.2323 31.4876 37.2323H48.2912C48.6635 37.2323 48.9659 36.9299 48.9659 36.5576V35.1103C48.9659 34.7381 48.6635 34.4356 48.2912 34.4356H31.4876Z" fill="#252D32"/>
<path d="M44.5639 46.9999H27.7602C26.6202 46.9999 25.6895 46.0692 25.6895 44.9291V43.4819C25.6895 42.3418 26.6202 41.4111 27.7602 41.4111H44.5639C45.704 41.4111 46.6347 42.3418 46.6347 43.4819V44.9291C46.6347 46.0692 45.704 46.9999 44.5639 46.9999ZM27.7649 42.8118C27.3926 42.8118 27.0901 43.1143 27.0901 43.4866V44.9338C27.0901 45.3061 27.3926 45.6085 27.7649 45.6085H44.5685C44.9408 45.6085 45.2433 45.3061 45.2433 44.9338V43.4866C45.2433 43.1143 44.9408 42.8118 44.5685 42.8118H27.7649Z" fill="#252D32"/>
</svg>
