<svg width="57" height="50" viewBox="0 0 57 50" fill="none" xmlns="http://www.w3.org/2000/svg">
<path d="M20.3331 33.2879H4.24536C3.91704 33.2879 3.648 33.0189 3.648 32.6906V1.36792H3.00505C1.03513 1.36792 0 2.31184 0 4.12672V34.6422C0 36.4526 1.03056 37.3919 2.99592 37.3919H17.5925L20.7343 34.2501C21.09 33.8944 20.8392 33.2879 20.3376 33.2879H20.3331Z" fill="#B5D44F"/>
<path d="M39.2972 19.2935C36.5248 19.2935 34.2812 21.4367 34.2812 24.0815C34.2812 26.7263 36.5248 28.8695 39.2972 28.8695C42.0697 28.8695 44.3132 26.7263 44.3132 24.0815C44.3132 21.4367 42.0697 19.2935 39.2972 19.2935ZM38.3852 23.8535C37.6283 23.8535 37.0172 23.2424 37.0172 22.4855C37.0172 21.7285 37.6283 21.1175 38.3852 21.1175C39.1422 21.1175 39.7532 21.7285 39.7532 22.4855C39.7532 23.2424 39.1422 23.8535 38.3852 23.8535Z" fill="#FB954C"/>
<path d="M39.2207 29.7767C33.3611 29.7767 28.7235 25.0024 28.5275 24.8018C28.2721 24.5373 28.2721 24.1178 28.5275 23.8533C28.7235 23.6481 33.3656 18.8738 39.2207 18.8738C43.8399 18.8738 48.4136 21.2267 49.7862 23.4247C50.3744 24.3686 50.2467 25.0799 50.037 25.5086C49.7041 26.1926 49.0703 26.3613 48.5641 26.4981C48.2631 26.5802 47.9804 26.6577 47.7433 26.8219C45.6867 28.2811 43.0647 29.7722 39.2207 29.7722V29.7767ZM30.014 24.323C31.3136 25.4903 34.9844 28.4042 39.2207 28.4042C42.668 28.4042 44.9754 27.1091 46.9499 25.7047C47.3876 25.3946 47.8391 25.2715 48.2039 25.1757C48.6188 25.0617 48.7556 25.0115 48.8058 24.9021C48.9152 24.6741 48.7374 24.3275 48.6234 24.1451C47.6065 22.5127 43.5344 20.2418 39.2207 20.2418C34.9069 20.2418 31.3091 23.1556 30.014 24.323Z" fill="#252D32"/>
<path d="M56.9991 12.9047V3.75736C56.9991 2.43952 55.9275 1.36792 54.6096 1.36792H54.2631L54.1992 10.0319C55.0747 10.9576 55.8591 11.9654 56.5476 13.0461C56.6799 13.2513 56.9991 13.1555 56.9991 12.9093V12.9047Z" fill="#B5D44F"/>
<path d="M39.3023 29.7176C36.0374 29.7176 33.3789 27.1002 33.3789 23.8808C33.3789 22.3714 33.9626 20.9396 35.0205 19.8452C35.285 19.5762 35.7182 19.5671 35.9872 19.8315C36.2563 20.096 36.2654 20.5292 36.0009 20.7982C35.1892 21.6327 34.7469 22.7271 34.7469 23.8808C34.7469 26.3478 36.7898 28.3496 39.3023 28.3496C41.8149 28.3496 43.8578 26.3432 43.8578 23.8808C43.8578 22.6998 43.3927 21.5871 42.5491 20.7481C42.28 20.4836 42.28 20.0504 42.5491 19.7814C42.8135 19.5123 43.2467 19.5123 43.5158 19.7814C44.6193 20.8803 45.2258 22.3395 45.2258 23.8854C45.2258 27.1047 42.5673 29.7222 39.3023 29.7222V29.7176Z" fill="#252D32"/>
<path d="M39.407 21.5872C39.6213 21.8288 39.7536 22.1435 39.7536 22.49C39.7536 23.247 39.1425 23.858 38.3856 23.858C37.8475 23.858 37.3824 23.5434 37.1589 23.0874C37.0723 23.3291 37.0176 23.5844 37.0176 23.858C37.0176 25.1166 38.039 26.138 39.2976 26.138C40.5561 26.138 41.5776 25.1166 41.5776 23.858C41.5776 22.5995 40.6154 21.6464 39.407 21.5872Z" fill="#252D32"/>
<path d="M20.2913 34.2H3.56066C2.85386 34.2 2.2793 33.6254 2.2793 32.9186V1.28136C2.2793 0.57456 2.85386 0 3.56066 0H23.7113C26.5841 0 28.5723 1.32696 29.1605 3.64344C29.1742 3.69816 29.1833 3.75744 29.1833 3.81216V7.068C29.1833 7.44648 28.8778 7.752 28.4993 7.752C28.1208 7.752 27.8153 7.44648 27.8153 7.068V3.8988C27.2043 1.69632 24.9881 1.368 23.7113 1.368H3.6473V32.832H20.2913C20.6698 32.832 20.9753 33.1375 20.9753 33.516C20.9753 33.8945 20.6698 34.2 20.2913 34.2Z" fill="#252D32"/>
<path d="M54.0366 10.488C53.6581 10.488 53.3526 10.1825 53.3526 9.804V1.368H33.2566C31.9981 1.368 29.7956 1.70544 29.2301 3.97632C29.1389 4.34112 28.7696 4.56456 28.4003 4.47336C28.0355 4.38216 27.812 4.00824 27.9032 3.64344C28.4823 1.32696 30.434 0 33.2566 0H53.4392C54.146 0 54.7206 0.57456 54.7206 1.28136V9.804C54.7206 10.1825 54.415 10.488 54.0366 10.488Z" fill="#252D32"/>
<path d="M19.3791 22.7999H9.80314C9.42466 22.7999 9.11914 22.4944 9.11914 22.1159C9.11914 21.7374 9.42466 21.4319 9.80314 21.4319H19.3791C19.7576 21.4319 20.0631 21.7374 20.0631 22.1159C20.0631 22.4944 19.7576 22.7999 19.3791 22.7999Z" fill="#252D32"/>
<path d="M15.7311 26.9039H9.80314C9.42466 26.9039 9.11914 26.5984 9.11914 26.2199C9.11914 25.8414 9.42466 25.5359 9.80314 25.5359H15.7311C16.1096 25.5359 16.4151 25.8414 16.4151 26.2199C16.4151 26.5984 16.1096 26.9039 15.7311 26.9039Z" fill="#252D32"/>
<path d="M21.2031 7.75203H9.80314C9.42466 7.75203 9.11914 7.44651 9.11914 7.06803C9.11914 6.68955 9.42466 6.38403 9.80314 6.38403H21.2031C21.5816 6.38403 21.8871 6.68955 21.8871 7.06803C21.8871 7.44651 21.5816 7.75203 21.2031 7.75203Z" fill="#252D32"/>
<path d="M21.2033 12.7679H19.3793C19.0008 12.7679 18.6953 12.4624 18.6953 12.0839C18.6953 11.7054 19.0008 11.3999 19.3793 11.3999H21.2033C21.5818 11.3999 21.8873 11.7054 21.8873 12.0839C21.8873 12.4624 21.5818 12.7679 21.2033 12.7679Z" fill="#252D32"/>
<path d="M15.7311 12.7679H9.80314C9.42466 12.7679 9.11914 12.4624 9.11914 12.0839C9.11914 11.7054 9.42466 11.3999 9.80314 11.3999H15.7311C16.1096 11.3999 16.4151 11.7054 16.4151 12.0839C16.4151 12.4624 16.1096 12.7679 15.7311 12.7679Z" fill="#252D32"/>
<path d="M23.5521 37.7066L17.0404 44.2183C16.3199 44.9388 16.3199 46.1016 17.0404 46.8221L18.0436 47.8253C18.764 48.5457 19.9269 48.5457 20.6473 47.8253L27.3414 41.0947L28.3355 41.2361C28.8371 41.309 29.3478 41.1677 29.7445 40.853L32.1796 39.3117C30.1412 38.2903 27.0222 35.5178 25.5539 33.1968L23.7436 35.0071C23.2876 35.4631 23.1143 36.1289 23.283 36.749L23.5475 37.7157L23.5521 37.7066Z" fill="#FB954C"/>
<path d="M28.9594 42.2439C28.2389 42.2439 27.5641 41.9657 27.0533 41.455C26.7843 41.186 26.7843 40.7528 27.0533 40.4883C27.3224 40.2193 27.7556 40.2193 28.0201 40.4883C28.5217 40.9899 29.3926 40.9899 29.8942 40.4883L31.358 39.0245C31.627 38.7555 32.0602 38.7555 32.3247 39.0245C32.5892 39.2936 32.5937 39.7268 32.3247 39.9913L30.8609 41.455C30.3502 41.9657 29.6753 42.2439 28.9549 42.2439H28.9594Z" fill="#252D32"/>
<path d="M25.5457 39.6583C25.3724 39.6583 25.1946 39.5899 25.0623 39.4577L23.4116 37.8069C22.3628 36.7581 22.3628 35.0481 23.4116 33.9993L24.164 33.2469C24.433 32.9779 24.8662 32.9779 25.1307 33.2469C25.3997 33.516 25.3997 33.9492 25.1307 34.2137L24.3783 34.9661C23.863 35.4813 23.863 36.3249 24.3783 36.8402L26.029 38.4909C26.2981 38.76 26.2981 39.1932 26.029 39.4577C25.8968 39.5899 25.719 39.6583 25.5457 39.6583Z" fill="#252D32"/>
<path d="M19.3471 49.0473C18.6723 49.0473 18.0384 48.7829 17.5642 48.3086L16.561 47.3054C16.0822 46.8266 15.8223 46.1928 15.8223 45.5179C15.8223 44.843 16.0867 44.2092 16.561 43.7349L23.0726 37.2233C23.3417 36.9542 23.7749 36.9542 24.0394 37.2233C24.3038 37.4923 24.3084 37.9255 24.0394 38.19L17.5277 44.7017C17.0763 45.1531 17.0763 45.8873 17.5277 46.3387L18.5309 47.3419C18.9687 47.7797 19.7302 47.7797 20.1679 47.3419L26.862 40.6113C27.1265 40.3423 27.5643 40.3423 27.8288 40.6113C28.0978 40.8758 28.0978 41.309 27.8288 41.5781L21.1301 48.3086C20.6513 48.7874 20.0175 49.0473 19.3426 49.0473H19.3471Z" fill="#252D32"/>
<path d="M39.4447 41.496C29.7638 41.496 21.8887 33.6209 21.8887 23.94C21.8887 14.2592 29.7638 6.38403 39.4447 6.38403C49.1256 6.38403 57.0007 14.2592 57.0007 23.94C57.0007 33.6209 49.1256 41.496 39.4447 41.496ZM39.4447 7.75203C30.5162 7.75203 23.2567 15.0116 23.2567 23.94C23.2567 32.8685 30.5162 40.128 39.4447 40.128C48.3732 40.128 55.6327 32.8685 55.6327 23.94C55.6327 15.0116 48.3732 7.75203 39.4447 7.75203Z" fill="#252D32"/>
<path d="M39.5893 37.9711C36.6435 37.9711 33.8255 37.0591 31.4452 35.3355C31.1396 35.112 31.0712 34.6879 31.2901 34.3824C31.5135 34.0769 31.9376 34.0085 32.2432 34.2274C34.3909 35.7823 36.9308 36.6031 39.5847 36.6031C46.4977 36.6031 52.1247 30.9761 52.1247 24.0631C52.1247 21.1949 51.1808 18.4908 49.3979 16.2519C49.1607 15.9555 49.2109 15.5268 49.5073 15.2897C49.8037 15.0526 50.2323 15.1027 50.4695 15.3991C52.4485 17.8843 53.4973 20.8803 53.4973 24.0631C53.4973 31.7331 47.2592 37.9711 39.5893 37.9711Z" fill="#FB954C"/>
<path d="M29.4899 33.279C29.2938 33.279 29.1023 33.1969 28.9655 33.0373C26.8451 30.5338 25.6777 27.3418 25.6777 24.0586C25.6777 16.3887 31.9158 10.1506 39.5857 10.1506C42.4449 10.1506 45.19 11.0125 47.5292 12.6404C47.8393 12.8547 47.9168 13.2834 47.698 13.5934C47.4836 13.9035 47.055 13.981 46.7449 13.7622C44.6382 12.2938 42.1621 11.5186 39.5857 11.5186C32.6728 11.5186 27.0457 17.1457 27.0457 24.0586C27.0457 27.0226 28.0991 29.8954 30.0097 32.1526C30.256 32.4399 30.2195 32.8731 29.9277 33.1148C29.8 33.2242 29.6404 33.2744 29.4853 33.2744L29.4899 33.279Z" fill="#FB954C"/>
</svg>
