<svg width="57" height="44" viewBox="0 0 57 44" fill="none" xmlns="http://www.w3.org/2000/svg">
<path d="M21.6256 36.726C20.9329 36.2734 20.3233 35.7239 19.8154 35.1005H3.23252V1.38989H1.23759C0.554143 1.38989 0 1.94404 0 2.62749V35.9317C0 37.511 0.923572 38.333 2.67837 38.333H22.1335C21.8842 37.8019 21.7041 37.2616 21.621 36.726H21.6256Z" fill="#B5D44F"/>
<path d="M54.0313 12.8561V2.98306C54.0313 2.10105 53.3156 1.38989 52.4382 1.38989H50.7988V9.61435C52.2211 10.2562 53.3387 11.3969 54.0313 12.8561Z" fill="#B5D44F"/>
<path d="M50.5657 9.70218C50.1824 9.70218 49.873 9.39278 49.873 9.0095V1.38998H31.6324C29.6467 1.38998 28.0997 2.4521 27.6887 4.09606C27.5963 4.46549 27.2223 4.69177 26.8482 4.59941C26.4788 4.50705 26.2525 4.13301 26.3449 3.75896C26.9175 1.47772 28.9909 0 31.637 0H50.0023C50.6996 0 51.263 0.56338 51.263 1.26068V9.00488C51.263 9.38817 50.9536 9.69756 50.5703 9.69756L50.5657 9.70218Z" fill="#252D32"/>
<path d="M19.165 36.0242H4.03217C3.33487 36.0242 2.77148 35.4608 2.77148 34.7635V1.26533C2.77148 0.568026 3.33487 0.00463867 4.03217 0.00463867H22.3698C25.0389 0.00463867 27.1262 1.46389 27.6896 3.72204C27.7035 3.77745 27.7081 3.83287 27.7081 3.88828V8.08594C27.7081 8.46923 27.3987 8.77863 27.0154 8.77863C26.6321 8.77863 26.3227 8.46923 26.3227 8.08594V3.97602C25.8886 2.40133 24.3463 1.39 22.3698 1.39H4.15685V34.6388H19.165C19.5483 34.6388 19.8577 34.9482 19.8577 35.3315C19.8577 35.7148 19.5483 36.0242 19.165 36.0242Z" fill="#252D32"/>
<path d="M21.9361 8.31676H19.1653C18.7821 8.31676 18.4727 8.00736 18.4727 7.62408C18.4727 7.24079 18.7821 6.9314 19.1653 6.9314H21.9361C22.3194 6.9314 22.6288 7.24079 22.6288 7.62408C22.6288 8.00736 22.3194 8.31676 21.9361 8.31676Z" fill="#252D32"/>
<path d="M15.9335 8.31676H7.15948C6.7762 8.31676 6.4668 8.00736 6.4668 7.62408C6.4668 7.24079 6.7762 6.9314 7.15948 6.9314H15.9335C16.3168 6.9314 16.6261 7.24079 16.6261 7.62408C16.6261 8.00736 16.3168 8.31676 15.9335 8.31676Z" fill="#252D32"/>
<path d="M17.7806 13.8583H7.15948C6.7762 13.8583 6.4668 13.5489 6.4668 13.1656C6.4668 12.7823 6.7762 12.4729 7.15948 12.4729H17.7806C18.1639 12.4729 18.4733 12.7823 18.4733 13.1656C18.4733 13.5489 18.1639 13.8583 17.7806 13.8583Z" fill="#252D32"/>
<path d="M16.3953 19.4H7.15948C6.7762 19.4 6.4668 19.0906 6.4668 18.7073C6.4668 18.324 6.7762 18.0146 7.15948 18.0146H16.3953C16.7785 18.0146 17.0879 18.324 17.0879 18.7073C17.0879 19.0906 16.7785 19.4 16.3953 19.4Z" fill="#252D32"/>
<path d="M38.3292 16.2827V39.5707C38.3292 39.5707 37.1516 41.8058 35.0967 42.4892C33.9468 42.8725 31.4023 43.4128 30.2848 39.954C26.8352 39.5707 25.3344 37.7051 24.8865 35.4608C24.3047 34.879 21.9172 32.884 21.4693 31.1385C20.8874 28.8619 22.4667 26.6776 23.986 25.1537C22.2497 22.7755 23.5566 19.6723 26.6967 18.3285C26.2488 15.6409 28.0313 14.0893 30.1186 13.8814C31.4624 10.7459 33.9745 11.0599 35.249 11.4894C37.2994 12.1728 38.3292 16.2827 38.3292 16.2827Z" fill="#FB954C"/>
<path d="M38.0989 40.1803C37.7156 40.1803 37.4062 39.8709 37.4062 39.4877V11.7803C37.4062 11.397 37.7156 11.0876 38.0989 11.0876C38.4822 11.0876 38.7916 11.397 38.7916 11.7803V39.4877C38.7916 39.8709 38.4822 40.1803 38.0989 40.1803Z" fill="#252D32"/>
<path d="M34.1455 43.4637C32.6631 43.4637 31.0746 42.7617 30.1002 41.6811C29.7538 41.2979 29.5137 40.8869 29.3936 40.4805C27.7959 40.4205 26.3043 39.4322 25.3715 38.4348C24.411 37.4004 23.8845 36.2274 23.8984 35.193C21.8388 34.1078 20.6289 32.099 20.6289 29.7301C20.6289 27.9983 21.4139 26.3728 22.8039 25.1537C21.8573 24.1286 21.2939 22.7617 21.2939 21.4086C21.2939 19.4645 22.3237 17.6728 23.9538 16.7307C24.1246 13.5998 26.175 11.808 28.3408 11.5217C29.135 9.46215 31.0422 8.10449 33.2173 8.10449C36.2835 8.10449 38.6895 10.3534 38.6895 13.2211C38.6895 13.6044 38.3801 13.9138 37.9968 13.9138C37.6135 13.9138 37.3041 13.6044 37.3041 13.2211C37.3041 11.1292 35.5077 9.48986 33.2173 9.48986C31.504 9.48986 30.0171 10.6443 29.5137 12.3668C29.4306 12.6531 29.1674 12.8563 28.8672 12.8655C26.7845 12.9209 25.3299 14.685 25.3299 17.1556C25.3299 17.4234 25.1729 17.6681 24.9328 17.7836C23.5659 18.4255 22.6792 19.8478 22.6792 21.4086C22.6792 22.6047 23.3165 23.8792 24.3001 24.655C24.471 24.7889 24.5726 25.0013 24.5633 25.223C24.5587 25.4447 24.4479 25.6479 24.2632 25.7725C23.4227 26.3544 22.0143 27.6382 22.0143 29.7301C22.0143 31.7019 23.0995 33.3551 24.9143 34.1448C25.2191 34.2787 25.3853 34.6065 25.3161 34.9298C25.1637 35.6317 25.5747 36.6153 26.392 37.4927C27.431 38.6103 28.8118 39.2337 29.9062 39.0767C30.114 39.0443 30.3311 39.1182 30.4835 39.266C30.6359 39.4138 30.7144 39.6262 30.6913 39.8386C30.6636 40.0787 30.8298 40.4251 31.13 40.7576C31.7211 41.4179 32.8848 42.0829 34.1455 42.0829C35.8541 42.0829 37.4057 40.8453 37.4057 39.4877C37.4057 39.1044 37.7151 38.795 38.0984 38.795C38.4817 38.795 38.7911 39.1044 38.7911 39.4877C38.7911 41.6073 36.6206 43.4683 34.1455 43.4683V43.4637Z" fill="#252D32"/>
<path d="M52.2855 16.629C52.1193 14.7541 51.228 13.2118 49.875 12.3621V14.0199C50.4569 14.6248 50.8817 15.4884 50.9971 16.6244H52.2855V16.629Z" fill="#B5D44F"/>
<path d="M51.5693 17.8482C51.1861 17.8482 50.8767 17.5388 50.8767 17.1556C50.8767 14.685 49.422 12.9209 47.3347 12.8655C47.0346 12.8563 46.7713 12.6577 46.6882 12.3668C46.1849 10.6443 44.6979 9.48986 42.9847 9.48986C40.9205 9.48986 38.6901 10.9168 38.6901 13.2211C38.6901 13.6044 38.3807 13.9138 37.9974 13.9138C37.6141 13.9138 37.3047 13.6044 37.3047 13.2211C37.3047 10.3996 39.8538 8.10449 42.9847 8.10449C45.1597 8.10449 47.0669 9.45753 47.8612 11.5217C50.1193 11.8219 52.2574 13.7614 52.2574 17.1556C52.2574 17.5388 51.948 17.8482 51.5647 17.8482H51.5693Z" fill="#252D32"/>
<path d="M33.9992 18.0791C32.7986 18.0791 31.6626 17.6265 30.7944 16.7999C30.5173 16.5367 30.5081 16.098 30.7713 15.8209C31.0345 15.5439 31.4732 15.5346 31.7503 15.7979C32.3599 16.3751 33.1588 16.6983 34.0038 16.6983C35.8372 16.6983 37.3103 14.5649 37.3103 12.8008C37.3103 12.4176 37.6197 12.1082 38.0029 12.1082C38.3862 12.1082 38.6956 12.4176 38.6956 12.8008C38.6956 15.2945 36.6868 18.0837 34.0038 18.0837L33.9992 18.0791Z" fill="#252D32"/>
<path d="M29.9981 40.4529C29.6425 40.4529 29.3423 40.185 29.31 39.8248C29.1992 38.6381 29.6333 37.4651 30.4922 36.6016C30.7646 36.3291 31.2033 36.3291 31.4712 36.6016C31.739 36.874 31.7436 37.3127 31.4712 37.5805C30.9124 38.1439 30.6169 38.9336 30.6861 39.6955C30.7231 40.0788 30.4414 40.4159 30.0627 40.4483C30.0396 40.4483 30.0212 40.4483 29.9981 40.4483V40.4529Z" fill="#252D32"/>
<path d="M38.0999 36.024C37.7166 36.024 37.4072 35.7146 37.4072 35.3313C37.4072 34.2415 36.3544 33.6735 35.32 33.6735C34.6688 33.6735 34.0639 33.9967 33.7037 34.5324C33.4913 34.851 33.0572 34.9341 32.7432 34.7171C32.4245 34.5047 32.3414 34.0706 32.5585 33.7566C33.1819 32.8376 34.2163 32.2881 35.3246 32.2881C37.3056 32.2881 38.7972 33.5949 38.7972 35.3313C38.7972 35.7146 38.4878 36.024 38.1045 36.024H38.0999Z" fill="#252D32"/>
<path d="M41.156 19.4091C38.9486 19.4091 37.4062 18.1715 37.4062 16.3982C37.4062 16.015 37.7156 15.7056 38.0989 15.7056C38.4822 15.7056 38.7916 16.015 38.7916 16.3982C38.7916 17.5989 40.0662 18.0237 41.156 18.0237C41.5577 18.0237 41.9503 17.9129 42.2874 17.7051C42.6106 17.5066 43.0401 17.6081 43.2386 17.9314C43.4372 18.2593 43.3356 18.6841 43.0124 18.8827C42.4536 19.2244 41.8117 19.4091 41.156 19.4091Z" fill="#252D32"/>
<path d="M28.8905 26.0357C28.7566 26.0357 28.6226 25.9987 28.5026 25.9156C27.3204 25.1213 25.5517 25.0751 24.1987 25.8094C23.8616 25.9941 23.4414 25.8694 23.2613 25.5323C23.0766 25.1952 23.2012 24.775 23.5383 24.5949C25.3532 23.6066 27.6575 23.6759 29.2784 24.7657C29.597 24.9782 29.6801 25.4076 29.4677 25.7263C29.3338 25.9248 29.1168 26.031 28.8905 26.031V26.0357Z" fill="#252D32"/>
<path d="M26.1241 35.7656C25.5884 35.7656 25.0343 35.6594 24.4524 35.447L24.4062 35.4285C24.046 35.2992 23.8567 34.9021 23.986 34.5419C24.1153 34.1817 24.5124 33.9923 24.8726 34.1216L24.928 34.1401C25.3575 34.2971 26.4981 34.7127 27.6711 33.8353C27.9759 33.6044 28.4099 33.6691 28.6408 33.9739C28.8717 34.2786 28.8071 34.7127 28.5023 34.9436C27.7773 35.4885 26.983 35.761 26.1241 35.761V35.7656Z" fill="#252D32"/>
<path d="M32.9864 29.4576C32.7278 29.4576 32.4785 29.3145 32.363 29.0651C32.2568 28.8434 31.3609 26.8531 32.4277 24.9737C33.4113 23.242 35.5447 22.42 37.6228 22.9741C37.9922 23.0711 38.2139 23.4544 38.1123 23.8238C38.0153 24.1932 37.632 24.4103 37.2626 24.3133C35.8218 23.93 34.2887 24.4934 33.6283 25.6571C32.9079 26.9224 33.536 28.3124 33.6098 28.4648C33.7761 28.8111 33.6283 29.2221 33.282 29.3884C33.185 29.4345 33.0834 29.4576 32.9818 29.4576H32.9864Z" fill="#252D32"/>
<path d="M27.7545 20.7713C27.7175 20.7713 27.6806 20.7713 27.6483 20.7621C27.2696 20.702 27.011 20.3464 27.071 19.9724C27.0849 19.88 27.1957 19.0534 26.6 18.4623C26.2537 18.116 25.5656 17.5711 24.8637 17.8112C24.4989 17.9359 24.1063 17.7466 23.9817 17.3818C23.857 17.0216 24.0463 16.6244 24.4111 16.4997C25.4455 16.1442 26.6 16.4997 27.579 17.4787C28.6365 18.5362 28.4795 19.917 28.4379 20.1848C28.3825 20.5265 28.0916 20.7713 27.7545 20.7713Z" fill="#252D32"/>
<path d="M44.5631 24.4796H38.5599C38.1766 24.4796 37.8672 24.1702 37.8672 23.7869C37.8672 23.4036 38.1766 23.0942 38.5599 23.0942H44.5631C44.9464 23.0942 45.2558 23.4036 45.2558 23.7869C45.2558 24.1702 44.9464 24.4796 44.5631 24.4796Z" fill="#252D32"/>
<path d="M51.9526 30.9446H46.4019C46.3049 30.9446 46.2079 30.9261 46.1156 30.8845L43.174 29.5592H38.0989C37.7156 29.5592 37.4062 29.2498 37.4062 28.8665C37.4062 28.4832 37.7156 28.1738 38.0989 28.1738H43.3218C43.4187 28.1738 43.5157 28.1923 43.6081 28.2339L46.5497 29.5592H51.9526C52.3359 29.5592 52.6453 29.8686 52.6453 30.2519C52.6453 30.6352 52.3359 30.9446 51.9526 30.9446Z" fill="#252D32"/>
<path d="M44.5633 19.4C43.1641 19.4 42.0234 18.2594 42.0234 16.8602C42.0234 15.4609 43.1641 14.3203 44.5633 14.3203C45.9625 14.3203 47.1031 15.4609 47.1031 16.8602C47.1031 18.2594 45.9625 19.4 44.5633 19.4ZM44.5633 15.7057C43.926 15.7057 43.4088 16.2229 43.4088 16.8602C43.4088 17.4974 43.926 18.0146 44.5633 18.0146C45.2005 18.0146 45.7177 17.4974 45.7177 16.8602C45.7177 16.2229 45.2005 15.7057 44.5633 15.7057Z" fill="#252D32"/>
<path d="M54.2605 32.7916C52.8613 32.7916 51.7207 31.651 51.7207 30.2518C51.7207 28.8525 52.8613 27.7119 54.2605 27.7119C55.6598 27.7119 56.8004 28.8525 56.8004 30.2518C56.8004 31.651 55.6598 32.7916 54.2605 32.7916ZM54.2605 29.0973C53.6233 29.0973 53.1061 29.6145 53.1061 30.2518C53.1061 30.889 53.6233 31.4062 54.2605 31.4062C54.8978 31.4062 55.415 30.889 55.415 30.2518C55.415 29.6145 54.8978 29.0973 54.2605 29.0973Z" fill="#252D32"/>
<path d="M44.5633 43.8748C43.1641 43.8748 42.0234 42.7342 42.0234 41.335C42.0234 39.9358 43.1641 38.7952 44.5633 38.7952C45.9625 38.7952 47.1031 39.9358 47.1031 41.335C47.1031 42.7342 45.9625 43.8748 44.5633 43.8748ZM44.5633 40.1805C43.926 40.1805 43.4088 40.6977 43.4088 41.335C43.4088 41.9723 43.926 42.4895 44.5633 42.4895C45.2005 42.4895 45.7177 41.9723 45.7177 41.335C45.7177 40.6977 45.2005 40.1805 44.5633 40.1805Z" fill="#252D32"/>
<path d="M44.5631 35.5624H38.5599C38.1766 35.5624 37.8672 35.253 37.8672 34.8697C37.8672 34.4864 38.1766 34.177 38.5599 34.177H44.5631C44.9464 34.177 45.2558 34.4864 45.2558 34.8697C45.2558 35.253 44.9464 35.5624 44.5631 35.5624Z" fill="#252D32"/>
<path d="M39.9452 41.1039H38.5599C38.1766 41.1039 37.8672 40.7945 37.8672 40.4112C37.8672 40.0279 38.1766 39.7185 38.5599 39.7185H39.9452C40.3285 39.7185 40.6379 40.0279 40.6379 40.4112C40.6379 40.7945 40.3285 41.1039 39.9452 41.1039Z" fill="#252D32"/>
<path d="M48.7187 25.8651C49.8663 25.8651 50.7967 24.9347 50.7967 23.787C50.7967 22.6394 49.8663 21.709 48.7187 21.709C47.571 21.709 46.6406 22.6394 46.6406 23.787C46.6406 24.9347 47.571 25.8651 48.7187 25.8651Z" fill="#B5D44F"/>
<path d="M48.7187 36.9478C49.8663 36.9478 50.7967 36.0175 50.7967 34.8698C50.7967 33.7221 49.8663 32.7917 48.7187 32.7917C47.571 32.7917 46.6406 33.7221 46.6406 34.8698C46.6406 36.0175 47.571 36.9478 48.7187 36.9478Z" fill="#B5D44F"/>
</svg>
