<svg width="53" height="43" viewBox="0 0 53 43" fill="none" xmlns="http://www.w3.org/2000/svg">
<path d="M21.7701 29.3475C21.8973 29.2712 22.0542 29.2712 22.1814 29.3475C22.1941 29.356 23.4578 30.1023 24.679 30.1023C25.9045 30.1023 27.1596 29.3518 27.1724 29.3433C27.236 29.3051 27.308 29.2839 27.3801 29.2839C27.5031 29.2839 27.5837 29.3391 27.6303 29.3687C27.9568 29.5892 28.8261 30.0981 29.8268 30.0981H29.9244C30.9251 30.0981 31.7944 29.5892 32.1209 29.3687C32.1675 29.3348 32.2481 29.2839 32.3711 29.2839C32.4516 29.2839 32.528 29.3094 32.5958 29.3518C32.6043 29.3603 33.7195 30.0981 35.0468 30.0981H35.0722C36.4079 30.0896 37.4595 29.3645 37.468 29.356C37.5359 29.3094 37.6164 29.2839 37.697 29.2839C37.82 29.2839 37.9005 29.3391 37.9472 29.3687C38.2737 29.5892 39.143 30.0981 40.1437 30.0981H40.2412C41.1147 30.0981 41.9077 29.7292 42.336 29.5044C43.1841 28.1263 44.2569 26.3453 44.7742 25.9595L19.4082 27.8295C19.4082 27.8295 19.811 29.0295 20.1927 29.9794C21.0535 29.7673 21.7531 29.3518 21.7659 29.3433L21.7701 29.3475Z" fill="#B5D44F"/>
<path d="M31.8021 2.54443L31.6028 3.69782L21.2012 19.93H31.8021L41.555 22.0502L31.8021 2.54443Z" fill="#FB954C"/>
<path d="M19.2767 33.9232C18.3693 33.9232 17.483 33.6094 16.8979 33.3507C16.5756 33.2066 16.4357 32.8292 16.5756 32.5111C16.7198 32.1889 17.0972 32.0489 17.4152 32.1889C17.8859 32.4009 18.5898 32.6511 19.2725 32.6511C20.4216 32.6511 21.6344 31.9344 21.6471 31.926C21.8464 31.803 22.1008 31.803 22.3044 31.926C22.3171 31.9344 23.5256 32.6511 24.679 32.6511C25.8281 32.6511 27.0409 31.9344 27.0536 31.926C27.1511 31.8666 27.2656 31.8369 27.3801 31.8369C27.5073 31.8369 27.6557 31.892 27.7617 31.9641C28.0713 32.1719 28.8897 32.6511 29.8268 32.6511H29.9243C30.8615 32.6511 31.6799 32.1677 31.9894 31.9641C32.0954 31.892 32.2438 31.8369 32.371 31.8369C32.4982 31.8369 32.6212 31.8751 32.7272 31.9472C32.7357 31.9514 33.7916 32.6723 35.0679 32.6511C36.3188 32.6426 37.3196 31.9599 37.328 31.9514C37.4341 31.8751 37.5655 31.8369 37.697 31.8369C37.8284 31.8369 37.9726 31.892 38.0786 31.9641C38.3881 32.1719 39.2065 32.6511 40.1437 32.6511H40.2412C41.1656 32.6511 42.0052 32.2016 42.3656 32.0108C42.5352 31.9217 42.6328 31.8708 42.7727 31.8539C42.9254 31.8369 43.1077 31.892 43.2391 31.9811C43.5275 32.1804 44.3035 32.6511 45.2321 32.6511H45.3297C46.2668 32.6511 47.0852 32.1677 47.3947 31.9641C47.5007 31.892 47.6492 31.8369 47.7764 31.8369C48.1283 31.8369 48.4124 32.121 48.4124 32.473C48.4124 32.702 48.2895 32.9055 48.1029 33.02C47.5813 33.3677 46.5594 33.9232 45.3254 33.9232H45.2279C44.2017 33.9232 43.3409 33.5416 42.8024 33.2193C42.3147 33.4695 41.3395 33.9232 40.237 33.9232H40.1394C39.1217 33.9232 38.244 33.5416 37.6842 33.2193C37.1839 33.4907 36.2213 33.9147 35.0679 33.9232C33.8976 33.9444 32.8884 33.4907 32.371 33.2151C31.8028 33.5416 30.9293 33.9232 29.9116 33.9232H29.8141C28.7879 33.9232 27.9017 33.5331 27.3419 33.2066C26.8119 33.4737 25.7518 33.9232 24.6663 33.9232C23.5638 33.9232 22.4867 33.461 21.9651 33.1981C21.4436 33.461 20.3665 33.9274 19.264 33.9274L19.2767 33.9232Z" fill="#FB954C"/>
<path d="M20.22 30.2805C19.9995 30.2805 19.7875 30.166 19.6688 29.9624C19.2278 29.2034 18.8334 28.0288 18.8164 27.9779C18.7528 27.7914 18.7825 27.5878 18.8885 27.4225C18.9988 27.2571 19.1769 27.1553 19.3719 27.1383L44.7379 25.2683C45.0135 25.2429 45.2807 25.4167 45.3782 25.6797C45.4758 25.9426 45.3909 26.2436 45.1662 26.4132C44.7422 26.7313 44.1527 27.6217 43.6312 28.4062C43.3725 28.7963 43.1308 29.1653 42.8934 29.4875C42.6856 29.7716 42.287 29.831 42.0029 29.6232C41.7188 29.4154 41.6594 29.0168 41.8672 28.7327C42.0877 28.4359 42.3209 28.0797 42.5711 27.7023C42.8043 27.3461 43.046 26.9857 43.2835 26.6549L20.3091 28.3469C20.4405 28.6734 20.6059 29.0423 20.767 29.3264C20.9409 29.6317 20.8391 30.0176 20.5338 30.1957C20.432 30.255 20.3218 30.2805 20.2158 30.2805H20.22Z" fill="#252D32"/>
<path d="M32.015 23.7462C31.663 23.7462 31.3789 23.4621 31.3789 23.1101V0.636058C31.3789 0.284106 31.663 0 32.015 0C32.3669 0 32.651 0.284106 32.651 0.636058V23.1101C32.651 23.4621 32.3669 23.7462 32.015 23.7462Z" fill="#252D32"/>
<path d="M43.4653 26.2902C43.2321 26.2902 43.0074 26.163 42.8971 25.9382L31.4481 3.04012C31.2912 2.72633 31.4184 2.3447 31.7322 2.1878C32.046 2.03091 32.4276 2.15812 32.5845 2.47191L44.0335 25.37C44.1904 25.6838 44.0632 26.0654 43.7494 26.2223C43.6561 26.269 43.5628 26.2902 43.4653 26.2902Z" fill="#252D32"/>
<path d="M29.4708 20.3539H20.99C20.7568 20.3539 20.5405 20.2267 20.4303 20.0231C20.32 19.8196 20.3285 19.5694 20.4557 19.3743L31.4807 2.41278C31.6716 2.11596 32.0659 2.03539 32.3627 2.22621C32.6553 2.41702 32.7401 2.81138 32.5493 3.10821L22.1646 19.086H29.475C29.827 19.086 30.1111 19.3701 30.1111 19.722C30.1111 20.074 29.827 20.3581 29.475 20.3581L29.4708 20.3539Z" fill="#252D32"/>
<path d="M24.7541 26.7271C24.6565 26.7271 24.5548 26.7059 24.4615 26.655C24.1519 26.4939 24.029 26.108 24.1901 25.7985L25.5258 23.2373C25.6361 23.0253 25.8523 22.8938 26.0898 22.8938H38.9042C39.2011 22.8938 39.4555 23.0973 39.5233 23.3857L40.0576 25.6797C40.1382 26.0232 39.9262 26.3624 39.5827 26.443C39.2392 26.5236 38.9 26.3116 38.8194 25.9681L38.3996 24.1659H26.4757L25.318 26.3836C25.2035 26.5999 24.983 26.7271 24.7541 26.7271Z" fill="#252D32"/>
<path d="M50.4606 2.96826L50.2316 35.9458C50.2316 36.2341 49.9984 36.4673 49.7101 36.4673H33.4567C28.8855 36.4673 26.5999 38.7444 26.5999 38.7444C26.5999 38.7444 24.3144 36.4673 19.7432 36.4673H3.48984C3.20149 36.4673 2.96827 36.2341 2.96827 35.9458V2.96826H2.61208C0.898962 2.96826 0 3.78666 0 5.3556V37.4765C0 39.0455 0.894722 39.8596 2.60784 39.8596H19.4846C22.9235 39.8596 24.6875 41.3565 24.8656 41.5176C25.7519 42.4251 27.219 42.4378 28.118 41.5431C28.2071 41.4625 29.9711 39.8596 33.5245 39.8596H50.5878C52.1737 39.8596 53.0091 39.0455 53.0091 37.4765V5.04606C53.0091 3.89691 52.0762 2.96826 50.9313 2.96826H50.4649H50.4606Z" fill="#B5D44F"/>
<path d="M26.5033 39.584C26.3422 39.584 26.1811 39.5246 26.0581 39.4017C26.0369 39.3847 23.8616 37.3154 19.6127 37.3154H3.27872C2.64266 37.3154 2.12109 36.7981 2.12109 36.1578V2.84952C2.12109 2.21346 2.63842 1.69189 3.27872 1.69189H22.3689C25.6637 1.69189 26.7705 3.33717 27.1182 4.71529C27.1309 4.76618 27.1394 4.81706 27.1394 4.87219V5.72026C27.1394 6.07221 26.8553 6.35632 26.5033 6.35632C26.1514 6.35632 25.8673 6.07221 25.8673 5.72026V4.95699C25.4941 3.61703 24.3492 2.96401 22.3689 2.96401H3.39321V36.039H19.6127C24.4128 36.039 26.851 38.3924 26.9486 38.4942C27.1987 38.7402 27.1987 39.143 26.9528 39.3932C26.8298 39.5204 26.6645 39.584 26.4991 39.584H26.5033Z" fill="#252D32"/>
<path d="M26.7445 39.584C26.5834 39.584 26.418 39.5204 26.2951 39.3974C26.0449 39.1472 26.0449 38.7444 26.2951 38.4985C26.3968 38.3967 28.8096 36.039 33.5588 36.039H49.6129V2.96401H36.2557C35.9038 2.96401 35.6197 2.6799 35.6197 2.32795C35.6197 1.976 35.9038 1.69189 36.2557 1.69189H49.7274C50.3635 1.69189 50.8851 2.20922 50.8851 2.84952V36.1578C50.8851 36.7938 50.3677 37.3154 49.7274 37.3154H33.5588C29.3269 37.3154 27.2152 39.3805 27.194 39.4017C27.071 39.5246 26.9057 39.5882 26.7445 39.5882V39.584Z" fill="#252D32"/>
<path d="M17.1754 20.778H8.69465C8.3427 20.778 8.05859 20.4939 8.05859 20.1419C8.05859 19.79 8.3427 19.5059 8.69465 19.5059H17.1754C17.5274 19.5059 17.8115 19.79 17.8115 20.1419C17.8115 20.4939 17.5274 20.778 17.1754 20.778Z" fill="#252D32"/>
<path d="M15.4793 24.5941H8.69465C8.3427 24.5941 8.05859 24.31 8.05859 23.9581C8.05859 23.6061 8.3427 23.322 8.69465 23.322H15.4793C15.8312 23.322 16.1153 23.6061 16.1153 23.9581C16.1153 24.31 15.8312 24.5941 15.4793 24.5941Z" fill="#252D32"/>
<path d="M20.1437 9.75307H8.69465C8.3427 9.75307 8.05859 9.46897 8.05859 9.11702C8.05859 8.76506 8.3427 8.48096 8.69465 8.48096H20.1437C20.4956 8.48096 20.7798 8.76506 20.7798 9.11702C20.7798 9.46897 20.4956 9.75307 20.1437 9.75307Z" fill="#252D32"/>
<path d="M20.1408 13.9933H18.4447C18.0927 13.9933 17.8086 13.7092 17.8086 13.3572C17.8086 13.0053 18.0927 12.7212 18.4447 12.7212H20.1408C20.4928 12.7212 20.7769 13.0053 20.7769 13.3572C20.7769 13.7092 20.4928 13.9933 20.1408 13.9933Z" fill="#252D32"/>
<path d="M15.4793 13.9933H8.69465C8.3427 13.9933 8.05859 13.7092 8.05859 13.3572C8.05859 13.0053 8.3427 12.7212 8.69465 12.7212H15.4793C15.8312 12.7212 16.1153 13.0053 16.1153 13.3572C16.1153 13.7092 15.8312 13.9933 15.4793 13.9933Z" fill="#252D32"/>
</svg>
