<svg width="42" height="45" viewBox="0 0 42 45" fill="none" xmlns="http://www.w3.org/2000/svg">
<path d="M6.49105 38.7143C5.21578 38.3669 3.43651 39.0961 3.05469 39.8598V10.078C3.05469 8.18033 4.59341 6.6416 6.49105 6.6416V38.7143Z" fill="#B5D44F"/>
<path d="M35.3178 35.6368C35.0009 35.6368 34.7451 35.381 34.7451 35.0641V7.00043H20.7934C20.4765 7.00043 20.2207 6.74462 20.2207 6.42771C20.2207 6.1108 20.4765 5.85498 20.7934 5.85498H35.3178C35.6347 5.85498 35.8905 6.1108 35.8905 6.42771V35.0641C35.8905 35.381 35.6347 35.6368 35.3178 35.6368Z" fill="#252D32"/>
<path d="M3.2446 40.9823C2.92769 40.9823 2.67188 40.7264 2.67188 40.4095V9.96334C2.67188 7.69534 4.51605 5.85498 6.78024 5.85498H13.9622C14.2792 5.85498 14.535 6.1108 14.535 6.42771C14.535 6.74462 14.2792 7.00044 13.9622 7.00044H6.78024C5.14605 7.00044 3.81733 8.32916 3.81733 9.96334V40.4095C3.81733 40.7264 3.56151 40.9823 3.2446 40.9823Z" fill="#252D32"/>
<path d="M18.898 44.4186H5.83603C4.80894 44.4186 3.83149 43.9223 3.22058 43.0937C2.60204 42.2499 2.4264 41.177 2.74712 40.1461C3.15567 38.8403 4.43094 37.9277 5.85512 37.9277H22.7124C23.0293 37.9277 23.2851 38.1836 23.2851 38.5005C23.2851 38.8174 23.0293 39.0732 22.7124 39.0732H5.85512C4.92731 39.0732 4.09876 39.6536 3.84295 40.4897C3.63295 41.1694 3.73985 41.8719 4.14458 42.4179C4.53785 42.9563 5.17167 43.2732 5.83603 43.2732H18.898C19.2149 43.2732 19.4708 43.529 19.4708 43.8459C19.4708 44.1628 19.2149 44.4186 18.898 44.4186Z" fill="#252D32"/>
<path d="M6.29929 38.3095C5.98238 38.3095 5.72656 38.0537 5.72656 37.7368V6.80954C5.72656 6.49263 5.98238 6.23682 6.29929 6.23682C6.6162 6.23682 6.87202 6.49263 6.87202 6.80954V37.7368C6.87202 38.0537 6.6162 38.3095 6.29929 38.3095Z" fill="#252D32"/>
<path d="M26.3624 37.1643H28.5999C31.3337 37.1643 33.5482 39.3827 33.5444 42.1127C33.5444 43.1818 32.6395 44.037 31.5666 44.037H23.3919C22.3228 44.037 21.4179 43.1856 21.4141 42.1127C21.4141 39.3789 23.6248 37.1643 26.3586 37.1643H26.3624Z" fill="#B5D44F"/>
<path d="M28.3719 31.5974L29.4448 26.8629C28.3261 21.7007 21.251 9.62379 15.4512 1.08252L18.5363 13.9231L20.2812 15.0456L19.3839 16.4392L21.8466 26.4123L28.3757 31.6012L28.3719 31.5974Z" fill="#FB954C"/>
<path d="M29.1742 34.461C28.9336 34.461 28.7122 34.3083 28.632 34.0678C27.1658 29.6425 24.8214 22.7812 23.0307 18.0047C22.92 17.7069 23.0689 17.3785 23.3667 17.2678C23.6645 17.157 23.9929 17.306 24.1036 17.6038C25.8982 22.3956 28.2502 29.2721 29.7202 33.705C29.8194 34.0067 29.6553 34.3274 29.3574 34.4305C29.2964 34.4496 29.2353 34.461 29.178 34.461H29.1742Z" fill="#252D32"/>
<path d="M21.6857 13.7016C21.4643 13.7016 21.2543 13.5756 21.1626 13.3579C20.5861 12.0445 20.0324 10.9066 19.5208 9.97501C19.3681 9.7001 19.4673 9.34882 19.7461 9.1961C20.021 9.04337 20.3723 9.14264 20.525 9.42137C21.0557 10.3836 21.6246 11.5519 22.2164 12.8997C22.3424 13.1899 22.2126 13.5259 21.9224 13.6557C21.8461 13.6901 21.7697 13.7054 21.6934 13.7054L21.6857 13.7016Z" fill="#252D32"/>
<path d="M27.6947 31.5207C27.5763 31.5207 27.458 31.4863 27.3587 31.41L21.2267 26.935C21.0854 26.832 21.0014 26.6716 20.9938 26.4998C20.9212 25.0145 20.3103 22.1623 18.9396 16.962C18.7869 16.3854 19.1687 15.7783 19.5238 15.3583C18.932 14.8009 18.1454 13.9914 18.0041 13.4721C17.1832 10.4405 16.1943 6.86668 15.0489 2.72777L14.4952 0.727047C14.4265 0.475047 14.5334 0.211592 14.7587 0.077956C14.984 -0.0518622 15.2665 -0.0174986 15.4498 0.165774C28.0421 12.697 30.8027 22.212 30.9172 22.609C30.9363 22.6854 30.944 22.7618 30.9325 22.8381L30.3407 27.2901C30.2987 27.6032 30.0085 27.8209 29.6954 27.7827C29.3823 27.7407 29.1609 27.4543 29.2029 27.1374L29.7794 22.8076C29.451 21.7729 26.576 13.392 16.1905 2.54832C17.3207 6.63377 18.2981 10.1656 19.1114 13.1667C19.1916 13.4034 19.9476 14.2129 20.7265 14.8963C20.8487 15.0032 20.9212 15.1598 20.9212 15.324C20.9212 15.4881 20.8525 15.6447 20.7303 15.7516C20.3867 16.0609 20.0507 16.5229 20.0507 16.6832C21.3756 21.7232 21.9903 24.5296 22.1201 26.1638L28.0383 30.4821C28.2941 30.6692 28.3514 31.0281 28.1643 31.284C28.0536 31.4367 27.8779 31.5207 27.7023 31.5207H27.6947Z" fill="#252D32"/>
<path d="M35.0589 44.4188H23.6502C22.2451 44.4188 21.1034 43.3001 21.0996 41.9255C21.0996 40.4517 21.6723 39.0619 22.7147 38.0195C23.7571 36.9772 25.1431 36.4006 26.6169 36.4006H32.0883C33.5622 36.4006 34.9482 36.9734 35.9905 38.0195C37.0329 39.0619 37.6056 40.4517 37.6056 41.9255C37.6056 43.3001 36.4601 44.4226 35.0551 44.4226L35.0589 44.4188ZM26.6169 37.5461C25.4485 37.5461 24.3489 38.0005 23.5241 38.829C22.6994 39.6575 22.2451 40.7534 22.2451 41.9255C22.2451 42.6701 22.8751 43.2772 23.6502 43.2772H35.0589C35.834 43.2772 36.4602 42.6701 36.464 41.9255C36.464 40.7572 36.0096 39.6575 35.1849 38.8328C34.3601 38.0081 33.2605 37.5499 32.0921 37.5499H26.6207L26.6169 37.5461Z" fill="#252D32"/>
<path d="M32.2629 37.5462H25.7719C25.455 37.5462 25.1992 37.2904 25.1992 36.9735V33.9189C25.1992 33.602 25.455 33.3462 25.7719 33.3462H32.2629C32.5798 33.3462 32.8356 33.602 32.8356 33.9189V36.9735C32.8356 37.2904 32.5798 37.5462 32.2629 37.5462ZM26.3447 36.4007H31.6901V34.4916H26.3447V36.4007Z" fill="#252D32"/>
<path d="M41.4273 44.4189H0.572727C0.255818 44.4189 0 44.1631 0 43.8462C0 43.5293 0.255818 43.2734 0.572727 43.2734H41.4273C41.7442 43.2734 42 43.5293 42 43.8462C42 44.1631 41.7442 44.4189 41.4273 44.4189Z" fill="#252D32"/>
<path d="M17.3723 20.3644H13.1723C12.8554 20.3644 12.5996 20.1086 12.5996 19.7917C12.5996 19.4748 12.8554 19.219 13.1723 19.219H17.3723C17.6892 19.219 17.9451 19.4748 17.9451 19.7917C17.9451 20.1086 17.6892 20.3644 17.3723 20.3644Z" fill="#252D32"/>
<path d="M17.756 24.1823H10.8833C10.5664 24.1823 10.3105 23.9265 10.3105 23.6096C10.3105 23.2927 10.5664 23.0369 10.8833 23.0369H17.756C18.0729 23.0369 18.3287 23.2927 18.3287 23.6096C18.3287 23.9265 18.0729 24.1823 17.756 24.1823Z" fill="#252D32"/>
</svg>
