<svg width="42" height="41" viewBox="0 0 42 41" fill="none" xmlns="http://www.w3.org/2000/svg">
<path d="M13.7949 7.05078V39.5625H40.431V7.05078H13.7949ZM37.2974 36.4289H16.9286V10.1844H37.2974V36.4289Z" fill="#FB954C"/>
<path d="M4.00193 27.4433C2.69363 27.0868 0.86827 27.835 0.476562 28.6184V4.3325C0.476562 2.38571 2.05514 0.807129 4.00193 0.807129V27.4433Z" fill="#B5D44F"/>
<path d="M0.671546 29.7698C0.346428 29.7698 0.0839844 29.5073 0.0839844 29.1822V4.21478C0.0839844 1.88803 1.97593 0 4.29876 0H28.0911C28.4162 0 28.6786 0.262444 28.6786 0.587561V4.11293C28.6786 4.43805 28.4162 4.70049 28.0911 4.70049C27.766 4.70049 27.5035 4.43805 27.5035 4.11293V1.17512H4.29876C2.62225 1.17512 1.25911 2.53827 1.25911 4.21478V29.1822C1.25911 29.5073 0.996663 29.7698 0.671546 29.7698Z" fill="#252D32"/>
<path d="M10.855 33.2953H3.33027C2.27657 33.2953 1.27381 32.786 0.647074 31.936C0.0125072 31.0704 -0.167681 29.9697 0.161354 28.9121C0.580481 27.5724 1.88878 26.6362 3.34985 26.6362H10.8511C11.1762 26.6362 11.4386 26.8987 11.4386 27.2238C11.4386 27.5489 11.1762 27.8114 10.8511 27.8114H3.34985C2.398 27.8114 1.548 28.4067 1.28556 29.2646C1.07012 29.9618 1.1798 30.6826 1.59501 31.2427C1.99846 31.795 2.6487 32.1201 3.33027 32.1201H10.855C11.1801 32.1201 11.4425 32.3826 11.4425 32.7077C11.4425 33.0328 11.1801 33.2953 10.855 33.2953Z" fill="#252D32"/>
<path d="M3.80436 27.0279C3.47924 27.0279 3.2168 26.7654 3.2168 26.4403V7.63834C3.2168 7.31323 3.47924 7.05078 3.80436 7.05078C4.12948 7.05078 4.39192 7.31323 4.39192 7.63834V26.4403C4.39192 26.7654 4.12948 27.0279 3.80436 27.0279Z" fill="#252D32"/>
<path d="M3.80436 5.48405C3.47924 5.48405 3.2168 5.2216 3.2168 4.89648V0.979407C3.2168 0.65429 3.47924 0.391846 3.80436 0.391846C4.12948 0.391846 4.39192 0.65429 4.39192 0.979407V4.89648C4.39192 5.2216 4.12948 5.48405 3.80436 5.48405Z" fill="#252D32"/>
<path d="M21.2354 22.069C21.5644 22.6801 22.4105 22.8524 22.8022 22.4607C22.8022 22.4607 23.1234 19.7697 24.3691 18.9353C25.4306 18.2263 28.6308 18.8452 29.4613 18.9353C30.2917 19.0254 30.6364 18.7317 30.6364 18.7317V21.6773C31.0281 22.069 32.2032 22.069 32.5949 20.8939C33.3039 19.7109 32.6184 18.5005 32.2032 17.3685V16.1934C31.6313 16.1033 30.8479 16.2365 30.2447 15.8017C29.0069 14.9086 28.4076 14.5404 26.6488 14.6344C25.0467 14.7206 23.7541 16.0915 23.7541 16.0915C23.7541 16.0915 22.2068 16.2952 21.3294 17.819C20.4559 19.3466 21.2315 22.069 21.2315 22.069H21.2354Z" fill="#B5D44F"/>
<path d="M21.1477 22.2726C20.8814 22.2726 20.6424 22.0924 20.5758 21.8221C20.1802 20.1847 20.3996 18.4887 21.1712 17.2822C21.8058 16.2873 22.8007 15.6292 24.0464 15.3785C24.3636 15.3158 24.6731 15.5195 24.7358 15.8407C24.7984 16.158 24.5948 16.4675 24.2736 16.5301C23.3374 16.7181 22.6245 17.1843 22.1583 17.9129C21.5551 18.8569 21.3906 20.2122 21.7157 21.544C21.794 21.8613 21.5982 22.1785 21.2848 22.253C21.2378 22.2647 21.1908 22.2686 21.1438 22.2686L21.1477 22.2726Z" fill="#252D32"/>
<path d="M32.2166 16.9455C31.2883 16.9455 30.6145 16.6164 29.9016 16.2639C29.2945 15.9662 28.6677 15.6607 27.7629 15.4844C25.5145 15.0496 24.6919 16.2247 24.6566 16.2757C24.4765 16.542 24.1122 16.6204 23.8458 16.4441C23.5755 16.2678 23.4972 15.9114 23.6695 15.6411C23.7205 15.5627 24.9191 13.7374 27.9862 14.3328C29.0438 14.5365 29.7763 14.8969 30.4187 15.2102C31.0571 15.5236 31.5624 15.7704 32.2166 15.7704C32.5417 15.7704 32.8042 16.0328 32.8042 16.3579C32.8042 16.683 32.5417 16.9455 32.2166 16.9455Z" fill="#252D32"/>
<path d="M26.9207 28.2777C24.8368 28.2777 22.4121 26.1468 22.4121 23.4009V21.509C22.4121 20.8039 22.561 20.1576 22.8508 19.5857C23.3444 18.6182 24.116 18.0385 25.0914 17.9014C25.7025 17.8152 26.4467 17.964 27.234 18.1168C28.4327 18.3518 29.788 18.6143 30.5988 18.0424C31.061 17.7172 31.3548 17.1219 31.488 16.2327C31.535 15.9115 31.8366 15.696 32.1578 15.7391C32.479 15.7861 32.6984 16.0877 32.6514 16.4089C32.479 17.5371 32.0638 18.3753 31.4136 18.9002C31.4175 18.9315 31.4214 18.9629 31.4214 18.9942V23.397C31.4214 26.1429 29.0006 28.2738 26.9207 28.2738V28.2777ZM25.4792 19.053C25.3969 19.053 25.3186 19.0569 25.2481 19.0686C24.6644 19.1509 24.21 19.5034 23.8928 20.1223C23.6891 20.5219 23.5833 21.0037 23.5833 21.5129V23.4048C23.5833 25.3986 25.4165 27.1065 26.9167 27.1065C28.417 27.1065 30.2423 25.3986 30.2423 23.4048V19.4603C29.1965 19.7032 28.0096 19.4721 27.0029 19.2762C26.431 19.1626 25.8826 19.0569 25.4753 19.0569L25.4792 19.053Z" fill="#252D32"/>
<path d="M18.8233 32.1986C18.651 32.1986 18.4786 32.1242 18.365 31.9792C18.1613 31.7246 18.2044 31.3564 18.459 31.1527C19.2855 30.4907 20.3392 29.9424 21.7689 29.4214C23.3279 28.8534 23.9821 28.4539 23.9821 27.4276V26.8322C23.9821 26.5071 24.2445 26.2446 24.5697 26.2446C24.8948 26.2446 25.1572 26.5071 25.1572 26.8322V27.4276C25.1572 29.441 23.4298 30.0677 22.1724 30.526C20.8837 30.996 19.9083 31.5013 19.1954 32.0732C19.0858 32.1594 18.9565 32.2025 18.8272 32.2025L18.8233 32.1986Z" fill="#252D32"/>
<path d="M35.229 32.3827C35.0919 32.3827 34.9548 32.3357 34.8413 32.2378C34.097 31.5875 33.0903 31.043 31.6645 30.526C30.4032 30.0677 28.6797 29.441 28.6797 27.4276V26.8322C28.6797 26.5071 28.9421 26.2446 29.2672 26.2446C29.5924 26.2446 29.8548 26.5071 29.8548 26.8322V27.4276C29.8548 28.4499 30.505 28.8534 32.068 29.4214C33.6348 29.9894 34.7629 30.6043 35.6168 31.3525C35.8597 31.5679 35.8871 31.9361 35.6717 32.1829C35.5542 32.3161 35.3936 32.3827 35.229 32.3827Z" fill="#252D32"/>
<path d="M27.1024 32.0849C24.9402 32.0849 23.248 30.9098 23.248 29.4096C23.248 29.0845 23.5105 28.822 23.8356 28.822C24.1607 28.822 24.4232 29.0845 24.4232 29.4096C24.4232 30.1186 25.5239 30.9098 27.1024 30.9098C28.681 30.9098 29.7817 30.1186 29.7817 29.4096C29.7817 29.0845 30.0442 28.822 30.3693 28.822C30.6944 28.822 30.9569 29.0845 30.9569 29.4096C30.9569 30.9098 29.2647 32.0849 27.1024 32.0849Z" fill="#252D32"/>
<path d="M32.9352 20.9919C32.896 20.9919 32.8568 20.9919 32.8177 20.9802C32.5004 20.9136 32.2967 20.6041 32.3594 20.2869C32.6492 18.8806 31.8736 18.0541 31.8423 18.0228C31.619 17.7917 31.6229 17.4196 31.8541 17.1924C32.0852 16.9652 32.4534 16.9652 32.6806 17.1924C32.7315 17.2433 33.934 18.4772 33.5149 20.5219C33.4561 20.8 33.2133 20.9919 32.9391 20.9919H32.9352Z" fill="#252D32"/>
<path d="M40.6252 40.3459H13.5973C13.2722 40.3459 13.0098 40.0835 13.0098 39.7583V6.8549C13.0098 6.52978 13.2722 6.26733 13.5973 6.26733H40.6252C40.9503 6.26733 41.2127 6.52978 41.2127 6.8549V39.7583C41.2127 40.0835 40.9503 40.3459 40.6252 40.3459ZM14.1849 39.1708H40.0376V7.44246H14.1849V39.1708Z" fill="#252D32"/>
</svg>
