<svg width="47" height="44" viewBox="0 0 47 44" fill="none" xmlns="http://www.w3.org/2000/svg">
<path d="M18.9042 7.15217C16.878 5.12594 17.436 0.544922 17.436 0.544922C17.436 0.544922 15.3106 4.2046 12.6641 4.58268C10.0946 4.94975 8.25923 2.74734 8.25923 2.74734C8.25923 2.74734 8.44277 5.86742 6.79096 6.7851C5.41078 7.55227 0.550781 6.7851 0.550781 6.7851C0.550781 6.7851 2.7532 8.98751 2.7532 11.557C2.7532 14.4789 1.65199 15.9618 1.65199 15.9618C2.7532 15.5948 5.32268 15.5948 6.79096 16.696C8.67035 18.1055 8.6263 22.202 8.6263 22.202C8.6263 22.202 10.7443 17.5806 13.3982 16.696C16.7018 15.5948 19.6384 17.7972 19.6384 17.7972C19.6384 17.7972 18.5372 15.2277 20.0054 12.6582C21.081 10.7751 24.4103 8.98751 24.4103 8.98751C24.4103 8.98751 20.7396 8.98751 18.9042 7.15217Z" fill="#FB954C"/>
<path d="M44.3257 12.1077H44.0467L43.8338 37.3217C43.8338 37.586 43.6172 37.8025 43.3529 37.8025H29.9035C25.6822 37.8025 23.5716 39.9095 23.5716 39.9095C23.5716 39.9095 21.4609 37.8025 17.2396 37.8025H3.05242C2.78813 37.8025 2.57156 37.586 2.57156 37.3217V17.7605C2.03931 17.7605 2.42106 17.834 2.29258 17.8743L0.369141 18.5167V38.889C0.369141 40.3463 1.19872 41.1025 2.78079 41.1025H16.8212C20 41.1025 21.6335 42.4937 21.7986 42.6405C22.6209 43.4848 23.9717 43.4958 24.8086 42.6662C24.8894 42.5891 26.5228 41.1025 29.8081 41.1025H44.0173C45.4856 41.1025 46.2564 40.3463 46.2564 38.889V14.0275C46.2564 12.9666 45.3938 12.104 44.333 12.104L44.3257 12.1077Z" fill="#B5D44F"/>
<path d="M23.3076 40.6323C23.1682 40.6323 23.0287 40.5773 22.9222 40.4745C22.9039 40.4561 20.863 38.5327 16.8839 38.5327H3.23264C2.66368 38.5327 2.20117 38.0702 2.20117 37.5012V17.7933C2.20117 17.4886 2.44711 17.2427 2.75178 17.2427C3.05644 17.2427 3.30238 17.4886 3.30238 17.7933V37.4315H16.8839C19.7434 37.4315 21.6999 38.3235 22.757 38.9842V19.9957C22.757 19.691 23.003 19.4451 23.3076 19.4451C23.6123 19.4451 23.8583 19.691 23.8583 19.9957V40.078C23.8583 40.2983 23.7261 40.5002 23.5205 40.5846C23.4508 40.614 23.3811 40.6286 23.3076 40.6286V40.6323Z" fill="#252D32"/>
<path d="M23.3576 40.6325C23.2181 40.6325 23.075 40.5774 22.9685 40.471C22.752 40.2544 22.752 39.9057 22.9685 39.6928C23.0603 39.601 25.2774 37.4353 29.6492 37.4353H43.3078V12.1076H26.9732C25.4389 12.1076 23.8532 13.2748 23.8532 15.2276V17.4301C23.8532 17.7347 23.6072 17.9807 23.3026 17.9807C22.9979 17.9807 22.752 17.7347 22.752 17.4301V15.2276C22.752 12.5847 24.8993 11.0063 26.9732 11.0063H43.3776C43.9465 11.0063 44.409 11.4689 44.409 12.0378V37.5051C44.409 38.074 43.9465 38.5365 43.3776 38.5365H29.6492C25.7289 38.5365 23.7651 40.4526 23.7467 40.471C23.6403 40.5774 23.4971 40.6325 23.3576 40.6325Z" fill="#252D32"/>
<path d="M20.5537 26.7903H5.50391V34.1317H20.5537V26.7903Z" fill="#FB954C"/>
<path d="M41.1104 26.7903H26.0605V34.1317H41.1104V26.7903Z" fill="#FB954C"/>
<path d="M32.6678 15.7783H26.0605V24.955H32.6678V15.7783Z" fill="#FB954C"/>
<path d="M41.1092 15.7783H34.502V24.955H41.1092V15.7783Z" fill="#FB954C"/>
<path d="M8.62512 22.7526C8.58475 22.7526 8.54437 22.7489 8.50399 22.7379C8.25071 22.6792 8.07085 22.4553 8.07452 22.1947C8.08553 21.1338 7.8139 18.1532 6.45942 17.1365C5.12696 16.138 2.73366 16.1821 1.827 16.4831C1.59942 16.5565 1.34614 16.4794 1.20665 16.2848C1.06717 16.0903 1.06717 15.826 1.20665 15.6351C1.214 15.6241 2.20141 14.2329 2.20141 11.557C2.20141 9.2518 0.178864 7.19621 0.16051 7.17419C-0.0193534 6.99433 -0.0523921 6.71168 0.0834235 6.49511C0.219239 6.27854 0.483529 6.18311 0.725794 6.26387C1.87105 6.64562 5.13797 7.40545 6.44841 6.35563C6.687 6.16476 7.03204 6.20513 7.22292 6.44005C7.41379 6.67865 7.37342 7.0237 7.13849 7.21457C5.82806 8.26072 3.55957 8.05148 2.00687 7.7358C2.63456 8.68651 3.30629 10.052 3.30629 11.557C3.30629 13.2051 2.97226 14.4275 2.65291 15.2204C4.05144 15.1029 5.91248 15.3488 7.12381 16.2555C8.31679 17.1511 8.81967 18.9241 9.0289 20.3043C9.93556 18.8103 11.4479 16.7694 13.2245 16.1747C15.471 15.4259 17.5376 16.0683 18.7746 16.6593C18.6057 15.5801 18.6131 13.9907 19.5271 12.3866C20.1951 11.2193 21.612 10.1144 22.7059 9.38395C21.4101 9.17472 19.6629 8.68651 18.5176 7.54126C17.1889 6.21247 16.8658 3.966 16.8218 2.36558C15.8894 3.5035 14.4322 4.88735 12.7436 5.12961C11.0992 5.36087 9.74468 4.68179 8.8784 4.04676C8.86739 4.35877 8.84169 4.70015 8.78296 5.0562C8.73157 5.3572 8.44893 5.55909 8.15161 5.51137C7.85061 5.46365 7.64872 5.17733 7.69644 4.88001C7.87263 3.81551 7.71846 2.85012 7.71846 2.8391C7.67808 2.59317 7.80656 2.35457 8.03414 2.25179C8.26172 2.14901 8.52602 2.21142 8.68386 2.40229C8.69854 2.42064 10.3614 4.36611 12.5895 4.04309C14.935 3.70906 16.9429 0.306331 16.9613 0.273295C17.0934 0.0493824 17.365 -0.0534019 17.611 0.0273534C17.8569 0.111779 18.0148 0.357718 17.9817 0.614666C17.978 0.658714 17.4825 4.95343 19.2922 6.76675C20.9403 8.41489 24.3761 8.44058 24.4091 8.44058C24.6624 8.44058 24.8826 8.61311 24.9414 8.85537C25.0001 9.09764 24.89 9.35459 24.6697 9.47572C24.6367 9.49407 21.4652 11.212 20.4815 12.9335C19.1637 15.2387 20.1327 17.5586 20.1438 17.5843C20.2429 17.8119 20.1731 18.0798 19.9786 18.234C19.784 18.3882 19.5087 18.3918 19.3068 18.2413C19.2811 18.223 16.5501 16.2298 13.5732 17.2209C11.5837 17.8853 9.68962 21.2109 9.12801 22.4333C9.03624 22.6315 8.83802 22.7563 8.62879 22.7563L8.62512 22.7526Z" fill="#252D32"/>
<path d="M12.2946 25.6891C12.2616 25.6891 12.2286 25.6891 12.1919 25.6781C11.8945 25.623 11.6963 25.3367 11.7514 25.0357L12.669 20.0803C12.7241 19.783 13.0104 19.5811 13.3114 19.6398C13.6087 19.6949 13.807 19.9812 13.7519 20.2822L12.8342 25.2376C12.7865 25.5019 12.5553 25.6891 12.2946 25.6891Z" fill="#252D32"/>
<path d="M16.6993 23.4867C16.4461 23.4867 16.2185 23.3105 16.1634 23.0572L15.4293 19.7536C15.3632 19.4562 15.5504 19.1626 15.8477 19.0965C16.1451 19.0304 16.4387 19.2176 16.5048 19.515L17.2389 22.8186C17.305 23.1159 17.1178 23.4096 16.8205 23.4756C16.7801 23.483 16.7397 23.4903 16.6993 23.4903V23.4867Z" fill="#252D32"/>
<path d="M20.0042 4.0321C19.828 4.0321 19.6518 3.94768 19.5453 3.78617C19.3765 3.5329 19.4462 3.19152 19.6995 3.02266L23.0031 0.820249C23.2564 0.651398 23.5978 0.721146 23.7666 0.974423C23.9355 1.2277 23.8657 1.56907 23.6125 1.73792L20.3088 3.94034C20.2134 4.00274 20.1106 4.0321 20.0042 4.0321Z" fill="#252D32"/>
<path d="M21.4729 6.2344C21.1976 6.2344 20.959 6.02885 20.9259 5.7462C20.8892 5.44521 21.1058 5.1699 21.4068 5.13687L27.647 4.40273C27.9406 4.36235 28.2233 4.58259 28.2563 4.88359C28.293 5.18458 28.0764 5.45989 27.7754 5.49292L21.5353 6.22706C21.5132 6.22706 21.4912 6.23073 21.4692 6.23073L21.4729 6.2344Z" fill="#252D32"/>
<path d="M11.2811 12.4181V12.1113C11.2811 11.8992 11.3246 11.7051 11.4118 11.5289C11.5008 11.3509 11.6296 11.2088 11.7981 11.1028C11.9686 10.9948 12.175 10.9409 12.4174 10.9409C12.6636 10.9409 12.8701 10.9948 13.0368 11.1028C13.2034 11.2088 13.3294 11.3509 13.4146 11.5289C13.4998 11.7051 13.5424 11.8992 13.5424 12.1113V12.4181C13.5424 12.6302 13.4989 12.8253 13.4118 13.0034C13.3265 13.1795 13.1996 13.3215 13.0311 13.4295C12.8644 13.5355 12.6599 13.5886 12.4174 13.5886C12.1712 13.5886 11.9638 13.5355 11.7953 13.4295C11.6267 13.3215 11.4989 13.1795 11.4118 13.0034C11.3246 12.8253 11.2811 12.6302 11.2811 12.4181ZM11.8606 12.1113V12.4181C11.8606 12.5943 11.9023 12.7524 11.9856 12.8926C12.069 13.0308 12.2129 13.0999 12.4174 13.0999C12.6163 13.0999 12.7565 13.0308 12.8379 12.8926C12.9212 12.7524 12.9629 12.5943 12.9629 12.4181V12.1113C12.9629 11.9352 12.9231 11.778 12.8436 11.6397C12.764 11.4996 12.622 11.4295 12.4174 11.4295C12.2186 11.4295 12.0756 11.4996 11.9885 11.6397C11.9032 11.778 11.8606 11.9352 11.8606 12.1113ZM8.38335 9.08858V8.78176C8.38335 8.56964 8.42691 8.37551 8.51403 8.19937C8.60304 8.02134 8.73183 7.8793 8.90039 7.77324C9.07085 7.66528 9.27728 7.61131 9.51971 7.61131C9.76592 7.61131 9.97236 7.66528 10.139 7.77324C10.3057 7.8793 10.4316 8.02134 10.5169 8.19937C10.6021 8.37551 10.6447 8.56964 10.6447 8.78176V9.08858C10.6447 9.3007 10.6011 9.49578 10.514 9.67381C10.4288 9.84994 10.3019 9.99199 10.1333 10.0999C9.96668 10.206 9.76213 10.259 9.51971 10.259C9.2735 10.259 9.06611 10.206 8.89755 10.0999C8.72899 9.99199 8.60115 9.84994 8.51403 9.67381C8.42691 9.49578 8.38335 9.3007 8.38335 9.08858ZM8.96289 8.78176V9.08858C8.96289 9.26472 9.00456 9.42286 9.08789 9.56301C9.17122 9.70127 9.31516 9.7704 9.51971 9.7704C9.71857 9.7704 9.85872 9.70127 9.94016 9.56301C10.0235 9.42286 10.0652 9.26472 10.0652 9.08858V8.78176C10.0652 8.60562 10.0254 8.44843 9.94585 8.31017C9.8663 8.17002 9.72425 8.09994 9.51971 8.09994C9.32085 8.09994 9.17785 8.17002 9.09073 8.31017C9.0055 8.44843 8.96289 8.60562 8.96289 8.78176ZM8.59925 13.509L12.5993 7.69085H13.247L9.24698 13.509H8.59925Z" fill="#252D32"/>
</svg>
