<?xml version="1.0" encoding="UTF-8"?>
<svg id="Layer_1" xmlns="http://www.w3.org/2000/svg" viewBox="0 0 150 60">
  <defs>
    <style>
      .cls-1, .cls-2 {
        fill: #fff;
      }

      .cls-2 {
        fill-rule: evenodd;
      }
    </style>
  </defs>
  <path class="cls-2" d="M34.43,25.55c1.1-.58,1.99-.05,1.99,1.19v9.47c0,1.24-.89,2.72-1.98,3.3l-14.51,7.81c-1.1.58-1.99.05-1.99-1.19v-9.47c0-1.24.89-2.72,1.99-3.3l14.51-7.81Z"/>
  <path class="cls-1" d="M34.27,20.05c.79.41,1.34,1.35,1.07,2.25-.16.52-.72.96-1.2,1.22l-4.25,2.19-10.41,5.49c-.58.34-1.54.18-1.54-.69,0-.31.21-.55.44-.73l3.68-3.04c-.85-.46-1.72-1.07-2.13-1.29-1.04-.56-1.11-1.46-1.11-1.8v-9.34c0-.33-.02-.59.08-.91.22-.72.98-1.11,1.68-.88.12.04.22.1.34.17l13.35,7.37Z"/>
  <path class="cls-1" d="M113.89,36.22h-4.4v-19.04c0-1.07.98-2.09,2.08-2.09h2.33v21.13Z"/>
  <path class="cls-1" d="M64.59,36.22l-.02-7.93c0-2.44.64-5,2.62-6.59,1.79-1.41,4.42-1.77,6.64-1.77v4.33c-.12,0-.24,0-.37,0-1.24-.01-2.89-.02-3.77.86-.57.57-.7,1.47-.7,2.68v8.42h-4.4Z"/>
  <path class="cls-1" d="M117.97,42.01v-3.48c.14,0,.28,0,.42,0,.93.02,1.92.03,2.66-.58.47-.39.56-1.01.27-1.86l-5.67-16.6h4.4l3.59,11.91,2.87-10c.24-.98.85-1.9,1.91-1.9h3.08l-6.33,18.92c-.49,1.34-1.1,2.3-1.83,2.87-1.1.73-2.58.73-3.85.73h-.14s0,0,0,0c-.5,0-.92,0-1.38,0Z"/>
  <path class="cls-2" d="M50.95,40.18v-6.22c.96,1.69,2.96,2.44,4.82,2.44s3.48-.77,4.7-2.32c1.32-1.72,1.81-3.92,1.83-6.06.02-2.34-.42-4.95-2.19-6.64-1.45-1.41-3.5-1.87-5.47-1.87-2.14,0-4.52.63-6.01,2.24-1.09,1.12-1.64,2.83-1.64,5.14v15.5h2.07c1.13,0,1.89-1.07,1.89-2.2ZM58.09,28.04c0,1.46-.3,2.62-.92,3.48-.61.86-1.44,1.28-2.5,1.28-1.14,0-2.01-.43-2.62-1.28-.61-.77-.92-1.93-.92-3.48,0-2.23.71-4.94,3.42-4.94s3.54,2.66,3.54,4.94Z"/>
  <path class="cls-2" d="M95.84,33.95v6.22c0,1.13-.76,2.2-1.89,2.2h-2.07v-15.5c0-2.31.55-4.02,1.64-5.14,1.49-1.61,3.87-2.24,6.01-2.24,1.97,0,4.01.46,5.47,1.87,1.76,1.69,2.21,4.3,2.19,6.64-.02,2.14-.5,4.34-1.83,6.06-1.22,1.54-2.79,2.32-4.7,2.32s-3.86-.75-4.82-2.44ZM102.07,31.52c.62-.86.92-2.02.92-3.48,0-2.28-.83-4.94-3.54-4.94s-3.42,2.71-3.42,4.94c0,1.54.31,2.7.92,3.48.61.86,1.48,1.28,2.62,1.28,1.06,0,1.89-.43,2.5-1.28Z"/>
  <path class="cls-2" d="M86.8,31.07h3.05c-.45,1.71-1.3,2.93-2.56,3.82-1.26.93-2.85,1.32-4.76,1.32-2.32,0-4.13-.7-5.43-2.2-1.3-1.47-1.95-3.45-1.95-6.17s.63-4.64,1.89-6.1c1.3-1.5,3.11-2.26,5.43-2.26,2.44,0,4.11.73,5.45,2.19,1.82,2.1,2.17,4.85,2.17,7.49h-10.61c.04,1.26.34,2.09.92,2.7.53.65,1.32.98,2.38.98.6,0,1.24-.11,1.77-.43.25-.15.45-.36.65-.58.15-.16.3-.32.48-.46.27-.21.64-.31,1.13-.31ZM80.4,23.87c-.57.57-.88,1.38-.92,2.44h6.22c-.08-1.1-.37-1.91-.86-2.44-.53-.57-1.28-.86-2.26-.86-.89,0-1.63.28-2.19.86Z"/>
</svg>